<svg width="34" height="34" viewBox="0 0 34 34" fill="none" xmlns="http://www.w3.org/2000/svg">
<path d="M1.49606 29.4791C1.38449 29.4791 1.28036 29.4791 1.17623 29.4925C0.558875 29.5593 0.0679687 30.0074 0.00846491 30.5624C-0.0584768 31.1642 0.276232 31.6791 0.848956 31.853C1.11672 31.9332 1.42168 31.9399 1.69688 31.9399C11.1208 31.9533 20.5521 31.9533 29.9835 31.96H30.2438C31.0471 31.96 31.8802 31.96 32.6909 31.9265C33.4124 31.8931 34 31.3515 34 30.7162C34 30.0675 33.4124 29.5259 32.6463 29.4791C32.4678 29.4724 32.2893 29.4724 32.0884 29.4791C31.9843 29.4791 31.8802 29.4791 31.7612 29.4791H31.6868V23.4741C31.6868 16.6466 31.6868 9.81243 31.6868 2.98494C31.6868 1.78796 31.2108 1.35999 29.8719 1.35999C24.6802 1.35999 19.496 1.35999 14.3042 1.35999C12.9133 1.35999 12.4448 1.77458 12.4448 3.01169C12.4448 3.49316 12.4448 3.96794 12.4448 4.44941C12.4448 5.98075 12.4299 7.56558 12.4671 9.12367C12.4745 9.68538 12.2662 9.9328 11.6415 10.0933C9.59601 10.6283 7.52082 11.1967 5.52 11.745C4.89521 11.9189 4.27786 12.086 3.65307 12.2599C2.49275 12.5809 2.22498 12.9019 2.22498 14.0052V29.4925H2.1506C2.01672 29.4925 1.89771 29.4925 1.78614 29.4925C1.68945 29.4925 1.59275 29.4925 1.5035 29.4925L1.49606 29.4791ZM15.2489 3.88101H28.8529V29.439H21.3703V9.54495C21.3703 9.49145 21.3703 9.43796 21.3703 9.38446C21.3703 9.23735 21.3703 9.08354 21.3554 8.94311C21.3108 8.56195 21.0951 8.23429 20.7604 8.04036C20.4331 7.84644 20.0389 7.79294 19.6373 7.89993C18.6555 8.15404 17.6885 8.42152 16.6695 8.70238C16.2307 8.82275 15.7918 8.94312 15.3381 9.06348L15.2414 9.09023V3.88101H15.2489ZM5.69851 14.2192C8.66627 13.4368 11.6786 12.6277 14.5869 11.8386C15.7175 11.531 16.848 11.2301 17.986 10.9225C18.1051 10.8891 18.2241 10.869 18.3505 10.8489C18.4174 10.8356 18.4844 10.8222 18.5513 10.8088L18.6406 10.7887V29.439H13.2332V25.4334C13.2332 25.3599 13.2332 25.2863 13.2332 25.2194C13.2332 25.0322 13.2332 24.8383 13.2257 24.6443C13.1811 23.9422 12.6158 23.4206 11.8795 23.4139H11.8646C11.0985 23.4139 10.5109 23.9556 10.496 24.6711C10.4811 25.6073 10.4811 26.5568 10.4886 27.473C10.4886 27.8608 10.4886 28.2487 10.4886 28.6432V29.4323H5.02166V29.3654C5.02166 29.2918 5.01422 29.225 5.00678 29.1514C4.99934 29.0043 4.99191 28.8572 4.99191 28.7101C4.99191 27.5465 4.99191 26.383 4.99191 25.2194C4.99191 21.916 4.99191 18.4989 4.97703 15.142C4.97703 14.6672 5.0886 14.3797 5.70595 14.2192H5.69851Z" fill="#40C79E"/>
</svg>
