<svg width="24" height="24" viewBox="0 0 24 24" fill="none" xmlns="http://www.w3.org/2000/svg">
<rect width="24" height="24" fill="white"/>
<path d="M11.167 12.0986C11.3613 12.2858 11.5521 12.4656 11.7381 12.6502C12.7377 13.6431 13.7363 14.6373 14.7346 15.6312C15.0887 15.9837 15.0874 16.5543 14.7328 16.9086C14.3839 17.257 13.816 17.2585 13.4647 16.9091C12.4749 15.9245 11.4867 14.9389 10.4969 13.9543C10.0999 13.5593 9.69983 13.1675 9.30308 12.7723C8.89962 12.3707 8.89833 11.8097 9.30308 11.406C10.6627 10.0481 12.0254 8.69291 13.3848 7.33432C13.6706 7.04853 13.998 6.91818 14.3927 7.05396C15.0333 7.27457 15.2071 8.07193 14.7212 8.55842C13.9173 9.36328 13.1086 10.1632 12.3024 10.9658C11.93 11.3364 11.5586 11.7078 11.167 12.0986V12.0986Z" fill="black"/>
</svg>
