<svg width="24" height="24" viewBox="0 0 24 24" fill="none" xmlns="http://www.w3.org/2000/svg">
<path d="M12.8331 12.2122C12.6389 12.3889 12.448 12.5586 12.2621 12.7329C11.2625 13.6704 10.2643 14.6086 9.26577 15.547C8.91173 15.8798 8.91302 16.4183 9.26758 16.7528C9.61645 17.0816 10.1844 17.0831 10.5356 16.7532C11.5253 15.8238 12.5135 14.8935 13.5032 13.9641C13.9001 13.5913 14.3002 13.2214 14.6969 12.8484C15.1004 12.4693 15.1017 11.9397 14.6969 11.5587C13.3371 10.277 11.9745 8.99774 10.6152 7.71557C10.3295 7.44581 10.002 7.32277 9.6074 7.45093C8.96681 7.65918 8.79302 8.41183 9.27896 8.87104C10.0827 9.63077 10.8914 10.3859 11.6975 11.1434C12.0699 11.4932 12.4413 11.8438 12.8328 12.2127L12.8331 12.2122Z" fill="black"/>
</svg>
