<svg width="22" height="20" viewBox="0 0 22 20" fill="none" xmlns="http://www.w3.org/2000/svg">
<path fill-rule="evenodd" clip-rule="evenodd" d="M7.62154 5.07231C9.02173 5.07908 10.1792 3.91056 10.1632 2.50615C10.148 1.10428 9.02003 -0.0058951 7.61731 2.35555e-05C6.21797 0.00594221 5.09427 1.13471 5.09597 2.53152C5.0985 3.9224 6.23488 5.06555 7.62154 5.07231ZM7.62408 1.27253C8.33093 1.27 8.88813 1.82043 8.89067 2.52475C8.89321 3.22231 8.3284 3.79557 7.63591 3.80065C6.94597 3.80487 6.37355 3.2333 6.36932 2.53659C6.36594 1.83312 6.91976 1.27592 7.62408 1.27338V1.27253ZM18.1187 11.4179C17.8431 11.4213 17.7137 11.3579 17.6114 11.0679C17.159 9.78102 16.2408 9.04964 14.8744 8.87969C14.7146 8.86025 14.5362 8.75709 14.4229 8.63872C12.7894 6.93246 10.0845 7.40087 9.1384 9.56034C9.11256 9.61892 9.08515 9.67672 9.05221 9.7462L9.05219 9.74625C9.03664 9.77904 9.01986 9.81443 9.00143 9.85373C6.76563 8.81781 4.43094 8.84502 2.0796 8.87243H2.07957C1.38713 8.8805 0.693235 8.88859 0 8.86955V10.1463C0.109664 10.1463 0.217607 10.147 0.324319 10.1478C0.576331 10.1495 0.821476 10.1512 1.0662 10.1429C1.2835 10.1361 1.38919 10.1928 1.42132 10.4371C1.50117 11.0394 1.58827 11.6408 1.67537 12.2421C1.79211 13.0481 1.90885 13.854 2.00812 14.6622C2.15693 15.8747 2.54164 16.9612 3.45142 17.8169C3.47642 17.8402 3.49558 17.8697 3.51705 17.9028L3.51707 17.9029C3.52827 17.9201 3.54011 17.9384 3.55373 17.9572C3.36238 18.2467 3.17427 18.5308 2.98166 18.8217L2.66847 19.2948L2.88667 19.4415L2.88775 19.4423C3.16227 19.6268 3.43028 19.807 3.71522 19.9983C4.03737 19.524 4.3426 19.075 4.65545 18.615C5.44263 18.9811 6.25179 19.031 7.07448 19.0276C9.42757 19.0192 11.7807 19.02 14.1346 19.0276L14.2151 19.0279C15.1461 19.0307 16.0741 19.0335 16.951 18.6201L17.0449 18.7574C17.3343 19.1805 17.6107 19.5847 17.8955 20L18.1072 19.8578L18.9372 19.2999L18.6226 18.8227C18.4228 18.5198 18.23 18.2275 18.0299 17.9234C19.0496 17.0322 19.469 15.8832 19.6 14.5937C19.6438 14.1616 19.7108 13.7319 19.7804 13.2861L19.7805 13.286C19.8118 13.0854 19.8436 12.8815 19.874 12.6727H21.6014V11.4129C21.2889 11.4129 20.9782 11.4123 20.6688 11.4118L20.6677 11.4118C19.8119 11.4103 18.9659 11.4089 18.1204 11.4188L18.1187 11.4179ZM11.5963 8.93888C12.37 8.74695 13.0997 8.9262 13.536 9.61107C13.8395 10.0871 14.1574 10.1953 14.6842 10.1683C15.4502 10.1285 16.0911 10.6384 16.3558 11.3943C14.2208 11.4983 12.1721 11.3047 10.2097 10.3805C10.4067 9.62629 10.8574 9.1232 11.5972 8.93972L11.5963 8.93888ZM17.9792 15.835C17.5175 17.099 16.4471 17.7315 15.1036 17.745C12.2305 17.7737 9.35739 17.7704 6.48431 17.7475C4.84315 17.734 3.5884 16.5824 3.34742 14.9421C3.18913 13.8636 3.03403 12.7852 2.87692 11.6928L2.87687 11.6925C2.80489 11.192 2.73249 10.6886 2.65917 10.181C4.8998 10.0296 7.0246 10.2469 9.00481 11.2336C11.0645 12.2601 13.2324 12.7361 15.528 12.6879C16.2056 12.6736 16.8832 12.6772 17.5974 12.6809L17.5978 12.6809C17.935 12.6827 18.2804 12.6845 18.6378 12.6845C18.5705 13.0233 18.5159 13.3613 18.4619 13.6957C18.3424 14.4363 18.2256 15.1595 17.9792 15.8358V15.835ZM15.2338 4.42379C15.238 5.47393 14.379 6.33975 13.3347 6.33806H13.3339C12.3057 6.33637 11.4577 5.49592 11.4391 4.461C11.4196 3.40494 12.2592 2.54589 13.3178 2.53828C14.384 2.53067 15.2295 3.36351 15.2338 4.42379ZM13.9604 4.42718C13.9587 4.0822 13.6983 3.81756 13.3533 3.80995V3.81079C12.9906 3.80234 12.7099 4.07713 12.7133 4.43732C12.7167 4.77046 12.9923 5.0554 13.3212 5.0647C13.6645 5.07485 13.9621 4.77722 13.9604 4.42718Z" fill="#434343"/>
</svg>
