<svg width="20" height="18" viewBox="0 0 20 18" fill="none" xmlns="http://www.w3.org/2000/svg">
<path d="M2.27211 15.2411C1.73414 15.2411 1.24302 15.2466 0.751122 15.2395C0.200664 15.2317 0.00234238 15.0303 0.00156158 14.4783C-0.000780792 13.2157 0 11.954 0.000780792 10.6914C0.00234238 9.18762 0.698029 8.18821 2.10892 7.65883C2.15655 7.64087 2.20262 7.61901 2.26976 7.58934C2.26976 5.79586 2.27289 4.0016 2.26742 2.20656C2.26586 1.69514 2.38376 1.22823 2.69998 0.820652C3.12942 0.270974 3.70174 0.00472336 4.39352 0.00472336C8.12805 0.00238098 11.8634 -0.00620774 15.5979 0.00862732C16.8643 0.0140929 17.7162 0.905758 17.7209 2.16752C17.7263 3.83295 17.7224 5.49916 17.7224 7.16459C17.7224 7.3067 17.7224 7.4488 17.7224 7.59403C17.8856 7.65727 18.0332 7.70646 18.1737 7.77127C19.3207 8.29986 19.9524 9.19621 19.9836 10.4572C20.0172 11.8095 19.9945 13.1634 19.9906 14.5173C19.9891 15.0186 19.7829 15.2294 19.2809 15.2388C18.7765 15.2489 18.2721 15.2411 17.7224 15.2411C17.7224 15.7072 17.7271 16.1336 17.7209 16.5591C17.7146 17.0026 17.4804 17.2735 17.1189 17.272C16.7542 17.2696 16.5403 17.0112 16.5333 16.5513C16.5278 16.1999 16.5481 15.847 16.52 15.498C16.5122 15.4074 16.3756 15.3114 16.278 15.2497C16.2217 15.2146 16.1257 15.2419 16.0476 15.2419C12.0133 15.2419 7.9797 15.2481 3.94534 15.2325C3.54636 15.231 3.4105 15.3356 3.45423 15.7322C3.4878 16.0406 3.46906 16.3569 3.45501 16.6684C3.43861 17.0369 3.20437 17.2704 2.8741 17.272C2.54929 17.2735 2.29006 17.0346 2.27679 16.677C2.25961 16.2124 2.27289 15.7471 2.27289 15.2419L2.27211 15.2411ZM18.8046 14.0246C18.8046 12.8745 18.8109 11.7705 18.803 10.6664C18.7945 9.45544 18.0597 8.7254 16.8472 8.72461C12.2803 8.72149 7.71345 8.72149 3.14581 8.72461C1.93168 8.72461 1.19774 9.45387 1.18837 10.6649C1.18056 11.6799 1.18602 12.6949 1.18837 13.7092C1.18837 13.8091 1.20554 13.9091 1.21569 14.0246H18.8046ZM5.43588 7.52063C5.43588 7.2333 5.43354 6.98813 5.43588 6.74296C5.45305 4.95885 6.61644 3.78922 8.39586 3.77673C9.46242 3.76892 10.5298 3.76892 11.5963 3.77673C13.3758 3.78922 14.5384 4.95885 14.5555 6.74296C14.5579 6.99906 14.5555 7.25438 14.5555 7.50502H16.5309C16.5309 7.34417 16.5309 7.21612 16.5309 7.08729C16.5309 5.49994 16.5325 3.91259 16.5309 2.32524C16.5302 1.48901 16.2452 1.20636 15.4019 1.20636C11.7978 1.20558 8.19442 1.20558 4.59028 1.20636C3.74702 1.20636 3.46203 1.48901 3.46125 2.32524C3.45969 3.92586 3.46047 5.52571 3.46125 7.12633C3.46125 7.25204 3.47453 7.37853 3.48233 7.51985H5.43588V7.52063ZM13.3555 7.52219C13.3555 7.15991 13.3679 6.8351 13.3531 6.51263C13.3141 5.66391 12.6481 4.99008 11.7915 4.97603C10.5961 4.95573 9.39918 4.95885 8.20379 4.97603C7.45344 4.98618 6.80539 5.50931 6.68046 6.24169C6.61019 6.65239 6.66797 7.08495 6.66797 7.52219H13.3562H13.3555Z" fill="#434343"/>
</svg>
