<svg width="25" height="21" viewBox="0 0 25 21" fill="none" xmlns="http://www.w3.org/2000/svg">
<g clip-path="url(#clip0_83_4406)">
<path d="M3.42471 18.2892C2.77915 18.2892 2.18981 18.2958 1.59953 18.2874C0.938978 18.278 0.700992 18.0363 0.700055 17.3738C0.697244 15.8588 0.698181 14.3447 0.699118 12.8296C0.700992 11.0251 1.53582 9.82577 3.22889 9.19051C3.28604 9.16896 3.34132 9.14273 3.4219 9.10712C3.4219 6.95495 3.42565 4.80183 3.41909 2.64778C3.41721 2.03408 3.55869 1.47378 3.93816 0.984696C4.45348 0.325083 5.14027 0.00558258 5.9704 0.00558258C10.4518 0.00277173 14.9342 -0.00753474 19.4157 0.0102673C20.9354 0.016826 21.9576 1.08682 21.9632 2.60094C21.9698 4.59945 21.9651 6.59891 21.9651 8.59742C21.9651 8.76795 21.9651 8.93847 21.9651 9.11275C22.1609 9.18864 22.338 9.24767 22.5067 9.32543C23.883 9.95975 24.641 11.0354 24.6785 12.5485C24.7188 14.1713 24.6916 15.796 24.6869 17.4207C24.6851 18.0222 24.4377 18.2752 23.8352 18.2864C23.23 18.2986 22.6247 18.2892 21.9651 18.2892C21.9651 18.8486 21.9707 19.3602 21.9632 19.8708C21.9557 20.403 21.6746 20.7281 21.2408 20.7263C20.8033 20.7234 20.5466 20.4133 20.5381 19.8614C20.5316 19.4398 20.5559 19.0163 20.5222 18.5975C20.5128 18.4888 20.3489 18.3736 20.2317 18.2996C20.1643 18.2574 20.049 18.2902 19.9553 18.2902C15.1141 18.2902 10.2738 18.2977 5.43259 18.2789C4.95381 18.2771 4.79078 18.4026 4.84325 18.8786C4.88354 19.2487 4.86105 19.6281 4.84419 20.002C4.82451 20.4442 4.54343 20.7244 4.1471 20.7263C3.75733 20.7281 3.44626 20.4414 3.43033 20.0123C3.40972 19.4548 3.42565 18.8964 3.42565 18.2902L3.42471 18.2892ZM23.2637 16.8295C23.2637 15.4493 23.2712 14.1245 23.2618 12.7996C23.2515 11.3464 22.3699 10.4704 20.9148 10.4695C15.4345 10.4657 9.95432 10.4657 4.47316 10.4695C3.0162 10.4695 2.13546 11.3446 2.12422 12.7978C2.11485 14.0158 2.12141 15.2338 2.12422 16.4509C2.12422 16.5709 2.14483 16.6908 2.15701 16.8295H23.2637ZM7.22123 9.02467C7.22123 8.67987 7.21842 8.38567 7.22123 8.09147C7.24185 5.95054 8.6379 4.54698 10.7732 4.53199C12.0531 4.52262 13.3339 4.52262 14.6138 4.53199C16.7491 4.54698 18.1442 5.95054 18.1648 8.09147C18.1676 8.39879 18.1648 8.70517 18.1648 9.00593H20.5353C20.5353 8.81292 20.5353 8.65926 20.5353 8.50466C20.5353 6.59984 20.5372 4.69502 20.5353 2.7902C20.5344 1.78673 20.1924 1.44755 19.1805 1.44755C14.8555 1.44661 10.5315 1.44661 6.20652 1.44755C5.19461 1.44755 4.85262 1.78673 4.85168 2.7902C4.84981 4.71095 4.85075 6.63076 4.85168 8.55151C4.85168 8.70236 4.86761 8.85415 4.87698 9.02374H7.22123V9.02467ZM16.7247 9.02655C16.7247 8.5918 16.7397 8.20203 16.7219 7.81507C16.6751 6.7966 15.8759 5.98801 14.848 5.97115C13.4135 5.94679 11.9772 5.95054 10.5427 5.97115C9.64232 5.98333 8.86465 6.61109 8.71473 7.48995C8.63041 7.98278 8.69974 8.50185 8.69974 9.02655H16.7257H16.7247Z" fill="black"/>
</g>
<defs>
<clipPath id="clip0_83_4406">
<rect width="24" height="20.7263" fill="white" transform="translate(0.698181)"/>
</clipPath>
</defs>
</svg>
