<svg width="34" height="34" viewBox="0 0 34 34" fill="none" xmlns="http://www.w3.org/2000/svg">
<g clip-path="url(#clip0_89_6415)">
<path d="M30.7725 31.7161C31.8903 29.6243 32.2382 27.4143 31.9199 25.9435H17.8328V23.9552H28.7294C28.759 23.7556 28.8034 23.6078 28.796 23.46C28.6183 21.5456 28.6035 19.6017 28.2186 17.7317C27.0194 11.8704 23.9103 7.11782 19.2985 3.37043C18.2399 2.51304 17.4849 1.6926 17.781 0.25869C17.7958 0.184777 17.7514 0.0960809 17.7291 0.00738525H15.7823C15.7823 2.40217 15.7527 4.74521 15.7971 7.08825C15.8119 7.79782 15.6046 8.25608 15.042 8.69956C11.4962 11.5378 9.13476 15.1448 8.31307 19.6461C8.06139 21.043 8.02437 22.4769 7.88373 23.9774H15.7304V25.9952H2.01349C1.84323 28.0722 2.28738 29.9422 3.24972 31.7309C2.21336 31.1765 1.25102 30.5409 0.00739288 30.6665V32.4552C0.651416 32.7509 1.20661 32.9504 1.71739 33.2461C3.40517 34.2143 5.10036 34.2661 6.75113 33.2313C7.96515 32.4626 9.06073 32.4848 10.2748 33.2461C11.8959 34.2661 13.6133 34.2735 15.2345 33.2461C16.4781 32.4626 17.5811 32.4848 18.8173 33.2609C20.4163 34.2661 22.1263 34.2735 23.7178 33.2609C24.9837 32.4626 26.1014 32.4774 27.3599 33.2756C28.8626 34.2291 30.4616 34.1922 32.0457 33.4013C32.6823 33.0835 33.3264 32.773 34.0074 32.433V30.6665C32.7638 30.5409 31.7866 31.1987 30.7799 31.7309L30.7725 31.7161ZM15.723 21.9004H10.0379C10.334 17.3769 12.3031 13.7626 15.723 10.71V21.9004ZM26.7529 21.9152H17.818V17.9091C17.818 17.9091 17.818 9.19478 17.818 4.85608C25.3834 9.6013 26.8639 19.21 26.7455 21.9152H26.7529ZM28.3222 31.5091C27.086 30.6813 25.7683 30.3856 24.3692 30.77C23.8067 30.9252 23.2663 31.2135 22.7555 31.5091C21.7339 32.1004 20.742 32.1152 19.75 31.4796C17.9216 30.3043 16.0932 30.3043 14.2647 31.4796C13.295 32.1004 12.2957 32.1522 11.3259 31.5239C9.48268 30.3191 7.63944 30.3117 5.68516 31.4943C4.80426 30.4743 4.27127 29.3435 4.08621 27.9983H29.9064C29.7583 29.3435 29.1957 30.4596 28.3148 31.5091H28.3222Z" fill="#40C79E"/>
</g>
<defs>
<clipPath id="clip0_89_6415">
<rect width="34" height="34" fill="white"/>
</clipPath>
</defs>
</svg>
