<svg width="125" height="44" viewBox="0 0 125 44" fill="none" xmlns="http://www.w3.org/2000/svg">
<path d="M59.2292 15H55.6693C55.1554 15 54.7873 14.8861 54.5648 14.6583C54.3476 14.4252 54.239 14.0571 54.239 13.5538V4.79715C54.239 4.2833 54.3502 3.91513 54.5727 3.69264C54.8005 3.46485 55.166 3.35095 55.6693 3.35095H59.4437C59.9999 3.35095 60.482 3.38539 60.8899 3.45425C61.2978 3.52312 61.6633 3.65556 61.9865 3.85156C62.2619 4.01578 62.5056 4.22503 62.7175 4.47931C62.9294 4.72828 63.091 5.0064 63.2022 5.31365C63.3135 5.6156 63.3691 5.9361 63.3691 6.27513C63.3691 7.44056 62.7864 8.29345 61.6209 8.83378C63.1519 9.32115 63.9174 10.2694 63.9174 11.6785C63.9174 12.3301 63.7505 12.9181 63.4168 13.4426C63.083 13.9617 62.6327 14.3458 62.0659 14.5947C61.711 14.7431 61.3031 14.849 60.8422 14.9126C60.3813 14.9709 59.8437 15 59.2292 15ZM59.0543 9.82705H56.599V13.228H59.1338C60.7283 13.228 61.5256 12.6532 61.5256 11.5037C61.5256 10.9157 61.319 10.4892 60.9058 10.2244C60.4926 9.95949 59.8754 9.82705 59.0543 9.82705ZM56.599 5.12294V8.13452H58.7603C59.3483 8.13452 59.8013 8.0789 60.1191 7.96766C60.4423 7.85641 60.6886 7.64451 60.8581 7.33197C60.9905 7.10947 61.0568 6.8605 61.0568 6.58503C61.0568 5.99702 60.8475 5.60766 60.429 5.41695C60.0105 5.22094 59.3722 5.12294 58.514 5.12294H56.599ZM73.9374 10.7886C73.9374 11.4348 73.8368 12.0308 73.6355 12.5764C73.4342 13.1221 73.1428 13.5909 72.7614 13.9829C72.38 14.3749 71.9244 14.6769 71.3947 14.8888C70.8649 15.0954 70.269 15.1987 69.6068 15.1987C68.9499 15.1987 68.3593 15.0927 67.8348 14.8808C67.3104 14.6689 66.8548 14.367 66.4681 13.9749C66.0867 13.5776 65.7953 13.1115 65.594 12.5764C65.398 12.0361 65.3 11.4401 65.3 10.7886C65.3 10.1317 65.4006 9.53039 65.602 8.98476C65.8033 8.43913 66.092 7.97295 66.4681 7.58624C66.8442 7.19953 67.2998 6.90287 67.8348 6.69628C68.3699 6.48438 68.9605 6.37843 69.6068 6.37843C70.2637 6.37843 70.8596 6.48438 71.3947 6.69628C71.9297 6.90817 72.3879 7.21012 72.7694 7.60213C73.1508 7.99414 73.4395 8.46032 73.6355 9.00065C73.8368 9.54099 73.9374 10.137 73.9374 10.7886ZM71.7602 10.7886C71.7602 9.90386 71.5642 9.2152 71.1722 8.72254C70.7855 8.22988 70.2637 7.98355 69.6068 7.98355C69.183 7.98355 68.8095 8.09479 68.4864 8.31729C68.1633 8.53448 67.9143 8.85762 67.7395 9.28671C67.5646 9.7158 67.4772 10.2164 67.4772 10.7886C67.4772 11.3554 67.562 11.8507 67.7315 12.2745C67.9063 12.6983 68.1527 13.0241 68.4705 13.2519C68.7936 13.4743 69.1724 13.5856 69.6068 13.5856C70.2637 13.5856 70.7855 13.3393 71.1722 12.8466C71.5642 12.3486 71.7602 11.6626 71.7602 10.7886ZM79.9447 14.3007L78.3714 11.9884L76.7583 14.3007C76.5252 14.6239 76.3266 14.8543 76.1624 14.9921C76.0034 15.1298 75.7995 15.1987 75.5505 15.1987C75.275 15.1987 75.0393 15.1139 74.8433 14.9444C74.6526 14.7696 74.5572 14.5709 74.5572 14.3484C74.5572 14.1206 74.7056 13.7948 75.0022 13.371L76.9649 10.5581L75.2247 8.21399C74.9228 7.82727 74.7718 7.49089 74.7718 7.20483C74.7718 6.98234 74.8618 6.78898 75.042 6.62476C75.2221 6.46054 75.4578 6.37843 75.7492 6.37843C76.0034 6.37843 76.2127 6.44995 76.3769 6.59298C76.5464 6.73601 76.7424 6.96115 76.9649 7.2684L78.3714 9.19136L79.7381 7.2684C79.9659 6.95055 80.1619 6.72276 80.3261 6.58503C80.4956 6.4473 80.7049 6.37843 80.9539 6.37843C81.2399 6.37843 81.4757 6.46054 81.6611 6.62476C81.8518 6.78368 81.9471 6.97704 81.9471 7.20483C81.9471 7.36905 81.9074 7.52797 81.8279 7.6816C81.7538 7.82992 81.6372 8.00739 81.4783 8.21399L79.7381 10.5581L81.7008 13.371C82.0081 13.8107 82.1617 14.1418 82.1617 14.3643C82.1617 14.5921 82.0663 14.7881 81.8756 14.9523C81.6849 15.1165 81.4492 15.1987 81.1684 15.1987C80.9194 15.1987 80.7075 15.1271 80.5327 14.9841C80.3632 14.8411 80.1672 14.6133 79.9447 14.3007ZM89.2099 13.9749C88.6855 14.3829 88.1769 14.6901 87.6842 14.8967C87.1969 15.098 86.6486 15.1987 86.0394 15.1987C85.4832 15.1987 84.9932 15.0901 84.5694 14.8729C84.1509 14.6504 83.8277 14.3511 83.5999 13.9749C83.3721 13.5988 83.2582 13.1909 83.2582 12.7512C83.2582 12.1579 83.4463 11.652 83.8224 11.2335C84.1985 10.815 84.715 10.5343 85.3719 10.3912C85.5097 10.3595 85.8513 10.2879 86.397 10.1767C86.9426 10.0655 87.4088 9.96478 87.7955 9.87473C88.1875 9.77937 88.6113 9.66548 89.0669 9.53304C89.0404 8.96092 88.9238 8.54243 88.7172 8.27755C88.5159 8.00739 88.0948 7.8723 87.4538 7.8723C86.9029 7.8723 86.487 7.94911 86.2063 8.10274C85.9308 8.25637 85.6924 8.4868 85.4911 8.79405C85.2951 9.1013 85.1547 9.30525 85.07 9.40591C84.9905 9.50126 84.8157 9.54894 84.5455 9.54894C84.3018 9.54894 84.0899 9.47212 83.9098 9.3185C83.735 9.15958 83.6476 8.95827 83.6476 8.71459C83.6476 8.33318 83.7827 7.96236 84.0529 7.60213C84.323 7.24191 84.7442 6.94525 85.3163 6.71217C85.8884 6.47908 86.6009 6.36254 87.4538 6.36254C88.4073 6.36254 89.1569 6.47643 89.7026 6.70422C90.2482 6.92671 90.6323 7.28164 90.8547 7.769C91.0825 8.25637 91.1964 8.90265 91.1964 9.70786C91.1964 10.2164 91.1938 10.6482 91.1885 11.0031C91.1885 11.358 91.1858 11.7527 91.1805 12.1871C91.1805 12.595 91.2468 13.0214 91.3792 13.4664C91.5169 13.9061 91.5858 14.1895 91.5858 14.3166C91.5858 14.5391 91.4798 14.7431 91.2679 14.9285C91.0613 15.1086 90.8256 15.1987 90.5607 15.1987C90.3383 15.1987 90.1184 15.0954 89.9012 14.8888C89.684 14.6769 89.4536 14.3723 89.2099 13.9749ZM89.0669 10.8362C88.749 10.9528 88.2855 11.0773 87.6763 11.2097C87.0724 11.3368 86.6539 11.4322 86.4208 11.4958C86.1877 11.554 85.9652 11.6732 85.7533 11.8533C85.5414 12.0281 85.4355 12.2745 85.4355 12.5923C85.4355 12.9208 85.56 13.2015 85.809 13.4346C86.0579 13.6624 86.3837 13.7763 86.7863 13.7763C87.2154 13.7763 87.6101 13.6836 87.9703 13.4982C88.3358 13.3075 88.6033 13.0638 88.7729 12.7671C88.9689 12.4387 89.0669 11.8984 89.0669 11.1461V10.8362Z" fill="black"/>
<path d="M66.1296 21.6458H62.2993V34.2363C62.2993 34.9614 62.1377 35.5013 61.8146 35.8559C61.4915 36.2027 61.0737 36.3761 60.5614 36.3761C60.0413 36.3761 59.6157 36.1988 59.2847 35.8441C58.9615 35.4895 58.8 34.9535 58.8 34.2363V21.6458H54.9696C54.3706 21.6458 53.9253 21.5158 53.6337 21.2557C53.3421 20.9877 53.1963 20.637 53.1963 20.2035C53.1963 19.7543 53.346 19.3996 53.6455 19.1395C53.9529 18.8794 54.3943 18.7494 54.9696 18.7494H66.1296C66.7365 18.7494 67.1857 18.8834 67.4774 19.1514C67.7769 19.4193 67.9266 19.77 67.9266 20.2035C67.9266 20.637 67.7769 20.9877 67.4774 21.2557C67.1779 21.5158 66.7286 21.6458 66.1296 21.6458ZM72.0643 31.7182V34.4137C72.0643 35.0678 71.9106 35.5604 71.6033 35.8914C71.2959 36.2145 70.9058 36.3761 70.4329 36.3761C69.9679 36.3761 69.5856 36.2106 69.2861 35.8796C68.9866 35.5486 68.8369 35.0599 68.8369 34.4137V25.4289C68.8369 23.9787 69.361 23.2536 70.4092 23.2536C70.9452 23.2536 71.3314 23.4231 71.5678 23.762C71.8042 24.1009 71.9343 24.6013 71.9579 25.2634C72.3441 24.6013 72.7382 24.1009 73.1401 23.762C73.55 23.4231 74.0938 23.2536 74.7716 23.2536C75.4494 23.2536 76.1075 23.4231 76.7459 23.762C77.3843 24.1009 77.7035 24.5501 77.7035 25.1097C77.7035 25.5038 77.5655 25.8308 77.2897 26.0909C77.0217 26.3431 76.7301 26.4692 76.4148 26.4692C76.2966 26.4692 76.009 26.3983 75.5518 26.2564C75.1026 26.1067 74.7046 26.0318 74.3578 26.0318C73.8849 26.0318 73.4987 26.1579 73.1992 26.4101C72.8998 26.6544 72.6673 27.0209 72.5017 27.5096C72.3362 27.9982 72.222 28.5814 72.1589 29.2592C72.0959 29.9291 72.0643 30.7488 72.0643 31.7182ZM87.0192 34.5555C86.239 35.1624 85.4824 35.6195 84.7494 35.9269C84.0243 36.2264 83.2086 36.3761 82.3022 36.3761C81.4747 36.3761 80.7457 36.2145 80.1152 35.8914C79.4925 35.5604 79.0118 35.1151 78.6729 34.5555C78.334 33.9959 78.1645 33.3891 78.1645 32.7349C78.1645 31.8522 78.4443 31.0995 79.0039 30.4769C79.5635 29.8543 80.3319 29.4366 81.3092 29.2238C81.5141 29.1765 82.0225 29.0701 82.8342 28.9046C83.646 28.7391 84.3396 28.5893 84.9149 28.4553C85.4981 28.3135 86.1287 28.144 86.8065 27.947C86.767 27.0958 86.5937 26.4732 86.2863 26.0791C85.9868 25.6771 85.3602 25.4762 84.4066 25.4762C83.5869 25.4762 82.9682 25.5904 82.5505 25.819C82.1407 26.0476 81.786 26.3904 81.4865 26.8475C81.1949 27.3046 80.9861 27.6081 80.8599 27.7578C80.7417 27.8997 80.4816 27.9706 80.0797 27.9706C79.7171 27.9706 79.4019 27.8563 79.1339 27.6278C78.8738 27.3913 78.7438 27.0918 78.7438 26.7293C78.7438 26.1618 78.9448 25.6101 79.3467 25.0742C79.7487 24.5383 80.3752 24.0969 81.2264 23.7501C82.0776 23.4034 83.1377 23.23 84.4066 23.23C85.8252 23.23 86.9404 23.3994 87.7522 23.7383C88.564 24.0693 89.1354 24.5974 89.4664 25.3225C89.8053 26.0476 89.9748 27.0091 89.9748 28.2071C89.9748 28.9637 89.9708 29.606 89.9629 30.1341C89.9629 30.6621 89.959 31.2493 89.9511 31.8956C89.9511 32.5024 90.0496 33.1369 90.2467 33.7989C90.4516 34.4531 90.554 34.8747 90.554 35.0639C90.554 35.3949 90.3964 35.6983 90.0812 35.9742C89.7738 36.2421 89.4231 36.3761 89.029 36.3761C88.698 36.3761 88.3709 36.2224 88.0478 35.9151C87.7246 35.5998 87.3818 35.1466 87.0192 34.5555ZM86.8065 29.8858C86.3336 30.0592 85.6439 30.2444 84.7376 30.4414C83.8391 30.6306 83.2165 30.7725 82.8697 30.867C82.5229 30.9537 82.1919 31.1311 81.8766 31.399C81.5614 31.6591 81.4038 32.0256 81.4038 32.4985C81.4038 32.9871 81.589 33.4048 81.9594 33.7516C82.3298 34.0905 82.8145 34.26 83.4135 34.26C84.0519 34.26 84.6391 34.122 85.175 33.8462C85.7188 33.5625 86.1168 33.1999 86.369 32.7586C86.6606 32.2699 86.8065 31.466 86.8065 30.3469V29.8858ZM94.9282 25.2634L97.5409 32.5931L100.354 24.9442C100.575 24.3294 100.792 23.8959 101.005 23.6437C101.217 23.3837 101.541 23.2536 101.974 23.2536C102.384 23.2536 102.731 23.3915 103.014 23.6674C103.306 23.9432 103.452 24.2624 103.452 24.625C103.452 24.7668 103.424 24.9324 103.369 25.1215C103.322 25.3107 103.263 25.488 103.192 25.6535C103.129 25.819 103.054 26.0082 102.967 26.221L99.8698 33.9053C99.7831 34.126 99.6689 34.4058 99.527 34.7447C99.393 35.0836 99.2393 35.3752 99.0659 35.6195C98.9004 35.8559 98.6916 36.0412 98.4394 36.1751C98.1951 36.3091 97.8956 36.3761 97.5409 36.3761C97.0838 36.3761 96.7173 36.2737 96.4414 36.0687C96.1735 35.8559 95.9725 35.6274 95.8385 35.3831C95.7124 35.1309 95.4957 34.6383 95.1883 33.9053L92.1146 26.3037C92.0436 26.1146 91.9688 25.9254 91.8899 25.7363C91.819 25.5471 91.756 25.354 91.7008 25.157C91.6535 24.9599 91.6299 24.7905 91.6299 24.6486C91.6299 24.4279 91.6969 24.2112 91.8308 23.9984C91.9648 23.7777 92.15 23.6004 92.3865 23.4664C92.6229 23.3245 92.8791 23.2536 93.1549 23.2536C93.6908 23.2536 94.0573 23.4073 94.2544 23.7147C94.4593 24.0221 94.6839 24.5383 94.9282 25.2634ZM114.446 30.6069H108.133C108.141 31.3399 108.287 31.9862 108.571 32.5458C108.862 33.1053 109.245 33.527 109.718 33.8107C110.198 34.0945 110.726 34.2363 111.302 34.2363C111.688 34.2363 112.039 34.193 112.354 34.1063C112.677 34.0117 112.988 33.8698 113.288 33.6807C113.587 33.4837 113.863 33.2748 114.115 33.0541C114.368 32.8334 114.695 32.5339 115.097 32.1556C115.262 32.0138 115.499 31.9428 115.806 31.9428C116.137 31.9428 116.405 32.0335 116.61 32.2147C116.815 32.396 116.917 32.6522 116.917 32.9832C116.917 33.2748 116.803 33.6176 116.574 34.0117C116.346 34.3979 115.999 34.7723 115.534 35.1348C115.077 35.4895 114.498 35.785 113.796 36.0215C113.103 36.2579 112.303 36.3761 111.396 36.3761C109.323 36.3761 107.712 35.785 106.561 34.6028C105.41 33.4206 104.835 31.8167 104.835 29.7912C104.835 28.8376 104.977 27.9549 105.261 27.1431C105.544 26.3234 105.958 25.622 106.502 25.0387C107.046 24.4555 107.716 24.0102 108.512 23.7029C109.308 23.3876 110.19 23.23 111.16 23.23C112.421 23.23 113.501 23.4979 114.399 24.0339C115.305 24.5619 115.983 25.2476 116.432 26.0909C116.882 26.9342 117.106 27.7933 117.106 28.6681C117.106 29.4799 116.874 30.008 116.409 30.2523C115.944 30.4887 115.29 30.6069 114.446 30.6069ZM108.133 28.7745H113.985C113.906 27.6711 113.607 26.8475 113.087 26.3037C112.575 25.752 111.897 25.4762 111.053 25.4762C110.25 25.4762 109.587 25.756 109.067 26.3155C108.555 26.8672 108.244 27.6869 108.133 28.7745ZM119.837 34.4137V20.4163C119.837 19.77 119.979 19.2814 120.263 18.9504C120.554 18.6194 120.945 18.4539 121.433 18.4539C121.922 18.4539 122.316 18.6194 122.615 18.9504C122.915 19.2735 123.065 19.7622 123.065 20.4163V34.4137C123.065 35.0678 122.911 35.5604 122.604 35.8914C122.304 36.2145 121.914 36.3761 121.433 36.3761C120.96 36.3761 120.574 36.2067 120.275 35.8678C119.983 35.5289 119.837 35.0442 119.837 34.4137Z" fill="#FBC23D"/>
<mask id="mask0_373_10606" style="mask-type:luminance" maskUnits="userSpaceOnUse" x="0" y="0" width="44" height="44">
<path d="M43.4564 0H0V43.4564H43.4564V0Z" fill="white"/>
</mask>
<g mask="url(#mask0_373_10606)">
<path d="M43.4564 7C43.4564 3.134 40.3224 0 36.4564 0H7C3.134 0 0 3.13401 0 7V36.4564C0 40.3224 3.13401 43.4564 7 43.4564H36.4564C40.3224 43.4564 43.4564 40.3224 43.4564 36.4564V7Z" fill="#138E68"/>
<path d="M20.7016 34.7323C21.5668 34.7323 22.2628 35.4331 22.2628 36.2935C22.2628 37.1538 21.5619 37.8401 20.7016 37.8401H13.0553C12.1901 37.8401 11.4941 37.1393 11.4941 36.2935V20.9476H6.64627C5.79561 20.9476 5.09961 20.2468 5.09961 19.401C5.09961 18.8403 5.39928 18.3473 5.83911 18.0718L21.7987 5.9305C22.3449 5.51967 23.0844 5.51967 23.6209 5.9015L40.4022 17.864C41.1031 18.357 41.2674 19.3285 40.7599 20.0293C40.4699 20.4546 39.9914 20.6721 39.5129 20.6721H34.4862V35.496C34.4862 36.3466 33.7854 37.0426 32.9396 37.0426H32.8429C23.4566 37.2746 9.8121 27.9463 19.1984 22.8761C19.2516 22.8471 19.3096 22.8085 19.3483 22.794C19.2129 22.6006 19.0341 22.4218 18.8118 22.2333C18.5798 22.0158 17.9901 21.6581 17.8644 21.4503C18.0819 21.1216 18.4831 21.3005 19.0679 21.4503C20.1506 21.7258 20.3536 21.8321 20.4938 21.779C20.7113 21.6968 23.0264 20.1356 23.1907 19.9278L19.9041 16.994C19.6431 16.762 20.0829 16.762 20.2763 16.7765C21.3589 16.9022 23.4952 18.241 24.4812 18.7098C24.8921 18.9031 25.0177 18.7775 25.3029 18.5745C25.7959 18.2313 26.1536 17.9703 26.7142 17.6996C28.9327 16.6315 29.7012 17.5498 28.7442 18.7291C28.2077 19.401 26.4436 20.4256 25.8926 20.5368C25.6606 21.6195 26.0037 25.3846 25.2062 25.9356C25.0274 25.839 25.1096 25.9066 25.0274 25.7181C24.9162 25.4571 24.3556 21.9626 24.1091 21.5808C23.5484 21.8805 21.4218 22.7746 21.2043 23.0066C21.0689 23.142 21.0399 23.3643 20.9143 23.9105C20.7789 24.4566 20.6678 25.2396 20.2424 25.4426C19.9283 25.143 20.1893 24.4035 19.7494 23.4561C19.7059 23.4851 19.6528 23.5093 19.5996 23.5383C14.3119 26.3996 25.6944 33.7173 31.3832 33.9348V19.1255C31.3832 18.2748 32.0696 17.5788 32.9299 17.5788H34.6699L22.7509 9.08666L11.2283 17.8398H13.0504C13.9011 17.8398 14.5971 18.5406 14.5971 19.401V34.7323H20.6919H20.7016Z" fill="white"/>
</g>
</svg>
