<svg width="125" height="44" viewBox="0 0 125 44" fill="none" xmlns="http://www.w3.org/2000/svg">
<path d="M59.2292 15H55.6693C55.1555 15 54.7873 14.8861 54.5648 14.6583C54.3476 14.4252 54.239 14.0571 54.239 13.5538V4.79715C54.239 4.2833 54.3503 3.91513 54.5728 3.69264C54.8006 3.46485 55.1661 3.35095 55.6693 3.35095H59.4437C60 3.35095 60.482 3.38539 60.8899 3.45425C61.2978 3.52312 61.6634 3.65556 61.9865 3.85156C62.262 4.01578 62.5057 4.22503 62.7176 4.47931C62.9294 4.72828 63.091 5.0064 63.2023 5.31365C63.3135 5.6156 63.3691 5.9361 63.3691 6.27513C63.3691 7.44056 62.7864 8.29345 61.621 8.83378C63.1519 9.32115 63.9174 10.2694 63.9174 11.6785C63.9174 12.3301 63.7505 12.9181 63.4168 13.4426C63.0831 13.9617 62.6328 14.3458 62.066 14.5947C61.711 14.7431 61.3031 14.849 60.8423 14.9126C60.3814 14.9709 59.8437 15 59.2292 15ZM59.0544 9.82705H56.599V13.228H59.1338C60.7284 13.228 61.5256 12.6532 61.5256 11.5037C61.5256 10.9157 61.319 10.4892 60.9058 10.2244C60.4926 9.95949 59.8755 9.82705 59.0544 9.82705ZM56.599 5.12294V8.13452H58.7604C59.3484 8.13452 59.8013 8.0789 60.1192 7.96766C60.4423 7.85641 60.6886 7.64451 60.8582 7.33197C60.9906 7.10947 61.0568 6.8605 61.0568 6.58503C61.0568 5.99702 60.8476 5.60766 60.4291 5.41695C60.0106 5.22094 59.3722 5.12294 58.514 5.12294H56.599ZM73.9375 10.7886C73.9375 11.4348 73.8368 12.0308 73.6355 12.5764C73.4342 13.1221 73.1429 13.5909 72.7615 13.9829C72.38 14.3749 71.9245 14.6769 71.3947 14.8888C70.865 15.0954 70.269 15.1987 69.6068 15.1987C68.95 15.1987 68.3593 15.0927 67.8349 14.8808C67.3104 14.6689 66.8548 14.367 66.4681 13.9749C66.0867 13.5776 65.7954 13.1115 65.5941 12.5764C65.398 12.0361 65.3 11.4401 65.3 10.7886C65.3 10.1317 65.4007 9.53039 65.602 8.98476C65.8033 8.43913 66.092 7.97295 66.4681 7.58624C66.8442 7.19953 67.2998 6.90287 67.8349 6.69628C68.3699 6.48438 68.9606 6.37843 69.6068 6.37843C70.2637 6.37843 70.8597 6.48438 71.3947 6.69628C71.9298 6.90817 72.388 7.21012 72.7694 7.60213C73.1508 7.99414 73.4395 8.46032 73.6355 9.00065C73.8368 9.54099 73.9375 10.137 73.9375 10.7886ZM71.7602 10.7886C71.7602 9.90386 71.5642 9.2152 71.1722 8.72254C70.7855 8.22988 70.2637 7.98355 69.6068 7.98355C69.1831 7.98355 68.8096 8.09479 68.4864 8.31729C68.1633 8.53448 67.9143 8.85762 67.7395 9.28671C67.5647 9.7158 67.4773 10.2164 67.4773 10.7886C67.4773 11.3554 67.562 11.8507 67.7316 12.2745C67.9064 12.6983 68.1527 13.0241 68.4705 13.2519C68.7937 13.4743 69.1725 13.5856 69.6068 13.5856C70.2637 13.5856 70.7855 13.3393 71.1722 12.8466C71.5642 12.3486 71.7602 11.6626 71.7602 10.7886ZM79.9448 14.3007L78.3714 11.9884L76.7584 14.3007C76.5253 14.6239 76.3266 14.8543 76.1624 14.9921C76.0035 15.1298 75.7995 15.1987 75.5506 15.1987C75.2751 15.1987 75.0393 15.1139 74.8433 14.9444C74.6526 14.7696 74.5573 14.5709 74.5573 14.3484C74.5573 14.1206 74.7056 13.7948 75.0023 13.371L76.965 10.5581L75.2248 8.21399C74.9228 7.82727 74.7718 7.49089 74.7718 7.20483C74.7718 6.98234 74.8619 6.78898 75.042 6.62476C75.2221 6.46054 75.4578 6.37843 75.7492 6.37843C76.0035 6.37843 76.2127 6.44995 76.3769 6.59298C76.5465 6.73601 76.7425 6.96115 76.965 7.2684L78.3714 9.19136L79.7382 7.2684C79.9659 6.95055 80.162 6.72276 80.3262 6.58503C80.4957 6.4473 80.7049 6.37843 80.9539 6.37843C81.24 6.37843 81.4757 6.46054 81.6611 6.62476C81.8518 6.78368 81.9472 6.97704 81.9472 7.20483C81.9472 7.36905 81.9075 7.52797 81.828 7.6816C81.7538 7.82992 81.6373 8.00739 81.4784 8.21399L79.7382 10.5581L81.7009 13.371C82.0081 13.8107 82.1617 14.1418 82.1617 14.3643C82.1617 14.5921 82.0664 14.7881 81.8757 14.9523C81.685 15.1165 81.4492 15.1987 81.1685 15.1987C80.9195 15.1987 80.7076 15.1271 80.5328 14.9841C80.3633 14.8411 80.1673 14.6133 79.9448 14.3007ZM89.2099 13.9749C88.6855 14.3829 88.1769 14.6901 87.6843 14.8967C87.1969 15.098 86.6486 15.1987 86.0394 15.1987C85.4832 15.1987 84.9932 15.0901 84.5694 14.8729C84.1509 14.6504 83.8278 14.3511 83.6 13.9749C83.3722 13.5988 83.2583 13.1909 83.2583 12.7512C83.2583 12.1579 83.4464 11.652 83.8225 11.2335C84.1986 10.815 84.7151 10.5343 85.372 10.3912C85.5097 10.3595 85.8514 10.2879 86.397 10.1767C86.9427 10.0655 87.4088 9.96478 87.7955 9.87473C88.1875 9.77937 88.6113 9.66548 89.0669 9.53304C89.0404 8.96092 88.9239 8.54243 88.7173 8.27755C88.516 8.00739 88.0948 7.8723 87.4539 7.8723C86.9029 7.8723 86.4871 7.94911 86.2063 8.10274C85.9308 8.25637 85.6925 8.4868 85.4912 8.79405C85.2952 9.1013 85.1548 9.30525 85.07 9.40591C84.9906 9.50126 84.8157 9.54894 84.5456 9.54894C84.3019 9.54894 84.09 9.47212 83.9099 9.3185C83.7351 9.15958 83.6477 8.95827 83.6477 8.71459C83.6477 8.33318 83.7827 7.96236 84.0529 7.60213C84.3231 7.24191 84.7442 6.94525 85.3163 6.71217C85.8885 6.47908 86.601 6.36254 87.4539 6.36254C88.4074 6.36254 89.157 6.47643 89.7026 6.70422C90.2482 6.92671 90.6323 7.28164 90.8548 7.769C91.0826 8.25637 91.1965 8.90265 91.1965 9.70786C91.1965 10.2164 91.1938 10.6482 91.1885 11.0031C91.1885 11.358 91.1859 11.7527 91.1806 12.1871C91.1806 12.595 91.2468 13.0214 91.3792 13.4664C91.517 13.9061 91.5858 14.1895 91.5858 14.3166C91.5858 14.5391 91.4799 14.7431 91.268 14.9285C91.0614 15.1086 90.8257 15.1987 90.5608 15.1987C90.3383 15.1987 90.1185 15.0954 89.9013 14.8888C89.6841 14.6769 89.4536 14.3723 89.2099 13.9749ZM89.0669 10.8362C88.7491 10.9528 88.2855 11.0773 87.6763 11.2097C87.0724 11.3368 86.6539 11.4322 86.4209 11.4958C86.1878 11.554 85.9653 11.6732 85.7534 11.8533C85.5415 12.0281 85.4355 12.2745 85.4355 12.5923C85.4355 12.9208 85.56 13.2015 85.809 13.4346C86.058 13.6624 86.3838 13.7763 86.7864 13.7763C87.2155 13.7763 87.6101 13.6836 87.9704 13.4982C88.3359 13.3075 88.6034 13.0638 88.7729 12.7671C88.9689 12.4387 89.0669 11.8984 89.0669 11.1461V10.8362Z" fill="white"/>
<path d="M66.1296 21.6459H62.2993V34.2364C62.2993 34.9615 62.1377 35.5014 61.8146 35.856C61.4914 36.2028 61.0737 36.3762 60.5614 36.3762C60.0413 36.3762 59.6157 36.1989 59.2847 35.8442C58.9615 35.4896 58.8 34.9536 58.8 34.2364V21.6459H54.9696C54.3706 21.6459 53.9253 21.5159 53.6337 21.2558C53.3421 20.9878 53.1963 20.6371 53.1963 20.2036C53.1963 19.7544 53.346 19.3997 53.6455 19.1396C53.9529 18.8795 54.3943 18.7495 54.9696 18.7495H66.1296C66.7365 18.7495 67.1857 18.8835 67.4774 19.1514C67.7768 19.4194 67.9266 19.7701 67.9266 20.2036C67.9266 20.6371 67.7768 20.9878 67.4774 21.2558C67.1779 21.5159 66.7286 21.6459 66.1296 21.6459ZM72.0643 31.7183V34.4137C72.0643 35.0679 71.9106 35.5605 71.6033 35.8915C71.2959 36.2146 70.9058 36.3762 70.4329 36.3762C69.9679 36.3762 69.5856 36.2107 69.2861 35.8797C68.9866 35.5487 68.8369 35.06 68.8369 34.4137V25.429C68.8369 23.9788 69.361 23.2537 70.4092 23.2537C70.9452 23.2537 71.3313 23.4232 71.5678 23.7621C71.8042 24.101 71.9343 24.6014 71.9579 25.2635C72.3441 24.6014 72.7382 24.101 73.1401 23.7621C73.55 23.4232 74.0938 23.2537 74.7716 23.2537C75.4494 23.2537 76.1075 23.4232 76.7459 23.7621C77.3843 24.101 77.7034 24.5502 77.7034 25.1098C77.7034 25.5038 77.5655 25.8309 77.2897 26.091C77.0217 26.3432 76.7301 26.4693 76.4148 26.4693C76.2966 26.4693 76.0089 26.3984 75.5518 26.2565C75.1026 26.1068 74.7046 26.0319 74.3578 26.0319C73.8849 26.0319 73.4987 26.158 73.1992 26.4102C72.8997 26.6545 72.6672 27.021 72.5017 27.5097C72.3362 27.9983 72.2219 28.5815 72.1589 29.2593C72.0958 29.9292 72.0643 30.7489 72.0643 31.7183ZM87.0192 34.5556C86.239 35.1625 85.4824 35.6196 84.7494 35.927C84.0243 36.2265 83.2086 36.3762 82.3022 36.3762C81.4747 36.3762 80.7457 36.2146 80.1151 35.8915C79.4925 35.5605 79.0118 35.1152 78.6729 34.5556C78.334 33.996 78.1645 33.3892 78.1645 32.735C78.1645 31.8523 78.4443 31.0996 79.0039 30.477C79.5635 29.8544 80.3319 29.4367 81.3092 29.2239C81.5141 29.1766 82.0224 29.0702 82.8342 28.9047C83.646 28.7392 84.3396 28.5894 84.9149 28.4554C85.4981 28.3136 86.1286 28.1441 86.8064 27.9471C86.767 27.0959 86.5936 26.4733 86.2863 26.0792C85.9868 25.6772 85.3602 25.4763 84.4066 25.4763C83.5869 25.4763 82.9682 25.5905 82.5505 25.8191C82.1407 26.0477 81.786 26.3905 81.4865 26.8476C81.1949 27.3047 80.986 27.6082 80.8599 27.7579C80.7417 27.8998 80.4816 27.9707 80.0797 27.9707C79.7171 27.9707 79.4019 27.8564 79.1339 27.6279C78.8738 27.3914 78.7438 27.0919 78.7438 26.7294C78.7438 26.1619 78.9448 25.6102 79.3467 25.0743C79.7487 24.5384 80.3752 24.097 81.2264 23.7502C82.0776 23.4035 83.1377 23.2301 84.4066 23.2301C85.8252 23.2301 86.9404 23.3995 87.7522 23.7384C88.564 24.0694 89.1354 24.5975 89.4664 25.3226C89.8053 26.0477 89.9748 27.0092 89.9748 28.2072C89.9748 28.9638 89.9708 29.6061 89.9629 30.1342C89.9629 30.6622 89.959 31.2494 89.9511 31.8956C89.9511 32.5025 90.0496 33.137 90.2467 33.799C90.4516 34.4532 90.554 34.8748 90.554 35.064C90.554 35.395 90.3964 35.6984 90.0812 35.9743C89.7738 36.2422 89.4231 36.3762 89.029 36.3762C88.698 36.3762 88.3709 36.2225 88.0478 35.9151C87.7246 35.5999 87.3818 35.1467 87.0192 34.5556ZM86.8064 29.8859C86.3336 30.0593 85.6439 30.2445 84.7376 30.4415C83.8391 30.6307 83.2165 30.7725 82.8697 30.8671C82.5229 30.9538 82.1919 31.1311 81.8766 31.3991C81.5614 31.6592 81.4038 32.0257 81.4038 32.4986C81.4038 32.9872 81.589 33.4049 81.9594 33.7517C82.3298 34.0906 82.8145 34.2601 83.4135 34.2601C84.0519 34.2601 84.6391 34.1221 85.175 33.8463C85.7188 33.5626 86.1168 33.2 86.369 32.7587C86.6606 32.27 86.8064 31.4661 86.8064 30.347V29.8859ZM94.9282 25.2635L97.5409 32.5931L100.355 24.9443C100.575 24.3295 100.792 23.896 101.005 23.6438C101.218 23.3838 101.541 23.2537 101.974 23.2537C102.384 23.2537 102.731 23.3916 103.015 23.6675C103.306 23.9433 103.452 24.2625 103.452 24.6251C103.452 24.7669 103.424 24.9324 103.369 25.1216C103.322 25.3107 103.263 25.4881 103.192 25.6536C103.129 25.8191 103.054 26.0083 102.967 26.221L99.8698 33.9054C99.7831 34.1261 99.6689 34.4059 99.527 34.7448C99.393 35.0837 99.2393 35.3753 99.0659 35.6196C98.9004 35.856 98.6916 36.0413 98.4394 36.1752C98.195 36.3092 97.8956 36.3762 97.5409 36.3762C97.0838 36.3762 96.7173 36.2738 96.4414 36.0688C96.1735 35.856 95.9725 35.6275 95.8385 35.3832C95.7124 35.131 95.4957 34.6384 95.1883 33.9054L92.1146 26.3038C92.0436 26.1146 91.9688 25.9255 91.8899 25.7363C91.819 25.5472 91.756 25.3541 91.7008 25.1571C91.6535 24.96 91.6299 24.7906 91.6299 24.6487C91.6299 24.428 91.6968 24.2113 91.8308 23.9985C91.9648 23.7778 92.15 23.6005 92.3865 23.4665C92.6229 23.3246 92.8791 23.2537 93.1549 23.2537C93.6908 23.2537 94.0573 23.4074 94.2544 23.7148C94.4593 24.0221 94.6839 24.5384 94.9282 25.2635ZM114.446 30.607H108.133C108.141 31.34 108.287 31.9863 108.571 32.5459C108.862 33.1054 109.245 33.5271 109.718 33.8108C110.198 34.0945 110.726 34.2364 111.302 34.2364C111.688 34.2364 112.039 34.1931 112.354 34.1064C112.677 34.0118 112.988 33.8699 113.288 33.6808C113.587 33.4837 113.863 33.2749 114.115 33.0542C114.368 32.8335 114.695 32.534 115.097 32.1557C115.262 32.0139 115.499 31.9429 115.806 31.9429C116.137 31.9429 116.405 32.0336 116.61 32.2148C116.815 32.3961 116.917 32.6523 116.917 32.9833C116.917 33.2749 116.803 33.6177 116.574 34.0118C116.346 34.398 115.999 34.7723 115.534 35.1349C115.077 35.4896 114.498 35.7851 113.796 36.0215C113.103 36.258 112.303 36.3762 111.396 36.3762C109.324 36.3762 107.712 35.7851 106.561 34.6029C105.41 33.4207 104.835 31.8168 104.835 29.7913C104.835 28.8377 104.977 27.955 105.261 27.1432C105.544 26.3235 105.958 25.6221 106.502 25.0388C107.046 24.4556 107.716 24.0103 108.512 23.7029C109.308 23.3877 110.191 23.2301 111.16 23.2301C112.421 23.2301 113.501 23.498 114.399 24.034C115.306 24.562 115.983 25.2477 116.433 26.091C116.882 26.9343 117.106 27.7934 117.106 28.6682C117.106 29.48 116.874 30.0081 116.409 30.2524C115.944 30.4888 115.29 30.607 114.446 30.607ZM108.133 28.7746H113.985C113.907 27.6712 113.607 26.8476 113.087 26.3038C112.575 25.7521 111.897 25.4763 111.054 25.4763C110.25 25.4763 109.588 25.756 109.067 26.3156C108.555 26.8673 108.244 27.687 108.133 28.7746ZM119.837 34.4137V20.4164C119.837 19.7701 119.979 19.2815 120.263 18.9505C120.555 18.6195 120.945 18.4539 121.433 18.4539C121.922 18.4539 122.316 18.6195 122.616 18.9505C122.915 19.2736 123.065 19.7623 123.065 20.4164V34.4137C123.065 35.0679 122.911 35.5605 122.604 35.8915C122.304 36.2146 121.914 36.3762 121.433 36.3762C120.96 36.3762 120.574 36.2068 120.275 35.8679C119.983 35.529 119.837 35.0443 119.837 34.4137Z" fill="#FBC23D"/>
<mask id="mask0_373_10615" style="mask-type:luminance" maskUnits="userSpaceOnUse" x="0" y="0" width="44" height="44">
<path d="M43.4564 0H0V43.4564H43.4564V0Z" fill="white"/>
</mask>
<g mask="url(#mask0_373_10615)">
<path d="M43.4564 7C43.4564 3.134 40.3224 0 36.4564 0H7C3.134 0 0 3.13401 0 7V36.4564C0 40.3224 3.13401 43.4564 7 43.4564H36.4564C40.3224 43.4564 43.4564 40.3224 43.4564 36.4564V7Z" fill="#138E68"/>
<path d="M20.7011 34.7323C21.5662 34.7323 22.2622 35.4331 22.2622 36.2935C22.2622 37.1538 21.5614 37.8401 20.7011 37.8401H13.0547C12.1896 37.8401 11.4936 37.1393 11.4936 36.2935V20.9476H6.64579C5.79512 20.9476 5.09912 20.2468 5.09912 19.401C5.09912 18.8403 5.39879 18.3473 5.83862 18.0718L21.7982 5.9305C22.3444 5.51967 23.0839 5.51967 23.6204 5.9015L40.4017 17.864C41.1025 18.357 41.2669 19.3285 40.7594 20.0293C40.4694 20.4546 39.9909 20.6721 39.5124 20.6721H34.4857V35.496C34.4857 36.3466 33.7849 37.0426 32.939 37.0426H32.8424C23.4561 37.2746 9.81162 27.9463 19.1979 22.8761C19.2511 22.8471 19.3091 22.8085 19.3477 22.794C19.2124 22.6006 19.0336 22.4218 18.8112 22.2333C18.5792 22.0158 17.9896 21.6581 17.8639 21.4503C18.0814 21.1216 18.4826 21.3005 19.0674 21.4503C20.1501 21.7258 20.3531 21.8321 20.4932 21.779C20.7107 21.6968 23.0259 20.1356 23.1902 19.9278L19.9036 16.994C19.6426 16.762 20.0824 16.762 20.2757 16.7765C21.3584 16.9022 23.4947 18.241 24.4807 18.7098C24.8916 18.9031 25.0172 18.7775 25.3024 18.5745C25.7954 18.2313 26.1531 17.9703 26.7137 17.6996C28.9322 16.6315 29.7007 17.5498 28.7437 18.7291C28.2072 19.401 26.4431 20.4256 25.8921 20.5368C25.6601 21.6195 26.0032 25.3846 25.2057 25.9356C25.0269 25.839 25.1091 25.9066 25.0269 25.7181C24.9157 25.4571 24.3551 21.9626 24.1086 21.5808C23.5479 21.8805 21.4212 22.7746 21.2037 23.0066C21.0684 23.142 21.0394 23.3643 20.9137 23.9105C20.7784 24.4566 20.6672 25.2396 20.2419 25.4426C19.9277 25.143 20.1887 24.4035 19.7489 23.4561C19.7054 23.4851 19.6522 23.5093 19.5991 23.5383C14.3114 26.3996 25.6939 33.7173 31.3827 33.9348V19.1255C31.3827 18.2748 32.069 17.5788 32.9294 17.5788H34.6694L22.7504 9.08666L11.2277 17.8398H13.0499C13.9006 17.8398 14.5966 18.5406 14.5966 19.401V34.7323H20.6914H20.7011Z" fill="white"/>
</g>
</svg>
