<svg width="50" height="50" viewBox="0 0 50 50" fill="none" xmlns="http://www.w3.org/2000/svg">
<g clip-path="url(#clip0_875_23376)">
<path d="M40 0H10C4.47715 0 0 4.47715 0 10V40C0 45.5228 4.47715 50 10 50H40C45.5228 50 50 45.5228 50 40V10C50 4.47715 45.5228 0 40 0Z" fill="white"/>
<path fill-rule="evenodd" clip-rule="evenodd" d="M18.6932 23.5815C18.7788 23.9324 18.9565 24.334 19.109 24.625C19.2802 24.9455 19.3951 25.2177 19.5272 25.5177C19.6568 25.8103 20.274 27.112 20.371 27.2235C21.1129 27.4161 24.1196 27.3006 25.102 27.3006C25.8994 27.3006 29.1857 27.1842 29.6871 27.3514C29.7515 27.6539 29.7679 30.9573 29.701 31.1712C28.5246 31.4434 23.6786 31.0434 22.2894 31.2827C22.4027 31.7262 22.5665 31.8565 22.71 32.2262L24.0414 34.9173C24.9749 35.0239 26.325 34.9477 27.3025 34.9477C28.3909 34.9477 29.4768 34.9526 30.566 34.9501C31.8305 34.9477 32.3409 34.9829 33.2629 34.346C33.9103 33.8976 34.4581 33.3263 34.7443 32.5664C35.0867 31.6647 34.9848 30.5729 34.9848 29.5015C34.9848 28.7277 35.0655 26.9014 34.8552 26.3202C34.2592 24.675 33.1684 23.725 31.1718 23.5594C31.047 22.8274 31.1416 21.3822 31.1391 20.5666C31.1302 18.5936 30.7372 18.4378 30.7625 18.0296C30.4413 17.8435 30.6859 17.9878 30.4551 17.6394C29.6928 16.4779 28.7031 16.3402 27.9156 16.0131L15 16C15.0212 16.3 15.0465 16.2672 15.1802 16.5295L16.7031 19.7871C17.9904 20.0354 23.8604 19.692 25.9817 19.8543C26.0649 20.3141 26.0673 23.1258 25.9679 23.5741L18.6932 23.5815Z" fill="url(#paint0_linear_875_23376)"/>
</g>
<defs>
<linearGradient id="paint0_linear_875_23376" x1="33.3333" y1="30.7576" x2="19.4616" y2="19.5101" gradientUnits="userSpaceOnUse">
<stop stop-color="#00A174"/>
<stop offset="1" stop-color="#00D1AB"/>
</linearGradient>
<clipPath id="clip0_875_23376">
<rect width="50" height="50" fill="white"/>
</clipPath>
</defs>
</svg>
