<svg width="34" height="34" viewBox="0 0 34 34" fill="none" xmlns="http://www.w3.org/2000/svg">
<g clip-path="url(#clip0_523_19255)">
<path fill-rule="evenodd" clip-rule="evenodd" d="M13.3467 8.30457C12.9 8.90769 12.9067 9.43128 13.3733 9.82231C13.8533 10.22 14.4267 10.1073 14.9267 9.52406C16.0867 8.17864 16.1133 6.11744 14.9867 4.71237C13.9333 3.40009 13.94 3.17475 14.8067 1.68352C14.9533 1.42504 14.9667 0.980983 14.8533 0.709248C14.7705 0.521743 14.5734 0.38473 14.3519 0.230704C14.2524 0.161513 14.1479 0.0888896 14.0467 0.00671387C13.9253 0.0900462 13.8084 0.161769 13.6982 0.229325C13.4755 0.36594 13.2805 0.485514 13.1333 0.649599C11.8467 2.04804 11.8867 4.17553 13.2 5.69989C14 6.62777 14.0467 7.37669 13.3467 8.3112V8.30457ZM7.18663 9.50414C7.05996 9.2324 7.0733 8.78835 7.21996 8.52987L7.2133 8.5365C8.0933 7.0055 8.10663 6.85307 7.0133 5.46125C5.8933 4.02305 5.95996 1.92207 7.16663 0.609792C7.6333 0.0994602 8.1733 0.00667268 8.62663 0.35794C9.1133 0.722462 9.14663 1.27919 8.7133 1.86242C7.98663 2.84995 8.01996 3.56574 8.84663 4.52012C10.1533 6.03123 10.1866 8.17198 8.90663 9.56379C8.76082 9.71727 8.57363 9.83236 8.36281 9.96198L8.36277 9.962C8.24587 10.0339 8.1217 10.1102 7.9933 10.2C7.89347 10.1194 7.78911 10.0478 7.68911 9.9792C7.46854 9.82787 7.2692 9.69111 7.18663 9.50414ZM28.0666 14.0772H30.5133L30.5 14.0839C32.9933 14.0905 34.2866 15.5884 33.9266 18.0406C33.24 22.7396 29.7866 25.8016 24.9666 25.954C24.4466 25.9673 24.1133 26.1131 23.8266 26.5439C23.6131 26.8646 23.3623 27.1638 23.0787 27.5023L23.0787 27.5023L23.0786 27.5023L23.0786 27.5024L23.0786 27.5024C22.9461 27.6605 22.8064 27.8272 22.66 28.0086H26.6733C27.9066 28.0086 28.34 28.7112 27.7266 29.7583C26.1933 32.3696 23.8933 33.8609 20.86 33.9205C16.28 34.0133 11.7 34.0199 7.11996 33.9205C4.08663 33.8542 1.78663 32.3564 0.259963 29.7451C-0.33337 28.7244 0.0932967 28.0086 1.2733 28.0086H5.2733C5.23103 27.9444 5.19618 27.8866 5.1646 27.8342L5.16459 27.8341C5.1115 27.7461 5.06764 27.6733 5.0133 27.611C2.2733 24.4694 0.84663 20.7646 0.259963 16.7018C0.10663 15.6149 0.04663 14.508 -3.66601e-05 13.4145C-0.0400367 12.4402 0.313297 12.0956 1.2933 12.0956H11.98C13.2836 12.0956 14.5872 12.097 15.8909 12.0985C19.3672 12.1025 22.8436 12.1064 26.32 12.0823C27.6866 12.0757 28.1866 12.48 28.02 13.7525C28.0153 13.8076 28.0267 13.8658 28.043 13.9493C28.0502 13.9863 28.0584 14.0283 28.0666 14.0772ZM20.8666 31.9521C22.4733 31.9388 23.8533 31.2628 25.0733 30.0367H3.00663C3.9333 31.1435 5.56663 31.9455 7.1333 31.9521C11.7133 31.9852 16.2933 31.9919 20.8666 31.9521ZM18.5066 28.0351C19.4066 28.055 20.0533 27.7767 20.6666 27.1669C24.2733 23.588 25.6066 19.101 26.0333 14.117H1.87996C1.97409 14.6358 2.05817 15.1514 2.14165 15.6633L2.14165 15.6633C2.33013 16.8192 2.51555 17.9563 2.80663 19.0679C3.67996 22.4082 5.2333 25.3907 7.93996 27.6574C8.17996 27.8562 8.55996 27.9954 8.87996 27.9954C10.1863 28.0062 11.4938 28.0049 12.8014 28.0036H12.8015H12.8016H12.8018C14.7039 28.0017 16.6064 27.9998 18.5066 28.0351ZM26.2571 22.213C26.075 22.7748 25.8928 23.3368 25.7133 23.8995H25.72C28.92 23.9392 32.2733 20.3205 32.0066 17.0464C31.9533 16.4566 31.6 16.0987 30.96 16.0788C30.5504 16.0662 30.1394 16.0686 29.7283 16.071C29.2761 16.0736 28.8238 16.0763 28.3733 16.0589C27.9266 16.0457 27.8133 16.2445 27.76 16.6355L27.7417 16.7731C27.6615 17.3783 27.5801 17.9922 27.4066 18.5774C27.0423 19.791 26.6499 21.0014 26.2571 22.213ZM19.1466 9.51078C19.0199 9.23905 19.0266 8.79499 19.1733 8.53651H19.18C20.0599 6.98563 20.0733 6.84645 18.9866 5.46127C17.8599 4.02306 17.92 1.92871 19.1266 0.609805C19.6066 0.0795903 20.18 5.81443e-05 20.6333 0.391091C21.08 0.768869 21.0933 1.29908 20.68 1.85581C19.9466 2.84996 19.9799 3.56575 20.7999 4.51351C22.1066 6.03125 22.1466 8.16536 20.8666 9.55717C20.7215 9.71889 20.5301 9.83738 20.3132 9.97155C20.2013 10.0408 20.0825 10.1143 19.9599 10.2001C19.858 10.1194 19.7521 10.0483 19.651 9.98057C19.4284 9.83127 19.2292 9.69767 19.1466 9.51078Z" fill="#2EC8A1"/>
</g>
<defs>
<clipPath id="clip0_523_19255">
<rect width="34" height="34" fill="white"/>
</clipPath>
</defs>
</svg>
