<svg width="34" height="34" viewBox="0 0 34 34" fill="none" xmlns="http://www.w3.org/2000/svg">
<path d="M33.0813 32.1066C32.9903 32.1006 32.9001 32.0998 32.8113 32.1006L32.8039 32.0025C32.7584 31.3893 32.7196 30.7649 32.6823 30.1599C32.5996 28.8264 32.5145 27.448 32.3505 26.0974C31.6726 20.5202 30.0924 15.6662 27.5204 11.2593C27.5025 11.2286 27.4578 11.1522 27.4443 11.111C27.5696 10.5592 27.5502 10.0314 27.3847 9.50878H31.7524C31.8799 9.50878 32.0067 9.50953 32.1342 9.51102C32.4273 9.51327 32.7301 9.51626 33.0313 9.50503C33.4064 9.49156 33.7256 9.30513 33.8859 9.00789C34.0463 8.7099 34.0269 8.34003 33.833 8.01733C33.7353 7.85486 33.6227 7.69838 33.4982 7.55313C31.962 5.7577 29.9791 4.86074 27.5927 4.88395C27.5942 4.88245 27.5957 4.88096 27.5972 4.87946C28.0827 4.39504 28.5667 3.90912 29.0506 3.42245C29.5682 2.90284 30.0857 2.38249 30.6047 1.86512C30.7807 1.68992 31.1469 1.32455 30.9739 0.773493C30.7919 0.194734 30.2431 0.112375 30.0082 0.0779344C28.6144 -0.12946 27.1774 0.0914113 25.8522 0.718088C24.527 1.34476 23.436 2.31885 22.6985 3.53551C22.6292 3.65006 22.5621 3.76462 22.4942 3.88217C20.9364 1.13363 18.0124 -0.358568 15.0101 0.0741908C14.7364 0.113873 14.227 0.187247 14.0294 0.733811C13.8229 1.30433 14.1942 1.67495 14.4165 1.89657C15.3531 2.83172 16.3017 3.78633 17.2197 4.7095L17.3942 4.8847C17.3733 4.8847 17.3516 4.8847 17.3308 4.8847C14.8415 4.8847 12.8146 5.86402 11.3015 7.8002C11.1673 7.97166 10.8101 8.42838 11.1002 8.98393C11.3769 9.51477 11.9056 9.51402 12.1591 9.51252C13.8072 9.50803 15.4836 9.50878 17.1048 9.50878H18.7305C18.4635 10.697 18.7104 11.6014 19.48 12.2671C20.4442 13.1004 21.5255 13.2022 22.6993 12.5718C26.1207 17.8794 27.8157 24.0968 28.0193 32.0856H23.6814V21.8124H23.7284C23.9633 21.8124 24.1818 21.8124 24.4003 21.8124C24.8746 21.8095 25.231 21.641 25.4033 21.3385C25.5763 21.0353 25.539 20.64 25.2996 20.2252C25.2594 20.1555 25.2109 20.0732 25.1579 19.9901C22.2869 15.4888 18.2599 12.6302 13.1882 11.4951C12.8616 11.4218 12.5231 11.4607 12.2964 11.5056C10.9973 11.7639 9.7042 12.1937 8.45287 12.7829C4.96286 14.4249 2.18204 16.9533 0.187958 20.297C-0.026812 20.6572 -0.0558954 21.033 0.107419 21.328C0.274462 21.629 0.618243 21.805 1.05002 21.8117C1.31475 21.8154 1.58471 21.8147 1.84497 21.8139C1.86585 21.8139 1.88598 21.8139 1.90686 21.8139V32.1021H1.89791C1.67718 32.1021 1.46614 32.1021 1.25435 32.1021C0.240159 32.1028 0.0142031 32.6067 0.00376291 33.0282C-0.00294865 33.291 0.0753528 33.5082 0.235684 33.6736C0.448217 33.8923 0.783795 33.9993 1.26255 33.9993H32.7256C32.7562 33.9993 32.786 33.9993 32.8166 34.0001C32.8494 34.0001 32.8822 34.0008 32.9157 34.0008C32.9694 34.0008 33.0246 34.0001 33.082 33.9956C33.6152 33.9589 34.0015 33.5613 34.0008 33.0507C34.0008 32.5393 33.6137 32.1425 33.082 32.1073L33.0813 32.1066ZM6.70488 28.9477C6.70339 28.3091 6.7019 27.648 6.70861 26.9996C6.71905 25.9087 7.5222 25.0596 8.57591 25.0252C9.0845 25.0072 9.56997 25.1937 9.94134 25.5456C10.3105 25.8952 10.5208 26.3714 10.5334 26.885C10.5648 28.1511 10.5581 29.4411 10.5521 30.6892C10.5499 31.1527 10.5476 31.6162 10.5469 32.0796H6.70563V29.7998C6.70563 29.516 6.70563 29.2322 6.70413 28.9477H6.70488ZM21.7664 30.3134C21.7664 30.3628 21.7671 30.4122 21.7671 30.4616V32.0774H12.4477V31.9164C12.4477 31.411 12.4492 30.9056 12.4507 30.4002C12.4537 29.2772 12.4567 28.1152 12.4433 26.9719C12.4306 25.9184 12.0324 24.9451 11.3217 24.2323C10.6132 23.521 9.65498 23.1294 8.62513 23.1294H8.6214C6.47221 23.1317 4.83534 24.8208 4.81371 27.0587C4.80327 28.1833 4.80551 29.3266 4.80775 30.4317C4.80924 30.9303 4.80998 31.429 4.80998 31.9276V32.0744H3.87186V21.8409H21.7679V21.9757C21.7679 22.1666 21.7679 22.3583 21.7679 22.5492C21.7671 22.9999 21.7664 23.4656 21.7708 23.9253C21.7708 23.95 21.7723 23.9732 21.7738 23.9965V29.8934C21.7731 29.9038 21.7723 29.9143 21.7716 29.9248C21.7656 30.0566 21.7671 30.1876 21.7679 30.3134H21.7664ZM10.092 14.1606C9.10836 16.0967 8.58859 18.1138 8.18515 19.9062H2.72343C4.65935 17.2835 7.07998 15.3952 10.092 14.1606ZM10.1434 19.8995C10.7012 17.6024 11.2568 15.4304 12.749 13.6028C13.1726 14.022 13.4515 14.4967 13.6909 14.9535C14.3963 16.3034 14.9176 17.8368 15.371 19.8995H10.1434ZM22.7888 19.8957H17.3285C16.9266 18.1085 16.415 16.1027 15.4888 14.2175C18.4344 15.3855 20.832 17.2513 22.7888 19.8957ZM20.7313 5.37361L17.4672 2.11594C18.8453 2.49554 20.3375 3.5984 21.0102 5.19093L20.7313 5.37361ZM21.4293 11.0519C21.084 11.1312 20.7059 10.9254 20.5672 10.5839C20.4405 10.2702 20.5173 9.97673 20.6672 9.80901C20.7648 9.83896 20.861 9.86816 20.955 9.89661C21.3264 10.0097 21.6769 10.116 22.0132 10.2373C22.0281 10.253 22.046 10.283 22.0512 10.3009C22.0714 10.6319 21.794 10.968 21.4285 11.0511L21.4293 11.0519ZM21.7164 8.10718C21.5672 7.95818 21.486 7.76352 21.4882 7.55837C21.4927 7.14133 21.8484 6.79019 22.2653 6.79019H22.2667C22.6918 6.79093 23.0401 7.13534 23.043 7.55762C23.046 7.98065 22.7045 8.33105 22.2817 8.33853C22.0691 8.34153 21.8685 8.26067 21.7164 8.10793V8.10718ZM24.967 7.56062C24.9954 7.52842 25.0431 7.49772 25.1177 7.46029C26.9999 6.52289 28.7934 6.55509 30.5898 7.56062H24.967ZM24.8641 11.1604C24.4398 11.1679 24.09 10.8265 24.0818 10.4027C24.0774 10.1871 24.1564 9.98571 24.3048 9.83522C24.4495 9.68772 24.6434 9.60686 24.8507 9.60686C24.8522 9.60686 24.8537 9.60686 24.8552 9.60686C25.269 9.60911 25.6345 9.97074 25.6359 10.3795C25.6382 10.7898 25.2773 11.1545 24.8641 11.1597V11.1604ZM24.1094 5.6147C24.0065 5.51287 23.9096 5.41479 23.8865 5.37137C23.8954 5.31671 23.9737 5.16472 24.0498 5.01722L24.0513 5.01423C24.8194 3.52129 25.9827 2.56667 27.5994 2.10846L24.1094 5.6147ZM26.1833 12.747C29.1774 18.1535 30.7255 24.4899 30.9112 32.1013C30.8866 32.1013 30.8628 32.1013 30.8389 32.1013C30.5272 32.1036 30.2319 32.1058 29.9433 32.0916C29.9366 32.0796 29.9306 32.0669 29.9276 32.0579C29.8993 31.6132 29.8784 31.1594 29.859 30.7207C29.8314 30.121 29.8038 29.5003 29.7554 28.8893C29.2758 22.7865 27.7881 17.5979 25.2101 13.0382L26.1841 12.7477L26.1833 12.747ZM19.5993 7.5112C19.5978 7.52917 19.5955 7.54714 19.5941 7.56661H14.3971C16.0146 6.63071 17.6947 6.53712 19.5143 7.27685C19.5834 7.3048 19.6117 7.38292 19.5993 7.5112Z" fill="#2EC8A1"/>
</svg>
