<svg width="258" height="248" viewBox="0 0 258 248" fill="none" xmlns="http://www.w3.org/2000/svg">
<g clip-path="url(#clip0_785_34635)">
<path fill-rule="evenodd" clip-rule="evenodd" d="M226.826 0H257.403V38.7662H226.826C222.337 38.7662 218.637 35.0659 218.637 30.5554V8.18922C218.637 3.70021 222.337 0 226.826 0Z" fill="#2EC8A1"/>
<path fill-rule="evenodd" clip-rule="evenodd" d="M246.223 48.4395L257.402 38.7659H246.223V48.4395Z" fill="#157A63"/>
<path fill-rule="evenodd" clip-rule="evenodd" d="M227.401 9.89648H247.501C248.175 9.89648 248.72 10.4486 248.72 11.1371C248.72 11.8111 248.168 12.3561 247.501 12.3561H227.401C226.727 12.3561 226.16 11.804 226.16 11.1371C226.16 10.4486 226.727 9.89648 227.401 9.89648Z" fill="white"/>
<path fill-rule="evenodd" clip-rule="evenodd" d="M227.401 17.1172H247.501C248.175 17.1172 248.72 17.6693 248.72 18.3362C248.72 19.0247 248.168 19.5768 247.501 19.5768H227.401C226.727 19.5768 226.16 19.0247 226.16 18.3362C226.16 17.6622 226.727 17.1172 227.401 17.1172Z" fill="white"/>
<path fill-rule="evenodd" clip-rule="evenodd" d="M236.053 24.3301H247.498C248.172 24.3301 248.717 24.8822 248.717 25.5491C248.717 26.2376 248.165 26.7897 247.498 26.7897H236.053C235.365 26.7897 234.812 26.2376 234.812 25.5491C234.812 24.8751 235.365 24.3301 236.053 24.3301Z" fill="white"/>
</g>
<g clip-path="url(#clip1_785_34635)">
<path fill-rule="evenodd" clip-rule="evenodd" d="M32.6277 172.103H12.8314V197.354H32.6277C35.5341 197.354 37.9297 194.943 37.9297 192.005V177.437C37.9297 174.513 35.5341 172.103 32.6277 172.103Z" fill="#2EC8A1"/>
<path fill-rule="evenodd" clip-rule="evenodd" d="M20.0703 203.655L12.8324 197.354H20.0703V203.655Z" fill="#157A63"/>
<path fill-rule="evenodd" clip-rule="evenodd" d="M32.2554 178.55H19.242C18.8056 178.55 18.4527 178.909 18.4527 179.358C18.4527 179.797 18.8102 180.152 19.242 180.152H32.2554C32.6918 180.152 33.0586 179.792 33.0586 179.358C33.0586 178.909 32.6918 178.55 32.2554 178.55Z" fill="white"/>
<path fill-rule="evenodd" clip-rule="evenodd" d="M32.2554 183.252H19.242C18.8056 183.252 18.4527 183.612 18.4527 184.046C18.4527 184.494 18.8102 184.854 19.242 184.854H32.2554C32.6918 184.854 33.0586 184.494 33.0586 184.046C33.0586 183.607 32.6918 183.252 32.2554 183.252Z" fill="white"/>
<path fill-rule="evenodd" clip-rule="evenodd" d="M26.6538 187.951H19.2441C18.8077 187.951 18.4549 188.311 18.4549 188.745C18.4549 189.194 18.8124 189.553 19.2441 189.553H26.6538C27.0995 189.553 27.457 189.194 27.457 188.745C27.457 188.306 27.0995 187.951 26.6538 187.951Z" fill="white"/>
</g>
<path d="M42.527 187.291H179.937C202.762 187.291 221.464 168.589 221.464 145.764C221.464 122.939 202.762 104.215 179.937 104.215H42.527C19.6803 104.215 1 85.5351 1 62.6813C1 39.8274 19.6803 21.1543 42.527 21.1543H212.206" stroke="#2EC8A1" stroke-width="1.07564" stroke-linecap="round" stroke-linejoin="round" stroke-dasharray="3.59 3.59"/>
<g clip-path="url(#clip2_785_34635)">
<path d="M102.091 248C104.952 248 107.268 245.684 107.268 242.823V139.532H96.9062V242.815C96.9062 245.677 99.2225 247.993 102.084 247.993L102.091 248Z" fill="#157A63"/>
<path d="M75.3541 70.5469C58.2514 70.5469 44.3828 84.4155 44.3828 101.518V132.547C44.3828 136.405 47.5093 139.524 51.3601 139.524H150.04V70.5469H75.3541Z" fill="#2EC8A1"/>
<path d="M150.042 70.5469C167.137 70.5469 181.013 84.4227 181.013 101.518V139.531H119.07V101.518C119.07 84.4227 132.946 70.5469 150.042 70.5469Z" fill="#94DCCA"/>
<path d="M123.816 139.532V101.519C123.816 87.0553 135.584 75.2949 150.041 75.2949C164.497 75.2949 176.265 87.0624 176.265 101.519V139.532H123.816Z" fill="#157A63"/>
<path d="M188.362 133.947H44.5195C45.1649 137.138 47.9831 139.533 51.3606 139.533H188.362C189.903 139.533 191.158 138.285 191.158 136.736C191.158 135.187 189.911 133.939 188.362 133.939V133.947Z" fill="#1C2325"/>
<path d="M100.741 110.081H97.5781V47.4712C97.5781 46.5963 98.288 45.8936 99.1557 45.8936C100.031 45.8936 100.733 46.6035 100.733 47.4712V110.081H100.741Z" fill="#157A63"/>
<path d="M99.1593 102.859C95.1722 102.859 91.9453 106.093 91.9453 110.073C91.9453 114.053 95.1794 117.287 99.1593 117.287C103.139 117.287 106.373 114.053 106.373 110.073C106.373 106.093 103.139 102.859 99.1593 102.859Z" fill="#94DCCA"/>
<path d="M99.1637 105.449C96.6037 105.449 94.5312 107.522 94.5312 110.082C94.5312 112.642 96.6037 114.714 99.1637 114.714C101.724 114.714 103.796 112.642 103.796 110.082C103.796 107.522 101.724 105.449 99.1637 105.449Z" fill="#157A63"/>
<path d="M97.5744 48.7695L86.7534 54.3127C84.5161 55.46 84.5233 58.6511 86.7534 59.7913L97.4955 65.2627L97.5744 48.7695Z" fill="#157A63"/>
<path d="M188.433 97.3613L147.539 105.912L152.583 130.037L193.477 121.486L188.433 97.3613Z" fill="#94DCCA"/>
<path d="M193.474 121.496L169.76 110.123L152.578 130.044L193.474 121.496Z" fill="white" fill-opacity="0.3"/>
<path d="M147.539 105.913L168.98 116.196C170.328 116.842 171.935 116.504 172.91 115.371L188.435 97.3652L147.539 105.913Z" fill="#2EC8A1"/>
<path d="M227.124 95.7607L181.953 79.5605L172.396 106.209L217.566 122.41L227.124 95.7607Z" fill="#94DCCA"/>
<path d="M217.56 122.423L201.175 97.0381L172.391 106.217L217.56 122.423Z" fill="white" fill-opacity="0.3"/>
<path d="M181.949 79.5693L196.757 102.516C197.689 103.958 199.467 104.596 201.095 104.072L227.111 95.7757L181.941 79.5693H181.949Z" fill="#2EC8A1"/>
<path d="M237.846 116.156L203.223 121.43L206.334 141.861L240.958 136.587L237.846 116.156Z" fill="#94DCCA"/>
<path d="M240.957 136.592L221.624 125.979L206.328 141.863L240.957 136.592Z" fill="white" fill-opacity="0.3"/>
<path d="M203.227 121.433L220.695 131.027C221.792 131.63 223.155 131.422 224.022 130.518L237.848 116.162L203.227 121.433Z" fill="#2EC8A1"/>
</g>
<defs>
<clipPath id="clip0_785_34635">
<rect width="38.7662" height="48.4398" fill="white" transform="translate(218.637)"/>
</clipPath>
<clipPath id="clip1_785_34635">
<rect width="25.0983" height="31.5522" fill="white" transform="matrix(-1 0 0 1 37.9297 172.103)"/>
</clipPath>
<clipPath id="clip2_785_34635">
<rect width="196.577" height="202.106" fill="white" transform="translate(44.3828 45.8936)"/>
</clipPath>
</defs>
</svg>
