<svg width="34" height="34" viewBox="0 0 34 34" fill="none" xmlns="http://www.w3.org/2000/svg">
<path d="M23.2617 6.29442C23.2617 5.4907 23.2591 4.80106 23.2617 4.11143C23.2686 2.76006 24.0288 2.0138 25.4027 2.00958C26.2685 2.00704 27.1351 2.00197 28.0009 2.01127C29.2121 2.02394 30.0026 2.79217 30.006 3.98128C30.0147 6.81418 30.0138 9.64708 30.0026 12.48C30.0017 12.7876 30.09 13.0048 30.3186 13.2186C31.006 13.8618 31.6744 14.5252 32.3428 15.1878C33.2146 16.0524 33.2215 17.1401 32.3488 18.0004C31.7705 18.5709 31.1679 19.1168 30.5818 19.6797C30.5194 19.7397 30.4502 19.8437 30.4606 19.918C30.6095 20.9981 30.2424 21.9109 29.5195 22.7036C30.8311 24.1792 30.7965 25.992 29.5359 27.4169C29.7169 27.6755 29.9264 27.9257 30.0814 28.2054C31.29 30.3867 29.7203 33.0202 27.1767 33.0675C25.878 33.092 24.5785 33.0726 23.2799 33.0726C17.8523 33.0726 12.4257 33.0751 6.99817 33.0709C5.57225 33.07 4.47964 32.4708 3.85369 31.2099C3.24592 29.9853 3.41301 28.803 4.25022 27.7144C4.31861 27.6248 4.39393 27.5403 4.47705 27.4389C3.17406 25.8678 3.16021 24.2933 4.48484 22.7002C3.9065 22.1019 3.48228 21.381 3.53595 20.5578C3.57924 19.9037 3.29787 19.5428 2.85113 19.1667C2.42603 18.8092 2.04683 18.3985 1.6529 18.0055C0.784532 17.1392 0.780203 16.0456 1.6529 15.1937C6.28305 10.668 10.9167 6.14568 15.5511 1.6242C16.4446 0.752014 17.5554 0.756239 18.4601 1.63434C19.9233 3.05501 21.3804 4.48245 22.8401 5.9065C22.9491 6.01299 23.0634 6.11272 23.2617 6.29527V6.29442ZM4.53072 18.101C4.65886 17.9497 4.75929 17.8103 4.88136 17.6911C8.37908 14.2708 11.8794 10.8531 15.3797 7.43451C16.494 6.34682 17.5112 6.34936 18.6307 7.44296C21.0895 9.84484 23.55 12.2459 26.0062 14.6494C27.1672 15.7853 28.3221 16.9288 29.4554 18.0444C29.9853 17.5263 30.4788 17.0437 30.9402 16.5924C26.3057 12.0676 21.6366 7.50804 16.9987 2.97895C12.3556 7.51226 7.68473 12.0726 3.03121 16.6169C3.4892 17.0699 3.97317 17.5483 4.53159 18.1001L4.53072 18.101ZM16.9961 18.9563C13.6499 18.9563 10.3028 18.9529 6.95662 18.9588C6.07266 18.9605 5.44238 19.5529 5.43632 20.3558C5.43026 21.1587 6.05448 21.7638 6.93843 21.7706C8.59725 21.7832 10.2561 21.7807 11.9149 21.763C12.0551 21.7613 12.2586 21.6311 12.3227 21.5069C12.7227 20.7336 13.3512 20.3643 14.2326 20.3668C16.0792 20.3727 17.9251 20.3719 19.7718 20.3668C20.654 20.3643 21.2843 20.7361 21.6756 21.5137C21.7319 21.6252 21.8912 21.7613 22.0037 21.7621C23.7491 21.7748 25.4945 21.7883 27.239 21.7554C28.052 21.7401 28.6312 21.0133 28.5533 20.2223C28.478 19.4608 27.8667 18.958 26.9914 18.9571C23.6591 18.9537 20.3276 18.9554 16.9952 18.9563H16.9961ZM19.8644 31.1676V22.2785H14.1443V31.1676H19.8644ZM25.6746 17.0496C25.6071 16.9558 25.5768 16.8967 25.5309 16.8527C24.6963 16.0346 23.8651 15.2115 23.0158 14.4077C22.8998 14.2987 22.6851 14.2421 22.5154 14.2421C18.835 14.2328 15.1555 14.2319 11.4751 14.2446C11.2863 14.2446 11.0534 14.3444 10.9158 14.4728C10.1556 15.1853 9.41887 15.9205 8.67517 16.649C8.56002 16.7623 8.45094 16.8806 8.28817 17.0496H25.6746ZM12.1547 28.3922C10.282 28.3922 8.4544 28.3652 6.62849 28.4176C6.31421 28.4269 5.94886 28.7184 5.71597 28.9737C5.35494 29.37 5.33849 29.8797 5.57052 30.3622C5.83371 30.9107 6.29863 31.1854 6.91766 31.1871C8.57561 31.1922 10.2336 31.1896 11.8906 31.1871C11.9729 31.1871 12.0551 31.16 12.1538 31.1423V28.3914L12.1547 28.3922ZM21.8444 31.1271C21.9137 31.1567 21.9397 31.1778 21.9656 31.1778C23.7093 31.1812 25.4538 31.1896 27.1975 31.1803C27.6563 31.1778 28.0295 30.9597 28.2935 30.593C28.6191 30.1408 28.6632 29.6489 28.4113 29.1554C28.1334 28.612 27.6563 28.3652 27.0399 28.3652C25.4252 28.3652 23.8115 28.3643 22.1968 28.366C22.086 28.366 21.9743 28.3863 21.8453 28.399V31.1271H21.8444ZM21.8444 26.4746C23.6712 26.4746 25.4434 26.4856 27.2148 26.4628C27.4693 26.4594 27.7516 26.3377 27.9706 26.1957C28.4788 25.8661 28.678 25.2289 28.5065 24.6618C28.3342 24.0905 27.7983 23.6764 27.1464 23.6713C25.4452 23.6586 23.7431 23.6662 22.0418 23.6687C21.976 23.6687 21.9094 23.7009 21.8444 23.7178V26.4746ZM12.1538 23.6899C12.0517 23.6789 11.9824 23.6654 11.914 23.6654C10.2414 23.6645 8.56868 23.6637 6.89601 23.6679C6.75402 23.6679 6.60598 23.6856 6.47005 23.7245C5.78176 23.9223 5.36619 24.5485 5.44931 25.2475C5.53156 25.9413 6.11768 26.467 6.86917 26.4738C8.38341 26.4873 9.89764 26.4788 11.4119 26.4788C11.6526 26.4788 11.8932 26.4788 12.1547 26.4788V23.6899H12.1538ZM25.2001 3.9086C25.2001 5.32251 25.195 6.6984 25.2097 8.07428C25.2105 8.19006 25.3248 8.3236 25.4192 8.41741C26.0443 9.04027 26.6772 9.65553 27.3092 10.2708C27.5377 10.4939 27.7715 10.7111 28.0511 10.9765V3.9086H25.2001ZM13.1954 12.3219H20.7864C19.5129 11.0737 18.2445 9.83132 17.0074 8.61939C15.752 9.83893 14.4802 11.0754 13.1962 12.3219H13.1954Z" fill="#2EC8A1"/>
</svg>
