<svg width="34" height="34" viewBox="0 0 34 34" fill="none" xmlns="http://www.w3.org/2000/svg">
<g clip-path="url(#clip0_523_22327)">
<path d="M29.5457 10.5137C29.9742 10.5195 30.3787 10.5254 30.7948 10.5021C32.2872 10.4192 33.2638 9.76686 33.6974 8.56247C34.0844 7.48816 34.1006 6.32972 33.7453 5.12079C33.4178 4.007 32.6554 3.31453 31.5403 3.11649C31.121 3.04207 30.7184 3.00453 30.345 3.00388C22.8326 3 15.1933 3 7.80518 3H4.55895C4.40298 3 4.26254 3.00065 4.11628 3.00841C1.82787 3.12814 0.0261307 4.98618 0.0151287 7.2377C-0.00493372 11.2819 -0.00493372 18.2759 0.0144815 23.1595C0.0222476 25.1036 1.36319 26.7863 3.27625 27.2516C3.59336 27.3286 3.91307 27.3623 4.22177 27.3946C4.26837 27.3998 4.31496 27.4043 4.36221 27.4095C4.87671 29.1517 6.47588 30.3658 8.26403 30.3658H8.27503C10.0768 30.3606 11.6798 29.1401 12.1736 27.3966C12.1743 27.394 12.1749 27.3914 12.1762 27.3888C12.1788 27.3888 12.182 27.3888 12.1853 27.3888C14.8296 27.3966 17.4779 27.3959 20.0394 27.3953H22.032C22.586 29.1271 23.7826 30.1154 25.5896 30.3335C25.7248 30.3496 25.8633 30.358 26.0012 30.358C27.6916 30.358 29.3568 29.1304 29.7923 27.5635C29.8609 27.3163 29.9101 27.2917 30.1832 27.249C31.2407 27.0853 32.0393 26.5688 32.557 25.7152C33.0968 24.8253 33.155 23.8403 33.1408 22.9938C33.1143 21.4031 32.2127 20.1178 30.7288 19.5554C30.7119 19.5489 30.7003 19.5437 30.6938 19.5405C30.6919 19.534 30.6893 19.525 30.6867 19.5114C30.5411 18.762 30.2084 16.2574 29.9153 14.0479C29.7056 12.4708 29.5218 11.0832 29.4299 10.5137C29.4648 10.5137 29.5004 10.5144 29.5354 10.515H29.5457V10.5137ZM19.0265 10.5389V25.1489H14.5261V10.5389H19.0265ZM6.96644 24.9722C7.32109 24.6182 7.78188 24.4234 8.2692 24.4234H8.27567C9.28656 24.4299 10.113 25.2602 10.1182 26.2757C10.1208 26.772 9.92727 27.24 9.57456 27.5927C9.22638 27.9408 8.76494 28.1324 8.27244 28.1324H8.26532C7.2499 28.1266 6.42022 27.2988 6.4144 26.2873C6.41181 25.7974 6.6079 25.3308 6.96579 24.9722H6.96644ZM24.9281 19.1884V10.5254C25.8678 10.526 26.6309 10.5279 27.1007 10.5331C27.2962 11.7692 28.1601 17.7155 28.3737 19.1878H24.9281V19.1884ZM22.6837 8.3036V21.44H23.4649C23.738 21.4393 24.013 21.4387 24.2881 21.4387C24.4848 21.4387 24.6816 21.4387 24.8777 21.4387H24.9372C26.15 21.4361 27.4042 21.4341 28.6352 21.4497C29.0817 21.4555 29.5147 21.5157 29.8881 21.6251C30.4997 21.8043 30.8446 22.214 30.886 22.8107C30.921 23.3084 30.8757 23.8255 30.756 24.305C30.6776 24.6163 30.51 24.9211 29.8531 25.0667C29.8201 25.0001 29.7878 24.9334 29.7554 24.8668C29.5787 24.503 29.4118 24.1594 29.1788 23.8332C28.3776 22.7117 27.0438 22.113 25.609 22.2308C24.1677 22.3492 22.9433 23.1615 22.333 24.4047C22.2074 24.6597 22.1071 24.9205 22.034 25.1793C21.9019 25.1729 21.7602 25.1696 21.592 25.1696C21.4955 25.1696 21.3978 25.1703 21.2988 25.1716V8.33143H12.292V25.1806C12.2571 25.1806 12.2234 25.1806 12.1917 25.1787C11.7316 23.6973 10.7453 22.7408 9.25938 22.3357C8.29315 22.0716 7.20978 22.2153 6.28755 22.7298C5.36533 23.2436 4.67414 24.0895 4.39003 25.0499C4.37968 25.0855 4.36738 25.1276 4.35509 25.1651C4.32791 25.1638 4.29943 25.1625 4.27419 25.1612L4.20171 25.1573C3.24453 25.1101 2.22653 24.3244 2.22653 22.9608C2.22653 21.8794 2.22588 20.7986 2.22523 19.7172C2.22329 15.7714 2.22264 10.4367 2.23106 7.4325C2.23429 6.32648 2.80834 5.56864 3.8477 5.29877C4.07874 5.23858 4.34473 5.23081 4.57513 5.23081C13.5243 5.22693 22.6313 5.22693 30.3605 5.22822C31.5216 5.22822 31.717 5.4172 31.752 6.57564C31.7617 6.89276 31.73 7.24094 31.6555 7.6396C31.5856 8.01302 31.3973 8.18776 31.0058 8.24147C30.7236 8.2803 30.4285 8.30037 30.1288 8.30101C28.4624 8.3049 26.7681 8.30425 25.1288 8.30425H22.685L22.6837 8.3036ZM27.7912 26.2776C27.7925 26.774 27.5984 27.2419 27.2431 27.5953C26.8949 27.9415 26.4361 28.1324 25.952 28.1324H25.9358C24.9184 28.1233 24.0881 27.295 24.0855 26.2854C24.0842 25.7961 24.2816 25.3288 24.6414 24.971C24.9961 24.6182 25.4556 24.4234 25.9358 24.4234H25.95C26.9622 24.4319 27.788 25.2635 27.7912 26.2782V26.2776Z" fill="#2EC8A1"/>
<path d="M3.25342 14.8769H11.2098V8H3.25342V14.8769ZM5.46611 10.1926C6.42717 10.1952 7.40375 10.1946 8.34992 10.1946H8.98351V12.6493H5.46611V11.3595C5.46611 10.9705 5.46676 10.5816 5.46611 10.1926Z" fill="#2EC8A1"/>
</g>
<defs>
<clipPath id="clip0_523_22327">
<rect width="34" height="34" fill="white"/>
</clipPath>
</defs>
</svg>
