<svg width="34" height="34" viewBox="0 0 34 34" fill="none" xmlns="http://www.w3.org/2000/svg">
<g clip-path="url(#clip0_89_6417)">
<path d="M5.10634 10.3252H11.4501V14.3479H13.7834V10.3177H15.9676V0H24.2793V6.61525H18.0399V10.273H20.1719V14.3554H22.4977V10.3475H28.8638V32.0184H34V34H0V32.0631H5.10634V10.3252ZM26.8288 32.011V12.3514H24.4955V16.3668H18.1741V12.3365H15.811V16.3519H9.44486V12.3365H7.17869V31.9886H12.8441C12.8441 30.2379 12.8217 28.532 12.8441 26.8335C12.8888 24.5316 14.7003 22.7436 16.959 22.7287C19.2475 22.7138 21.0888 24.5018 21.141 26.8409C21.1708 28.3234 21.1484 29.8133 21.1484 31.2958C21.1484 31.5342 21.1484 31.7651 21.1484 32.0184H26.8213L26.8288 32.011ZM19.1506 32.011C19.1506 30.2901 19.1655 28.6363 19.1506 26.975C19.1357 25.6639 18.2412 24.7327 17.0335 24.7178C15.7961 24.6954 14.8643 25.6415 14.8494 26.975C14.827 28.5245 14.8494 30.0741 14.8494 31.6236C14.8494 31.7502 14.8866 31.8694 14.909 32.0035H19.1581L19.1506 32.011ZM22.2964 2.00394H18.0324V4.58151H22.2964V2.00394Z" fill="#40C79E"/>
</g>
<defs>
<clipPath id="clip0_89_6417">
<rect width="34" height="34" fill="white"/>
</clipPath>
</defs>
</svg>
