<svg width="34" height="34" viewBox="0 0 34 34" fill="none" xmlns="http://www.w3.org/2000/svg">
<path d="M31.9428 27.1159C31.3892 24.7513 30.8681 22.4278 30.2874 20.116C30.1625 19.6172 29.8911 19.1009 29.56 18.7312C28.3116 17.3348 27.0524 15.9383 25.7117 14.6474C24.2896 13.2803 23.2583 11.6843 22.5527 9.7715C21.8416 7.84108 20.9732 5.98107 20.1699 4.07999C20.045 4.09759 19.9527 4.09172 19.8713 4.12106C16.5495 5.23002 13.2277 6.33899 9.91124 7.47729C9.69955 7.5477 9.48244 7.87042 9.41188 8.12272C8.89623 9.90645 8.29374 11.6726 7.96807 13.4974C7.64783 15.3046 6.88793 16.3549 5.13474 16.4253C4.62995 16.4429 4.45083 16.7715 4.33685 17.2819C3.64208 20.3507 2.91475 23.4135 2.20913 26.4822C2.11686 26.893 2.01373 27.1805 1.52522 27.1277C1.02586 27.0749 0.515645 27.1159 0 27.1159V29.24H34V27.1101H31.9428V27.1159ZM12.5655 27.0866C12.8586 25.9542 13.1245 24.8745 13.4231 23.8066C13.4665 23.6541 13.6402 23.5133 13.7813 23.4194C14.932 22.6977 16.0827 21.9818 17.2497 21.2953C17.4234 21.1956 17.6893 21.266 17.9119 21.266C17.9499 21.266 17.9879 21.3071 18.0313 21.3305C18.9269 21.8528 20.0993 22.152 20.6529 22.95C21.4508 24.1 21.8036 25.6138 22.3953 27.0866H12.5709H12.5655ZM27.2043 27.1218C26.5367 27.1218 25.8691 27.0925 25.2069 27.1335C24.7455 27.1629 24.4958 27.0103 24.3167 26.5175C23.736 24.9391 23.1172 23.3724 22.4767 21.8234C22.3519 21.5242 22.113 21.2191 21.8525 21.0606C20.5715 20.2979 19.2743 19.5644 17.9607 18.872C17.7382 18.7547 17.3528 18.7664 17.1303 18.8955C15.4748 19.8695 13.841 20.8787 12.2181 21.9173C11.9684 22.0757 11.735 22.4043 11.6427 22.7094C11.2628 24.012 10.9534 25.3381 10.5789 26.6407C10.5192 26.8402 10.2478 27.1042 10.0686 27.1101C8.2069 27.1453 6.33972 27.1277 4.47797 27.1277C4.39655 27.1277 4.30971 27.0925 4.14687 27.0514C4.29885 26.3825 4.4454 25.7429 4.59195 25.0975C5.0696 23.0556 5.56354 21.0137 6.01405 18.9659C6.11175 18.52 6.30172 18.3381 6.69253 18.2384C8.82567 17.6809 10.9534 17.1001 13.0811 16.525C13.2277 16.484 13.3742 16.4312 13.5967 16.3549C13.4448 15.6742 13.2928 15.0171 13.1299 14.3012C11.9304 14.6181 10.796 14.9173 9.54757 15.2459C9.91124 13.9022 10.3617 12.6759 10.568 11.4027C10.8285 9.7891 11.5776 9.00285 13.0702 8.63906C15.0731 8.14619 17.0109 7.35994 19.0463 6.67344C19.2146 7.0607 19.3665 7.41862 19.5239 7.7824C20.3761 9.78323 20.9949 11.9601 22.1456 13.738C23.28 15.4982 24.8812 16.9475 26.4119 18.3616C27.8665 19.7111 28.7133 21.3012 29.0064 23.3314C29.1855 24.5753 29.56 25.784 29.8748 27.1335H27.2098L27.2043 27.1218Z" fill="#40C79E"/>
</svg>
