<svg width="34" height="34" viewBox="0 0 34 34" fill="none" xmlns="http://www.w3.org/2000/svg">
<path fill-rule="evenodd" clip-rule="evenodd" d="M31.5226 12.9557H31.5225C29.1348 12.9551 26.7467 12.9544 24.3592 12.9622C24.0371 12.9629 23.7902 12.8869 23.5426 12.6689C22.6857 11.9184 21.812 11.1861 20.9301 10.4659C20.7189 10.2935 20.6528 10.1172 20.6559 9.85439C20.6648 8.84003 20.6635 7.82525 20.6621 6.81037C20.6616 6.44501 20.6612 6.07963 20.6612 5.71426V5.3162H18.6526V8.53563C16.4276 6.66155 14.2633 4.83761 12.0831 3L7.71977 6.6794L7.69333 6.70169C5.12981 8.86336 2.56968 11.0222 0 13.1893L1.27926 14.704C1.39374 14.6159 1.49885 14.5347 1.61084 14.4482L1.61109 14.448C1.71528 14.3675 1.82542 14.2825 1.9546 14.1829V14.7656L1.9548 17.659V17.6592C1.95525 21.9993 1.9557 26.3395 1.947 30.6796C1.947 31.0321 2.04804 31.121 2.39368 31.121C9.71459 31.1142 17.0359 31.1137 24.3571 31.1133H24.3571L24.4151 31.1133C26.8358 31.1132 29.2564 31.113 31.677 31.1127C31.7679 31.1127 31.8589 31.1063 31.9652 31.0989C32.0151 31.0955 32.0684 31.0917 32.1267 31.0883V14.9297H34V12.9553H33.5123V12.9561C32.8491 12.9561 32.1859 12.9559 31.5226 12.9557ZM13.2515 29.117C12.6487 29.1017 12.0451 29.105 11.4416 29.1083H11.4415C11.2358 29.1094 11.03 29.1106 10.8244 29.111L10.8138 29.111C10.6444 29.1111 10.5008 29.1112 10.5015 28.8641C10.5064 27.804 10.5072 26.7439 10.508 25.684V25.6839C10.5084 25.1132 10.5088 24.5425 10.5099 23.9719C10.5099 23.9491 10.5196 23.9266 10.5316 23.8988C10.538 23.8839 10.545 23.8676 10.5516 23.8488H13.6184C13.6215 23.8849 13.6257 23.9215 13.6299 23.9584L13.6299 23.9585C13.6388 24.0376 13.648 24.1185 13.648 24.1998C13.6487 24.6798 13.6483 25.1599 13.6479 25.64V25.6401C13.6469 26.6644 13.646 27.6888 13.6564 28.7129C13.6594 29.0289 13.5667 29.1254 13.2515 29.117ZM30.0726 29.1102H29.6616C28.6935 29.1102 27.7254 29.11 26.7573 29.1098H26.7572C23.2069 29.109 19.6564 29.1082 16.1055 29.1178C15.7409 29.1186 15.6398 29.0206 15.6429 28.6552C15.6559 27.0906 15.6541 25.526 15.6524 23.9617V23.9612V23.9611C15.6518 23.4248 15.6512 22.8885 15.6512 22.3523V21.8555H8.51424V29.0874H3.97529C3.97276 29.0367 3.96963 28.988 3.96659 28.9406C3.96051 28.8459 3.95478 28.7564 3.95478 28.6673L3.9545 25.5005C3.95426 21.278 3.95402 17.0555 3.94794 12.833C3.94794 12.5648 4.03454 12.3924 4.23585 12.223C6.7564 10.1081 9.27466 7.99019 11.78 5.85783C12.0375 5.63829 12.1728 5.67855 12.4045 5.87454C14.2853 7.46736 16.1687 9.05685 18.0521 10.6464L18.0533 10.6474C19.6511 11.9959 21.2488 13.3444 22.8452 14.6949C23.0624 14.8788 23.2805 14.9525 23.5631 14.9509C25.1023 14.9434 26.6415 14.9443 28.1807 14.9451C28.6667 14.9454 29.1528 14.9456 29.6388 14.9456H30.0726V29.1102ZM15.3185 10.902C13.7732 10.9129 12.2278 10.9121 10.6825 10.9113C10.0643 10.911 9.44615 10.9107 8.82798 10.9111C8.74617 10.9111 8.66435 10.9169 8.57798 10.923C8.53524 10.926 8.49139 10.9291 8.44588 10.9316V18.0018H15.7318V17.6303C15.7318 17.1194 15.7313 16.6085 15.7309 16.0976C15.7297 14.5081 15.7284 12.9187 15.7394 11.3297C15.7416 10.9993 15.6581 10.8997 15.3185 10.902ZM13.7065 16.0183H10.4468V12.9379H13.7065V16.0183ZM28.0823 25.4038H20.8245V18.3618H28.0823V25.4038ZM26.0882 20.3582H22.8224V23.428H26.0882V20.3582Z" fill="#2EC8A1"/>
</svg>
