<svg width="34" height="34" viewBox="0 0 34 34" fill="none" xmlns="http://www.w3.org/2000/svg">
<g clip-path="url(#clip0_523_22333)">
<path d="M21.154 9.20483C21.9756 8.17922 22.7569 7.20443 23.5383 6.22888C23.7363 5.98234 23.9328 5.73428 24.1307 5.4885C24.6709 4.81867 25.4097 4.83611 25.8876 5.54464C26.8624 6.99127 27.8289 8.44397 28.7968 9.89515C29.7929 11.3888 30.7881 12.8825 31.7788 14.3799C32.0959 14.8594 32.0641 15.3342 31.7113 15.6953C31.2304 16.1884 30.5181 16.0898 30.0993 15.464C29.1579 14.056 28.2211 12.6443 27.2819 11.2341C26.5461 10.1296 25.811 9.02429 25.0737 7.92054C25.0327 7.85909 24.9804 7.80523 24.9106 7.72027C24.2984 8.48417 23.6991 9.23214 23.0998 9.98011C22.7046 10.474 22.3124 10.9693 21.9149 11.4609C21.2731 12.2544 20.5032 12.1891 20.0154 11.3016C18.5483 8.6321 17.0819 5.96186 15.6141 3.29314C15.5723 3.21728 15.523 3.14522 15.4464 3.02232C13.2253 6.68025 11.0253 10.3025 8.79509 13.9748C8.9544 13.9885 9.06211 14.0059 9.16908 14.0059C9.73802 14.009 10.3077 14.0022 10.8767 14.009C11.567 14.0173 12.0054 14.4209 11.9933 15.0247C11.9812 15.6028 11.5283 16.0056 10.8751 16.0109C10.42 16.0147 9.96484 16.0117 9.50892 16.0117C8.02892 16.0117 6.54966 16.0048 5.06966 16.0139C3.31276 16.0238 2.00344 17.2906 1.99585 19.0415C1.97916 23.2774 1.99054 27.5134 1.9913 31.7494C1.9913 31.8116 2.00116 31.8745 2.0095 31.9709H6.97523V23.1151C6.77648 23.197 6.60732 23.2676 6.43664 23.3366C5.88742 23.5581 5.31468 23.3525 5.09014 22.8526C4.85649 22.3322 5.09014 21.7474 5.64543 21.5039C8.1336 20.4115 10.6241 19.3244 13.1137 18.2358C13.5651 18.0386 14.0233 17.855 14.4686 17.6434C14.8274 17.4735 15.1657 17.4803 15.5253 17.6381C18.6848 19.0233 21.8474 20.4031 25.0077 21.786C27.115 22.7077 29.2232 23.6264 31.326 24.5587C32.0497 24.8796 32.2264 25.6822 31.7015 26.198C31.3806 26.5136 30.9952 26.5667 30.5795 26.4051C30.4066 26.3383 30.2366 26.2663 30.0242 26.1798V32.0058C30.2124 32.0058 30.3732 32.0058 30.534 32.0058C31.3563 32.0058 32.1779 31.9974 33.0002 32.0118C33.579 32.0217 33.9932 32.4465 33.9947 32.9942C33.9962 33.5343 33.5737 33.966 33.0093 33.9971C32.9084 34.0024 32.8067 33.9993 32.7058 33.9993C22.2343 33.9993 11.7627 33.9993 1.29112 33.9993C0.343641 33.9993 0 33.6511 0 32.6915C0 28.1901 0 23.6886 0 19.1864C0 16.1854 2.11874 14.0424 5.11593 14.0075C5.15386 14.0075 5.19331 14.0006 5.22972 14.0075C6.16961 14.2115 6.63842 13.7359 7.10192 12.9545C9.55899 8.8134 12.0805 4.70943 14.5809 0.59332C15.0648 -0.203199 15.9653 -0.200165 16.4197 0.619112C17.9346 3.34852 19.4351 6.08627 20.9416 8.82099C21.0023 8.93098 21.0638 9.04098 21.1548 9.20559L21.154 9.20483ZM18.5005 31.9792H20.9705C20.9811 31.8556 20.9963 31.7577 20.9963 31.6591C20.9978 28.6126 20.994 25.5669 21.0031 22.5204C21.0031 22.2738 20.9067 22.1707 20.6936 22.0789C18.9299 21.3188 17.1692 20.5541 15.4153 19.7712C15.1263 19.6423 14.8979 19.6316 14.6044 19.7629C12.8626 20.5412 11.1149 21.3051 9.36024 22.0531C9.07956 22.1729 8.99536 22.3155 8.99688 22.6114C9.00826 25.5942 9.0037 28.5777 9.0037 31.5605C9.0037 31.6947 9.0037 31.8298 9.0037 31.9762H11.4919C11.4919 31.7972 11.4919 31.647 11.4919 31.4975C11.4919 29.7535 11.4919 28.0088 11.4919 26.2648C11.4919 25.359 11.8507 24.9987 12.7534 24.9972C14.2448 24.9956 15.7369 24.9956 17.2283 24.9972C18.1386 24.9979 18.499 25.3545 18.4997 26.2526C18.5012 28.0095 18.4997 29.7664 18.4997 31.5233V31.9785L18.5005 31.9792ZM27.9548 31.9868C27.9745 31.9178 27.9882 31.8935 27.9882 31.8692C27.9912 29.7482 27.9965 27.6264 27.9829 25.5054C27.9821 25.3909 27.8349 25.224 27.7158 25.1709C26.2654 24.5185 24.8082 23.8828 23.3517 23.2448C23.2531 23.2016 23.1469 23.1765 23.0331 23.1394V31.9868H27.9548ZM13.531 27.0218V31.9815H16.4599V27.0218H13.531Z" fill="#2EC8A1"/>
</g>
<defs>
<clipPath id="clip0_523_22333">
<rect width="33.9947" height="34" fill="white"/>
</clipPath>
</defs>
</svg>
