<svg width="50" height="51" viewBox="0 0 50 51" fill="none" xmlns="http://www.w3.org/2000/svg">
<path d="M39.8733 21.5569C37.3014 17.9611 34.7331 14.3633 32.1631 10.7637C30.304 8.16034 28.445 5.55694 26.5859 2.95539C25.8768 1.96106 25.2342 1.5 24.564 1.5C23.8937 1.5 23.2326 1.97402 22.5031 2.99427L18.8387 8.12146C15.5594 12.7098 12.1691 17.4537 8.84355 22.1254C6.79934 25.001 5.8476 28.2876 6.0198 31.8965C6.49382 41.9194 14.9188 49.487 25.6194 49.5H25.6342C32.6501 49.1186 38.2457 45.2875 41.3953 38.7142C44.2561 32.7408 43.7451 26.9693 39.8751 21.5569H39.8733ZM36.1182 39.8956C32.1723 44.7302 27.0266 46.5485 21.2366 45.1542C15.3169 43.7284 11.4803 39.7641 10.1378 33.6926C9.39534 30.3337 10.0656 27.1581 12.1321 24.2529C15.0928 20.0904 18.1128 15.8632 21.0329 11.7766L24.114 7.46227C24.2399 7.28637 24.3695 7.11416 24.5232 6.91234C24.538 6.89382 24.551 6.8753 24.5658 6.85494L32.5908 18.0888C33.0093 18.6758 33.4277 19.2776 33.8333 19.859C34.7128 21.1218 35.6219 22.4272 36.5866 23.6604C40.3251 28.4432 40.1362 34.9683 36.1145 39.8956H36.1182Z" fill="#40C79E"/>
<path d="M33.4539 29.3876C32.3522 29.3098 31.6967 30.0449 31.6115 31.4336C31.5911 31.7706 31.5541 32.1095 31.493 32.4409C31.006 35.1036 28.647 38.057 24.5179 38.2495C23.3995 38.3014 22.7181 39.042 22.7792 39.9975C22.8403 40.9566 23.6198 41.5991 24.7012 41.5788C30.1339 41.4806 34.7722 36.97 34.9537 31.6077C35.0018 30.1986 34.5019 29.4598 33.4502 29.3857L33.4539 29.3876Z" fill="#40C79E"/>
</svg>
