<svg width="18" height="22" viewBox="0 0 18 22" fill="none" xmlns="http://www.w3.org/2000/svg">
<g clip-path="url(#clip0_288_59569)">
<path d="M8.08962 18.9579C8.07693 18.937 7.44627 19.1967 6.94921 19.3744C6.073 19.6878 5.37741 19.5244 6.67007 18.7907C8.17023 17.9384 11.5019 16.5397 11.631 15.5434C11.7094 14.947 12.3818 14.2022 13.0954 13.4111C13.6096 12.8438 14.1447 12.2498 14.4768 11.6907C15.2762 10.3473 15.5874 9.08451 15.5434 7.94633C15.5008 6.93504 15.1791 6.023 14.6657 5.24457C14.1514 4.46389 13.4469 3.81681 12.6431 3.3384C11.5728 2.70177 10.3309 2.36741 9.13749 2.41368C7.68585 2.47264 6.35959 2.80103 5.2662 3.35333C4.30789 3.83547 3.52946 4.48553 3.0003 5.27218C2.47338 6.05286 2.19424 6.97086 2.23679 7.99111C2.26888 8.79269 2.49726 9.65845 2.95626 10.572C3.31152 11.2765 3.97577 11.9452 4.66763 12.6408C5.87372 13.8529 7.45374 15.3471 7.22088 17.3376C6.49767 15.9203 6.05956 15.7188 4.5721 14.6806C3.18614 13.7118 1.63374 12.8192 0.744843 11.0287C0.212699 9.95549 -0.0201601 8.85986 0.00148391 7.79109C0.0268596 6.3611 0.505267 4.98558 1.31729 3.80114C2.12782 2.61818 3.27197 1.62181 4.63255 0.947114C5.89089 0.32317 7.33432 -0.0276118 8.87179 0.00149562C10.0816 0.0246323 11.2138 0.253014 12.2311 0.648576C13.8432 1.27476 15.1762 2.31815 16.0964 3.60858C17.0189 4.90349 17.5286 6.44767 17.4973 8.07694C17.4801 8.95091 17.3092 9.84951 16.9599 10.7444C16.5241 11.8654 15.1553 13.2872 14.1544 14.3216C13.9537 14.5291 13.7693 14.7217 13.6066 14.897C13.3058 15.2187 13.0864 15.462 12.961 15.7225C12.5423 16.6114 12.7513 16.842 12.705 17.1465C12.6647 17.413 12.4468 17.76 11.125 18.3675C8.49563 19.5736 12.3714 18.1817 12.7244 18.1451C12.9998 18.1153 13.1177 18.2743 13.0759 18.5362C12.9677 19.1855 11.5862 19.7125 11.134 19.9476C11.2944 20.0386 12.8289 19.6722 12.8453 19.9476C12.852 20.07 12.6252 20.2879 11.9631 20.667C11.9296 20.6864 11.5885 20.8872 11.1422 21.126C9.92115 21.7821 7.92841 22.7337 9.40916 21.0798C9.21063 21.1096 5.5013 22.4866 7.43732 20.932C7.55599 20.835 7.97021 20.6058 8.40607 20.3715C3.8362 21.8821 8.13291 19.0363 8.08887 18.9579H8.08962ZM13.3252 5.27367C13.3252 8.71806 12.7647 11.6564 8.75088 12.1259C8.79342 12.0453 6.80218 7.02311 13.3252 5.27367ZM4.46985 7.90976C6.80143 8.14486 8.60833 9.74577 8.05828 12.255C6.31705 12.6632 5.47742 11.6094 5.10499 10.6153C4.6945 9.50843 4.84078 8.40235 4.4706 7.90902L4.46985 7.90976Z" fill="#CECECE"/>
</g>
<defs>
<clipPath id="clip0_288_59569">
<rect width="17.4988" height="22" fill="white"/>
</clipPath>
</defs>
</svg>
