<svg width="50" height="51" viewBox="0 0 50 51" fill="none" xmlns="http://www.w3.org/2000/svg">
<path d="M46.3504 8.53118C42.1819 8.51798 37.7466 8.7061 33.5312 10.1698C29.403 11.6038 27.1106 13.8579 26.3219 17.2672C25.6977 19.9636 25.9024 22.5758 26.9294 25.0329C27.062 25.3514 27.0385 25.4619 26.8891 25.6831C25.701 27.4323 24.7243 29.391 23.9188 31.6352C23.303 29.0197 22.4253 25.9867 21.0543 23.0758C21.0576 23.023 21.0845 22.8877 21.1852 22.6666C21.3261 22.3547 21.4906 22.0494 21.6651 21.7276C21.9772 21.15 22.2994 20.5527 22.4874 19.8959C23.0059 18.084 23.4406 15.348 22.5646 12.6055C21.7104 9.92722 19.8376 7.94702 16.9982 6.71929C12.1384 4.61697 6.99491 4.4734 2.55459 4.50311C1.65007 4.50971 1.04427 5.14502 1.01238 6.12523C0.993926 6.69619 0.995604 7.3018 1.02078 7.92391C1.16845 11.749 1.44534 15.8002 3.03789 19.584C4.518 23.0989 6.81032 25.1385 10.0474 25.82C12.3431 26.3035 14.5834 26.2227 16.7096 25.5791C17.2063 25.4289 17.6745 25.2491 18.1713 25.061C18.225 25.0412 18.277 25.0197 18.3307 24.9999C18.381 25.1105 18.4297 25.2194 18.4767 25.3283C20.2035 29.2953 21.1936 33.6848 21.593 39.1419C21.6853 40.4158 21.7205 41.7211 21.7557 42.9851C21.7692 43.4835 21.7826 43.9818 21.7994 44.4802C21.8447 45.7987 22.3867 46.4785 23.4154 46.5C23.4305 46.5 23.4456 46.5 23.459 46.5C23.8937 46.5 24.2528 46.368 24.5297 46.1073C24.8955 45.7624 25.0801 45.2129 25.0952 44.429C25.0952 44.3927 25.0952 44.3548 25.0952 44.3168C25.0952 44.2838 25.0919 44.2492 25.0952 44.2162C25.1858 43.4059 25.2647 42.5808 25.3402 41.7855C25.5131 39.9818 25.6926 38.1171 26.0098 36.3201C26.5149 33.462 27.5872 30.7078 29.1982 28.1237C29.2066 28.1286 29.2133 28.1336 29.2217 28.1402C29.6094 28.3976 30.0105 28.6633 30.4417 28.8795C31.2103 29.2639 31.853 29.5148 32.4639 29.6682C34.3501 30.1451 37.1727 30.5247 39.9114 29.6303C42.5796 28.7573 44.5582 26.8943 45.7899 24.0907C47.8271 19.4537 47.9983 14.6203 48 10.0658C48 9.16484 47.3204 8.53448 46.3487 8.53118H46.3504ZM35.7564 21.4091C36.5552 20.8992 37.4261 20.4438 38.1947 20.0411C38.7585 19.7458 40.0792 19.056 39.3929 17.7028C39.0572 17.0395 38.3105 16.4157 36.6659 17.2111C33.9104 18.5444 31.5006 20.2887 29.4986 22.4009C28.7032 19.8415 29.648 16.1748 31.6517 14.6929C32.9254 13.7507 34.486 13.0873 36.5602 12.6055C38.9264 12.0559 41.4721 11.7853 44.7461 11.7408C44.7327 12.013 44.7193 12.2837 44.7058 12.5526C44.6538 13.6022 44.6051 14.5939 44.5179 15.5972C44.2662 18.4652 43.7829 20.5956 42.9488 22.5032C42.051 24.556 40.2689 26.1039 38.0554 26.7507C35.8151 27.4059 33.4238 27.056 31.4939 25.7936C31.3664 25.7095 31.2405 25.6088 31.1046 25.495C32.3733 23.9322 33.8987 22.5906 35.7547 21.4075L35.7564 21.4091ZM9.74201 13.2441C9.12614 13.9866 9.23354 14.9041 10.0072 15.5263C10.4502 15.8827 10.915 16.2094 11.3664 16.5246C11.5695 16.6665 11.7709 16.8084 11.9722 16.9537C13.8954 18.3415 15.4728 20.0395 16.7801 22.1336C14.9006 23.0824 12.7375 23.2738 10.7573 22.6468C8.65458 21.9817 6.95128 20.4487 6.08033 18.4421C4.76468 15.4058 4.49618 12.1649 4.3334 9.10379C4.31159 8.69454 4.31662 8.2853 4.32333 7.81005C4.32333 7.76385 4.32333 7.71764 4.32501 7.67144C4.63714 7.68629 4.9476 7.69949 5.25134 7.71269C6.40086 7.7622 7.48493 7.8084 8.56564 7.96187C10.3126 8.20939 12.3347 8.52128 14.236 9.09719C18.9432 10.5229 20.6247 13.7556 19.3728 18.9801C19.3141 19.2226 19.2234 19.4669 19.1127 19.7325C17.495 17.2688 15.2798 15.1847 11.9571 12.9998C11.1399 12.4635 10.3126 12.5543 9.74201 13.2424V13.2441Z" fill="#40C79E"/>
</svg>
