<svg width="32" height="32" viewBox="0 0 32 32" fill="none" xmlns="http://www.w3.org/2000/svg">
<g clip-path="url(#clip0_39_22)">
<path d="M1.66377 27.2611H30.3362C31.258 27.209 32 26.4379 32 25.5046V6.75654C32 5.79421 31.2174 5.0058 30.2551 5H1.74493C0.782609 5.0058 0 5.79421 0 6.75654V25.4988C0 26.4379 0.742029 27.209 1.66377 27.2611Z" fill="#FEFEFE"/>
<path d="M13.7623 18.3509V27.2611H18.2145V18.3509H32V13.8987H18.2145V5H13.7623V13.8987H0V18.3509H13.7623Z" fill="#C8102E"/>
<path d="M19.6992 12.2059V5H30.2673C30.9978 5.01159 31.6239 5.46957 31.8789 6.11306L19.6992 12.2059Z" fill="#012169"/>
<path d="M19.6992 20.0552V27.2611H30.3369C31.0384 27.2205 31.6297 26.7683 31.8789 26.148L19.6992 20.0552Z" fill="#012169"/>
<path d="M12.2796 20.0552V27.2611H1.66508C0.963627 27.2205 0.366525 26.7683 0.123047 26.1364L12.2796 20.0552Z" fill="#012169"/>
<path d="M12.2796 12.2059V5H1.73464C1.00421 5.01159 0.372322 5.47537 0.123047 6.12465L12.2796 12.2059Z" fill="#012169"/>
<path d="M0 12.4203H4.43478L0 10.2V12.4203Z" fill="#012169"/>
<path d="M31.999 12.4204H27.541L31.999 10.1885V12.4204Z" fill="#012169"/>
<path d="M31.999 19.8408H27.541L31.999 22.0727V19.8408Z" fill="#012169"/>
<path d="M0 19.8408H4.43478L0 22.0611V19.8408Z" fill="#012169"/>
<path d="M32.0005 6.88403L20.957 12.4203H23.4266L32.0005 8.13042V6.88403Z" fill="#C8102E"/>
<path d="M11.0203 19.8408H8.55072L0 24.1191V25.3655L11.0435 19.8408H11.0203Z" fill="#C8102E"/>
<path d="M6.09855 12.4261H8.56812L0 8.13623V9.37682L6.09855 12.4261Z" fill="#C8102E"/>
<path d="M25.8719 19.835H23.4023L31.9994 24.1423V22.9017L25.8719 19.835Z" fill="#C8102E"/>
</g>
<defs>
<clipPath id="clip0_39_22">
<rect width="32" height="32" fill="white"/>
</clipPath>
</defs>
</svg>
