<svg width="25" height="16" viewBox="0 0 25 16" fill="none" xmlns="http://www.w3.org/2000/svg">
<path d="M0.46875 8.56229C0.46875 8.22153 0.719958 7.93992 1.04588 7.89535L1.13649 7.8892L21.74 7.88955L14.9997 1.15006C14.7384 0.887769 14.7375 0.461596 14.9977 0.198172C15.2343 -0.0413036 15.6052 -0.0638371 15.867 0.131109L15.942 0.196121L23.8279 8.08496L23.8411 8.09914C23.8548 8.11367 23.8678 8.12882 23.8802 8.14454L23.8279 8.08496C23.8538 8.11101 23.8772 8.13867 23.898 8.16763C23.9106 8.18582 23.9228 8.20471 23.9341 8.22422C23.9595 8.26763 23.9793 8.31307 23.9938 8.35978C23.9987 8.37625 24.0033 8.39307 24.0072 8.41013C24.0104 8.42316 24.013 8.4364 24.0152 8.4497C24.0174 8.4641 24.0193 8.47852 24.0208 8.49307C24.0225 8.50767 24.0235 8.5226 24.024 8.53755C24.0242 8.54583 24.0243 8.55404 24.0243 8.56229L24.0241 8.58464C24.0236 8.60122 24.0224 8.61778 24.0206 8.63429L24.0243 8.56229C24.0243 8.60073 24.0211 8.63841 24.015 8.67509C24.0122 8.69179 24.0088 8.70858 24.0046 8.72523C24.0013 8.73847 23.9977 8.75146 23.9937 8.76429C23.989 8.77953 23.9836 8.79488 23.9776 8.81007C23.9714 8.82574 23.9647 8.84106 23.9575 8.85607C23.952 8.86755 23.9459 8.87939 23.9394 8.89108C23.9271 8.91301 23.9141 8.93359 23.9001 8.95337C23.8979 8.95646 23.8954 8.95988 23.8929 8.96327C23.8706 8.99332 23.8476 9.01982 23.8226 9.04436L15.9421 15.8038C15.6808 16.0662 15.258 16.0653 14.9977 15.8019C14.7612 15.5624 14.7404 15.1884 14.9349 14.9253L14.9997 14.85L21.7391 9.23602L1.13649 9.23538C0.767709 9.23538 0.46875 8.93403 0.46875 8.56229Z" fill="white"/>
</svg>
