<svg width="20" height="20" viewBox="0 0 20 20" fill="none" xmlns="http://www.w3.org/2000/svg">
<g clip-path="url(#clip0_493_7909)">
<circle cx="10" cy="10" r="10" fill="url(#paint0_linear_493_7909)"/>
<path d="M14.1818 14.3587C12.6031 14.9239 11.3049 14.6172 10.4942 14.2604C9.74681 13.9314 9.08484 13.4165 8.63841 12.8298H12.7986V10.4987H7.6812C7.63938 10.1579 7.63974 9.82508 7.68227 9.49192H12.8004V7.16363H8.63162C9.0298 6.65781 9.64422 6.15164 10.2533 5.8494C11.515 5.22373 12.8011 5.15633 14.184 5.64304L14.5575 5.77436L15 3.54994L14.7162 3.45927C14.6261 3.43043 14.5368 3.40056 14.4478 3.37033C14.2401 3.3005 14.0253 3.22824 13.804 3.17266C13.5899 3.11881 13.3751 3.08372 13.1674 3.05003C13.0795 3.03578 12.9916 3.02119 12.904 3.00556L12.8733 3H12.0162L11.9933 3.00313C11.9139 3.01355 11.8342 3.02328 11.7545 3.033C11.5783 3.05454 11.396 3.07678 11.2144 3.10769C9.62885 3.37867 8.26096 4.10961 7.14863 5.27966C6.61927 5.83689 6.19249 6.47195 5.87903 7.16988C5.54125 7.1678 5.20062 7.16814 4.86999 7.16849C4.74418 7.16849 4.618 7.16849 4.49219 7.16849H4.00071V9.49192H5.28175V10.4987H4V12.8315H4.47896C4.60585 12.8315 4.73274 12.8315 4.85963 12.8315C5.19454 12.8319 5.53946 12.8322 5.88188 12.8301C6.76296 14.7064 8.23022 15.995 10.2444 16.6609C10.7558 16.8301 11.3081 16.9364 11.885 16.9771C11.8925 16.9778 11.9132 16.9819 11.9282 16.9851C11.945 16.9885 11.9622 16.992 11.979 16.9948L12.0086 17H12.8411L12.8668 16.9962C12.8869 16.9931 12.9065 16.9899 12.9265 16.9865C12.9598 16.9809 12.9909 16.9757 13.017 16.9733C13.6525 16.9149 14.2412 16.7117 14.7334 16.5206L14.9943 16.4191L14.5561 14.2242L14.1815 14.3583L14.1818 14.3587Z" fill="white"/>
</g>
<defs>
<linearGradient id="paint0_linear_493_7909" x1="18.3333" y1="15.5556" x2="3.88889" y2="4.44444" gradientUnits="userSpaceOnUse">
<stop stop-color="#00A174"/>
<stop offset="1" stop-color="#00D1AB"/>
</linearGradient>
<clipPath id="clip0_493_7909">
<rect width="20" height="20" fill="white"/>
</clipPath>
</defs>
</svg>
