<svg width="34" height="34" viewBox="0 0 34 34" fill="none" xmlns="http://www.w3.org/2000/svg">
<g clip-path="url(#clip0_523_22336)">
<path d="M11.2774 31.8399V29.6676C11.2774 29.341 10.8516 29.2159 10.6746 29.4906C9.74602 30.9334 8.84414 32.3351 7.92165 33.7673C7.79423 33.9649 7.50657 33.9687 7.37457 33.7741C6.93965 33.1324 6.52533 32.5403 6.15603 31.9223C4.76734 29.5989 3.34813 27.2908 2.05177 24.9171C1.3681 23.6649 0.811101 22.3197 0.377708 20.9593C-0.536385 18.0903 0.244943 15.5709 2.34019 13.4894C4.60558 11.2385 7.90257 10.7166 10.8173 12.0289C11.0332 12.1259 11.2774 11.9679 11.2774 11.7314V2.31804C11.2774 2.13721 11.4239 1.99071 11.6047 1.99071H15.0078C15.1886 1.99071 15.3351 1.84421 15.3351 1.66337V0.327334C15.3351 0.146499 15.4816 0 15.6624 0H29.6943C29.8752 0 30.0217 0.146499 30.0217 0.327334V1.65117C30.0217 1.832 30.1681 1.9785 30.349 1.9785H33.6734C33.8543 1.9785 34.0008 2.125 34.0008 2.30583V31.8399C34.0008 32.0207 33.8543 32.1672 33.6734 32.1672H11.6047C11.4239 32.1672 11.2774 32.0207 11.2774 31.8399ZM32.007 29.8568V4.30341C32.007 4.12258 31.8605 3.97608 31.6797 3.97608H28.3361C28.1553 3.97608 28.0088 3.82958 28.0088 3.64874V2.32644C28.0088 2.1456 27.8623 1.9991 27.6815 1.9991H17.657C17.4761 1.9991 17.3296 2.1456 17.3296 2.32644V3.67774C17.3296 3.85857 17.1831 4.00507 17.0023 4.00507H13.6023C13.4215 4.00507 13.275 4.15157 13.275 4.33241V4.48806C13.275 7.43788 13.2795 10.3885 13.2689 13.3383C13.2681 13.6618 13.3581 13.9037 13.5581 14.1616C15.1802 16.25 15.7365 18.5665 14.8605 21.1088C14.4477 22.3068 13.8861 23.4521 13.4016 24.6256C13.3314 24.7957 13.2811 24.9888 13.2803 25.1711C13.2712 26.7223 13.2742 28.2736 13.2757 29.8255C13.2757 29.8316 13.2757 29.8385 13.2757 29.8446C13.2788 30.0224 13.426 30.1636 13.6031 30.1636H21.4209C21.6018 30.1636 21.7483 30.0171 21.7483 29.8362V26.4095C21.7483 26.2287 21.8948 26.0822 22.0756 26.0822H23.4185C23.5993 26.0822 23.7451 26.2287 23.7458 26.4095C23.7474 27.5464 23.7565 28.6589 23.7374 29.7706C23.7313 30.1117 23.8321 30.1964 24.1655 30.1948C26.6453 30.1811 29.1251 30.188 31.6057 30.1864C31.6339 30.1864 31.6621 30.1864 31.6911 30.1849C31.8674 30.1788 32.007 30.0338 32.007 29.8576V29.8568ZM7.35854 30.1254C7.48673 30.3284 7.78278 30.3299 7.91173 30.1277C8.12003 29.8011 8.31155 29.5013 8.49696 29.1983C10.0535 26.6499 11.5567 24.0762 12.6951 21.3004C13.5527 19.2082 13.4405 17.2678 12.0381 15.4511C9.70024 12.4234 4.85432 12.705 2.86285 15.9684C1.78776 17.731 1.83354 19.5096 2.60037 21.3637C3.63274 23.8626 4.96115 26.2004 6.35213 28.5086C6.67336 29.0419 7.00756 29.5684 7.35931 30.1262L7.35854 30.1254Z" fill="#2EC8A1"/>
<path d="M21.755 4.9986V6.6429C21.755 6.82221 21.9 6.96718 22.0793 6.96718H23.397C23.5763 6.96718 23.7213 6.82221 23.7213 6.6429V4.99936C23.7213 4.82005 23.8663 4.67508 24.0456 4.67508H25.4343C25.6105 4.67508 25.7548 4.81547 25.7593 4.99097C25.7593 5.00165 25.7593 5.01233 25.7593 5.02302C25.7609 6.99236 25.754 8.9617 25.767 10.9303C25.7692 11.2477 25.6784 11.3507 25.3603 11.3354C24.9437 11.3156 24.5263 11.3232 24.0837 11.3271C23.9037 11.3286 23.7564 11.1828 23.7564 11.0028V9.33253C23.7564 9.15322 23.6114 9.00825 23.4321 9.00825H22.0709C21.8916 9.00825 21.7466 9.15322 21.7466 9.33253V10.9822C21.7466 11.1615 21.6017 11.3065 21.4223 11.3065H20.1092C19.9299 11.3065 19.7849 11.1615 19.7849 10.9822V4.9986C19.7849 4.81929 19.9299 4.67432 20.1092 4.67432H21.4307C21.61 4.67432 21.755 4.81929 21.755 4.9986Z" fill="#2EC8A1"/>
<path d="M19.4028 14.022H18.1094C17.9303 14.022 17.7852 14.1672 17.7852 14.3463V15.651C17.7852 15.8301 17.9303 15.9753 18.1094 15.9753H19.4028C19.5818 15.9753 19.727 15.8301 19.727 15.651V14.3463C19.727 14.1672 19.5818 14.022 19.4028 14.022Z" fill="#2EC8A1"/>
<path d="M23.3911 14.0112H22.0909C21.9118 14.0112 21.7666 14.1564 21.7666 14.3355V15.641C21.7666 15.8201 21.9118 15.9653 22.0909 15.9653H23.3911C23.5702 15.9653 23.7153 15.8201 23.7153 15.641V14.3355C23.7153 14.1564 23.5702 14.0112 23.3911 14.0112Z" fill="#2EC8A1"/>
<path d="M27.4198 14.0166H26.1151C25.936 14.0166 25.7908 14.1618 25.7908 14.3409V15.6502C25.7908 15.8293 25.936 15.9745 26.1151 15.9745H27.4198C27.5989 15.9745 27.7441 15.8293 27.7441 15.6502V14.3409C27.7441 14.1618 27.5989 14.0166 27.4198 14.0166Z" fill="#2EC8A1"/>
<path d="M19.4065 17.9224H18.1041C17.925 17.9224 17.7798 18.0675 17.7798 18.2466V19.5567C17.7798 19.7358 17.925 19.881 18.1041 19.881H19.4065C19.5856 19.881 19.7308 19.7358 19.7308 19.5567V18.2466C19.7308 18.0675 19.5856 17.9224 19.4065 17.9224Z" fill="#2EC8A1"/>
<path d="M23.4048 17.9255H22.0963C21.9172 17.9255 21.772 18.0707 21.772 18.2498V19.5462C21.772 19.7253 21.9172 19.8705 22.0963 19.8705H23.4048C23.5839 19.8705 23.7291 19.7253 23.7291 19.5462V18.2498C23.7291 18.0707 23.5839 17.9255 23.4048 17.9255Z" fill="#2EC8A1"/>
<path d="M27.4145 17.927H26.1212C25.9421 17.927 25.7969 18.0722 25.7969 18.2513V19.5522C25.7969 19.7313 25.9421 19.8765 26.1212 19.8765H27.4145C27.5936 19.8765 27.7388 19.7313 27.7388 19.5522V18.2513C27.7388 18.0722 27.5936 17.927 27.4145 17.927Z" fill="#2EC8A1"/>
<path d="M19.4005 21.9246H18.0965C17.9174 21.9246 17.7722 22.0697 17.7722 22.2488V23.5361C17.7722 23.7151 17.9174 23.8603 18.0965 23.8603H19.4005C19.5796 23.8603 19.7248 23.7151 19.7248 23.5361V22.2488C19.7248 22.0697 19.5796 21.9246 19.4005 21.9246Z" fill="#2EC8A1"/>
<path d="M23.4026 21.9253H22.0894C21.9103 21.9253 21.7651 22.0705 21.7651 22.2496V23.5421C21.7651 23.7212 21.9103 23.8664 22.0894 23.8664H23.4026C23.5817 23.8664 23.7269 23.7212 23.7269 23.5421V22.2496C23.7269 22.0705 23.5817 21.9253 23.4026 21.9253Z" fill="#2EC8A1"/>
<path d="M27.4136 21.9238H26.1065C25.9274 21.9238 25.7822 22.069 25.7822 22.2481V23.5445C25.7822 23.7236 25.9274 23.8688 26.1065 23.8688H27.4136C27.5927 23.8688 27.7378 23.7236 27.7378 23.5445V22.2481C27.7378 22.069 27.5927 21.9238 27.4136 21.9238Z" fill="#2EC8A1"/>
<path d="M7.62027 22.6722C5.57234 22.6638 3.91049 20.9874 3.92193 18.9425C3.93338 16.8954 5.61049 15.2335 7.65385 15.2442C9.69644 15.2549 11.3621 16.935 11.3537 18.9769C11.3461 21.0195 9.66668 22.6805 7.61951 22.6722H7.62027ZM9.33858 18.9753C9.34774 18.0261 8.61601 17.2753 7.66224 17.2563C6.7222 17.2372 5.95308 17.9804 5.9363 18.9242C5.91951 19.8887 6.67108 20.6601 7.63019 20.6631C8.5771 20.6662 9.32943 19.923 9.33858 18.9753Z" fill="#2EC8A1"/>
</g>
<defs>
<clipPath id="clip0_523_22336">
<rect width="34" height="33.9176" fill="white"/>
</clipPath>
</defs>
</svg>
