<svg width="34" height="34" viewBox="0 0 34 34" fill="none" xmlns="http://www.w3.org/2000/svg">
<g clip-path="url(#clip0_89_6413)">
<path d="M33.6547 16.1758C33.5723 16.0825 33.475 15.9891 33.3777 15.9029L33.2878 15.8167C28.2722 10.9974 23.2566 6.18523 18.241 1.38027C17.2678 0.446568 16.7363 0.446568 15.7631 1.38027L0.776205 15.7592C-0.069711 16.5709 -0.211945 17.1742 0.289616 17.7703C0.806149 18.3808 1.44994 18.3377 2.52044 17.6338L2.64022 17.5548V31.5962C2.64022 32.9968 2.98457 33.32 4.4668 33.32H29.6721C31.0046 33.32 31.3714 32.9681 31.3714 31.6681C31.3714 28.515 31.3714 25.362 31.3714 22.209V17.5046L31.4912 17.5979C31.5736 17.6626 31.6409 17.7128 31.7008 17.7559C31.8056 17.8349 31.8805 17.8924 31.9553 17.9427C32.5392 18.3377 33.213 18.2946 33.6621 17.8206C34.1188 17.3465 34.1113 16.7001 33.6472 16.1758H33.6547ZM20.936 30.8708H13.0757V23.2791H20.936V30.8708ZM28.8412 28.3283V30.4758C28.8412 30.5333 28.8412 30.5907 28.8262 30.6625C28.8262 30.6985 28.8187 30.7415 28.8112 30.7846V30.8493H23.4887V27.8758C23.4887 26.0299 23.4887 24.1913 23.4887 22.3454C23.4887 21.2322 23.062 20.8228 21.9166 20.8228C18.4356 20.8228 15.2092 20.8228 12.0501 20.8228C10.9422 20.8228 10.508 21.2394 10.5005 22.3095C10.5005 24.141 10.5005 25.9725 10.5005 27.804V30.8565H5.15551V26.9636C5.15551 23.2576 5.15551 19.4294 5.14802 15.6659C5.14802 15.1775 5.29026 14.8399 5.64958 14.4952C9.06319 11.2416 12.5217 7.91617 15.868 4.70568L16.4519 4.13827C16.5417 4.05209 16.6166 3.95153 16.6989 3.83662C16.7438 3.77916 16.7887 3.71452 16.8336 3.65706L16.8786 3.5996L16.9384 3.64269C17.0133 3.70015 17.0807 3.75043 17.1406 3.79352C17.2529 3.87971 17.3427 3.94435 17.4176 4.01617L18.1287 4.69849C21.5124 7.9449 25.0158 11.299 28.4444 14.6101C28.669 14.8255 28.8187 15.1559 28.8262 15.4217C28.8412 19.7167 28.8412 24.0835 28.8412 28.3139V28.3283Z" fill="#40C79E"/>
</g>
<defs>
<clipPath id="clip0_89_6413">
<rect width="34" height="34" fill="white"/>
</clipPath>
</defs>
</svg>
