<svg width="34" height="34" viewBox="0 0 34 34" fill="none" xmlns="http://www.w3.org/2000/svg">
<g clip-path="url(#clip0_89_6416)">
<path d="M8.78162 3.46939H10.7794V6.27005H23.2268V3.46939H25.2246C25.2246 4.40929 25.1935 5.34285 25.237 6.27005C25.2619 6.79716 25.3366 7.34332 25.5296 7.82597C28.2244 14.6657 30.9442 21.4927 33.639 28.3324C33.8569 28.8912 33.8817 29.5263 34.0062 30.1931H0C0.124474 29.5263 0.149368 28.8912 0.367197 28.3324C3.00604 21.6197 5.66978 14.907 8.34596 8.20701C8.65092 7.44493 8.83141 6.6892 8.78785 5.8636C8.7505 5.08247 8.78162 4.30133 8.78162 3.46939V3.46939ZM11.296 8.33403C11.3458 8.52455 11.3582 8.61346 11.3893 8.68967C13.9099 15.0404 16.4368 21.3847 18.9387 27.7418C19.1192 28.1927 19.3992 28.1927 19.7602 28.1927C23.4073 28.1927 27.0544 28.1927 30.7077 28.1927C30.9193 28.1927 31.1309 28.1927 31.4047 28.1927C31.3363 27.9577 31.2989 27.8053 31.2429 27.6656C28.7472 21.3784 26.2453 15.0912 23.762 8.79763C23.6127 8.41024 23.4073 8.32133 23.0339 8.32133C20.8556 8.33403 18.6835 8.32768 16.5052 8.32768C14.7937 8.32768 13.0822 8.32768 11.2898 8.32768L11.296 8.33403ZM8.74428 28.1482V12.8938C8.70694 12.8811 8.67582 12.8748 8.63848 12.8621C6.622 17.9426 4.60553 23.0168 2.57038 28.1482H8.74428V28.1482ZM16.9658 28.1609C14.9182 22.9978 12.9141 17.9553 10.9101 12.9129C10.879 12.9256 10.8479 12.9383 10.8168 12.951V28.1609H16.9658Z" fill="#40C79E"/>
</g>
<defs>
<clipPath id="clip0_89_6416">
<rect width="34" height="34" fill="white"/>
</clipPath>
</defs>
</svg>
