<svg width="34" height="34" viewBox="0 0 34 34" fill="none" xmlns="http://www.w3.org/2000/svg">
<g clip-path="url(#clip0_89_6414)">
<path d="M32.6472 31.3372C31.9876 31.3296 31.3281 31.3372 30.6955 31.3372C30.6551 31.2155 30.6282 31.1622 30.6147 31.1166C29.9485 26.0421 27.6064 22.3522 23.5146 20.1002C23.3598 20.0165 23.1983 19.7351 23.205 19.5525C23.3329 16.7223 23.8376 13.9986 25.1567 11.5337C25.399 11.0772 25.6951 10.9555 26.1258 11.0315C27.1959 11.2217 28.0573 11.7771 28.7371 12.7357C29.1207 13.2759 29.6523 13.3824 30.1975 13.0857C30.6955 12.8118 30.9108 12.3021 30.7897 11.701C30.7224 11.3663 30.5542 11.0087 30.3321 10.7805C29.6658 10.0805 28.9457 9.44147 28.2525 8.77958C28.9188 8.66546 29.5783 8.71111 30.2311 8.84044C30.9714 8.97739 31.5704 8.65025 31.7521 7.91988C31.9204 7.24277 31.6108 6.51241 30.9243 6.30699C30.2244 6.10158 29.4437 5.84291 28.764 5.98746C27.5391 6.25374 26.3614 6.80912 25.0692 7.2732C23.9251 5.5538 22.2291 4.75497 20.1159 5.12776C19.2477 5.27992 18.7766 5.86573 18.8709 6.64174C18.9718 7.4634 19.5842 7.85141 20.4726 7.76772C20.9975 7.71447 21.5359 7.80576 22.1416 7.8438C21.1591 8.48287 20.2909 8.96978 19.4968 9.58603C18.7766 10.149 18.6757 10.9555 19.1131 11.5945C19.5641 12.2564 20.2438 12.2336 20.9975 11.6478C21.5158 11.2446 22.108 10.9555 22.6666 10.6131C22.707 10.6816 22.7473 10.75 22.7877 10.8185C21.5763 13.4052 21.0918 16.2202 20.836 18.921H15.4386C15.0078 16.7908 14.7184 14.8127 14.2002 12.9107C13.6888 11.0239 12.9552 9.21324 12.3226 7.3645C13.3455 7.2656 14.3281 7.58513 15.2165 8.23181C15.6674 8.55895 16.051 9.00021 16.4884 9.36539C17.0268 9.81426 17.6729 9.74579 18.0767 9.19802C18.494 8.63503 18.5007 8.02639 18.0835 7.4558C17.8816 7.18191 17.6325 6.93845 17.3903 6.71021C15.9971 5.37882 14.3954 4.66367 12.4437 4.64085C13.11 3.65942 13.8503 3.02035 14.7992 2.86819C15.5395 2.74646 16.3067 2.83776 17.0605 2.85298C17.7537 2.86819 18.2921 2.40411 18.3661 1.68896C18.4401 1.01185 18.0565 0.365171 17.4172 0.22062C14.9338 -0.34237 12.7264 0.197796 10.9833 2.41932C10.566 2.95188 10.2228 3.56052 9.86611 4.10068C9.09889 3.53769 8.37205 2.91384 7.57791 2.43454C5.65986 1.28573 3.66104 1.02706 1.61512 1.98567C0.955581 2.28999 0.672921 2.99753 0.881551 3.66703C1.09691 4.35175 1.69588 4.6865 2.38234 4.48869C2.57078 4.43543 2.75249 4.34414 2.94093 4.28327C4.55614 3.78115 5.96271 4.29088 7.35582 5.40164C7.03951 5.51576 6.83761 5.59184 6.62898 5.66792C4.91283 6.30699 3.56682 7.51666 2.51694 9.15998C2.05257 9.89034 2.13333 10.6968 2.68519 11.1457C3.23032 11.5945 3.91679 11.4348 4.42154 10.7272C4.5023 10.6207 4.5696 10.5066 4.65036 10.4001C5.72716 8.90131 7.12027 8.07204 8.81623 7.87423C9.36136 7.81337 9.75843 7.91988 10.0142 8.53613C10.5055 9.74579 11.1112 10.8946 11.5352 12.1347C12.2956 14.3638 12.7466 16.6843 12.9619 19.0732C7.32217 20.7621 4.06484 24.8324 3.1361 31.3296C2.5304 31.3296 1.94489 31.322 1.35938 31.3296C0.545051 31.3448 0.0201103 31.8469 -0.00680977 32.6153C-0.0337298 33.4066 0.524861 33.9924 1.35265 33.9924C11.7707 33.9924 22.1888 33.9924 32.6068 33.9924C33.4481 33.9924 33.9999 33.4218 33.9865 32.6306C33.973 31.8622 33.4413 31.3448 32.6337 31.3296L32.6472 31.3372ZM5.6464 31.2687C5.81465 27.0083 9.4152 22.512 13.2513 21.8653C13.2513 22.3978 13.2446 22.9152 13.2513 23.4325C13.2715 24.4748 13.7224 25.0987 14.4425 25.0987C15.1761 25.0987 15.6135 24.4824 15.6135 23.4401C15.6135 22.8391 15.6135 22.2305 15.6135 21.637C21.1456 20.9067 25.6884 22.9684 27.7343 28.9483C27.9766 29.6634 28.091 30.4395 28.2861 31.2687H5.6464Z" fill="#40C79E"/>
<path d="M3.2304 16.5321C3.37846 16.5473 3.52652 16.5245 3.66785 16.5169C4.23318 16.5017 4.69755 16.5321 4.81196 17.3918C4.89945 18.0765 5.42439 18.32 6.03009 18.3352C6.68963 18.358 7.38955 18.2667 7.51742 17.4603C7.67221 16.4636 8.19042 16.4941 8.82304 16.5169C9.6441 16.5473 10.169 16.0756 10.2162 15.2996C10.2633 14.5464 9.75851 13.9606 8.9711 13.8541C8.80285 13.8313 8.62114 13.7932 8.45962 13.8389C7.70586 14.0443 6.9521 14.478 6.2118 14.4551C5.44458 14.4247 4.69082 13.9606 4.09185 13.7476C3.54671 13.8541 3.19002 13.8693 2.87371 13.9987C2.29493 14.2421 2.04592 14.7747 2.1536 15.4594C2.25455 16.1061 2.63143 16.4712 3.21694 16.5245L3.2304 16.5321Z" fill="#40C79E"/>
<path d="M28.865 17.4146C28.192 16.8897 27.5661 16.2506 26.8527 15.817C26.1932 15.4137 25.5404 15.7713 25.2712 16.4789C25.0154 17.1484 25.2644 17.8255 25.8971 18.2059C26.0249 18.2819 26.1663 18.3352 26.2941 18.4189C26.7114 18.6852 27.021 18.9362 26.8124 19.6438C26.5633 20.473 27.0681 20.9523 27.7007 21.3023C28.2997 21.6371 28.8852 21.6827 29.289 21.0588C29.6322 20.5339 29.9553 20.6176 30.3523 20.8382C30.5744 20.9599 30.7696 21.1273 30.9984 21.2338C31.7724 21.5914 32.5867 20.9752 32.6002 19.7503C32.4857 19.5753 32.3242 19.058 32.0146 18.883C31.2811 18.4721 30.4735 18.2439 29.7063 17.9092C29.4169 17.7874 29.1342 17.62 28.8785 17.4222L28.865 17.4146Z" fill="#40C79E"/>
</g>
<defs>
<clipPath id="clip0_89_6414">
<rect width="34" height="34" fill="white"/>
</clipPath>
</defs>
</svg>
