<svg width="50" height="50" viewBox="0 0 50 50" fill="none" xmlns="http://www.w3.org/2000/svg">
<path d="M25.008 10.4083C25.6909 9.62228 26.0979 9.05763 26.5988 8.59241C30.6039 4.87811 36.3854 3.96079 41.3322 6.23252C46.2264 8.47798 49.2466 13.3572 49.0234 18.8067C48.879 22.3503 47.5715 25.4981 45.0446 27.9612C41.4672 31.4466 37.7511 34.797 34.0236 38.123C31.6244 40.2653 29.1013 42.2687 26.6213 44.321C25.5877 45.1764 24.5128 45.2439 23.5617 44.4166C17.6957 39.3085 11.8166 34.2173 6.0182 29.0323C3.31501 26.6105 1.64545 23.5584 1.12208 19.8929C0.0997047 12.7325 5.68241 5.69413 12.8972 5.08446C17.2868 4.71303 21.0142 6.06368 24.0963 9.2002C24.3777 9.48722 24.5859 9.84364 25.008 10.4083ZM44.7745 18.0076C44.7445 17.7056 44.737 17.1372 44.6244 16.5913C43.9134 13.1471 41.8706 10.8041 38.5502 9.71795C35.1548 8.60742 32.0727 9.36528 29.4239 11.7589C28.4972 12.5956 27.6531 13.5223 26.7582 14.3965C25.6308 15.4976 24.434 15.4995 23.3047 14.3965C22.4324 13.5467 21.6032 12.65 20.7103 11.8208C18.2641 9.55475 15.3884 8.71997 12.1412 9.53036C5.4104 11.2074 3.07302 19.1556 7.68588 24.6145C8.37059 25.4249 9.09656 26.2128 9.89007 26.9125C14.7393 31.1877 19.6204 35.4292 24.4734 39.7025C24.9555 40.1264 25.2481 39.9895 25.6552 39.6406C27.5086 38.0592 29.4258 36.5491 31.2379 34.9208C34.8359 31.6848 38.432 28.4395 41.9268 25.091C43.8234 23.2751 44.7388 20.9228 44.7763 18.0057L44.7745 18.0076Z" fill="#40C79E"/>
</svg>
