<svg width="32" height="32" viewBox="0 0 32 32" fill="none" xmlns="http://www.w3.org/2000/svg">
<g clip-path="url(#clip0_39_13)">
<path d="M1.49575 5H29.8667C30.3311 5.00137 30.7761 5.18665 31.1042 5.51528C31.4324 5.84392 31.617 6.28916 31.6177 6.75357V25.4307C31.6163 25.8947 31.4314 26.3392 31.1033 26.6673C30.7752 26.9954 30.3307 27.1803 29.8667 27.1817H1.49575C1.03134 27.181 0.586102 26.9964 0.257467 26.6682C-0.0711679 26.3401 -0.256441 25.8951 -0.257812 25.4307V6.75357C-0.257126 6.28871 -0.0721558 5.84308 0.256553 5.51437C0.585262 5.18566 1.03089 5.00069 1.49575 5Z" fill="#FF0000"/>
<path d="M31.6177 19.8509H-0.257812V6.75357C-0.257126 6.28871 -0.0721558 5.84308 0.256553 5.51437C0.585262 5.18566 1.03089 5.00069 1.49575 5H29.8667C30.3311 5.00137 30.7761 5.18665 31.1042 5.51528C31.4324 5.84392 31.617 6.28916 31.6177 6.75357V19.8535V19.8509Z" fill="#005CE5"/>
<path d="M31.6177 12.323H-0.257812V6.75357C-0.257126 6.28871 -0.0721558 5.84308 0.256553 5.51437C0.585262 5.18566 1.03089 5.00069 1.49575 5H29.8667C30.3311 5.00137 30.7761 5.18665 31.1042 5.51528C31.4324 5.84392 31.617 6.28916 31.6177 6.75357V12.323Z" fill="white"/>
<path fill-rule="evenodd" clip-rule="evenodd" d="M4.38447 8.7561H4.23402C3.35319 8.78191 2.48634 8.98297 1.68409 9.34755L1.47656 9.43574L1.69965 12.9533C1.74793 13.7183 2.03235 14.4495 2.51368 15.046C2.99501 15.6426 3.64956 16.0751 4.38707 16.284C5.12391 16.0743 5.77768 15.6415 6.25846 15.045C6.73924 14.4486 7.02341 13.7178 7.07189 12.9533L7.29498 9.44612C7.22762 9.40879 7.15835 9.37502 7.08746 9.34495C6.23881 8.96108 5.31849 8.76128 4.38707 8.7587L4.38447 8.7561Z" fill="#005CE5"/>
<path fill-rule="evenodd" clip-rule="evenodd" d="M4.38727 11.1895L3.72839 12.4735L3.31075 11.921L2.19531 13.3892C2.21347 13.48 2.23682 13.5682 2.26276 13.6486C2.32741 13.7738 2.42268 13.8806 2.53969 13.959C2.65671 14.0375 2.79167 14.0851 2.93202 14.0974C3.17326 14.0974 3.4171 13.9028 3.65835 13.9028C3.89959 13.9028 4.14343 14.0974 4.38727 14.0974C4.63111 14.0974 4.87236 13.9028 5.1136 13.9028C5.35485 13.9028 5.59868 14.0974 5.84252 14.0974C5.98152 14.085 6.11517 14.0379 6.23121 13.9604C6.34724 13.8829 6.44194 13.7775 6.5066 13.6538C6.53254 13.5656 6.55588 13.4791 6.57664 13.3944L5.46898 11.9288L5.04356 12.4813L4.38727 11.1895ZM3.65835 14.1026C3.4171 14.1026 3.17326 14.2971 2.93202 14.2971C2.75654 14.2962 2.58618 14.2379 2.44693 14.1311C2.49067 14.226 2.53915 14.3186 2.5922 14.4087C2.69343 14.4746 2.81123 14.5106 2.93202 14.5124C3.17326 14.5124 3.4171 14.3179 3.65835 14.3179C3.89959 14.3179 4.14343 14.5124 4.38727 14.5124C4.63111 14.5124 4.87236 14.3179 5.1136 14.3179C5.35485 14.3179 5.59868 14.5124 5.84252 14.5124C5.96127 14.5102 6.07709 14.4752 6.17715 14.4113C6.22903 14.3231 6.27573 14.2297 6.32242 14.1363C6.18385 14.24 6.0156 14.2964 5.84252 14.2971C5.59868 14.2971 5.35744 14.1026 5.1136 14.1026C4.86976 14.1026 4.62852 14.2971 4.38727 14.2971C4.14603 14.2971 3.90219 14.1026 3.65835 14.1026ZM3.65835 14.5124C3.4171 14.5124 3.17326 14.707 2.93202 14.707C2.88494 14.7062 2.83804 14.701 2.79194 14.6914C3.19942 15.221 3.7545 15.6181 4.38727 15.8328C5.02456 15.6174 5.58285 15.2163 5.99038 14.681C5.94181 14.6916 5.89223 14.6968 5.84252 14.6966C5.59868 14.6966 5.35744 14.502 5.1136 14.502C4.86976 14.502 4.62852 14.6966 4.38727 14.6966C4.14603 14.6966 3.90219 14.502 3.65835 14.502V14.5124Z" fill="white"/>
<path fill-rule="evenodd" clip-rule="evenodd" d="M3.29297 9.54209L3.38376 9.38386L3.29297 9.22562H3.47715L3.56794 9.06738L3.65873 9.22562H3.8429L3.75211 9.38386L3.8429 9.54209H3.65873L3.56794 9.70292L3.47715 9.54209H3.29297ZM4.11009 10.6446L4.20347 10.4837L4.11009 10.3255H4.29427L4.38506 10.1673L4.47844 10.3255H4.66002L4.56923 10.4837L4.66002 10.6446H4.47844L4.38506 10.8028L4.29427 10.6446H4.11009ZM4.9298 9.54469L5.02319 9.38645L4.9298 9.22821H5.12695L5.22034 9.06998L5.31113 9.22821H5.4953L5.40192 9.38645L5.4953 9.54469H5.31113L5.22034 9.70552L5.12695 9.54209L4.9298 9.54469Z" fill="#FFE500"/>
<path fill-rule="evenodd" clip-rule="evenodd" d="M1.68409 9.34756L1.47656 9.43576L1.69965 12.9533C1.74793 13.7183 2.03235 14.4495 2.51368 15.046C2.99501 15.6426 3.64956 16.0751 4.38707 16.284C5.12391 16.0744 5.77768 15.6415 6.25846 15.0451C6.73924 14.4486 7.02341 13.7179 7.07189 12.9533L7.29498 9.44614C7.22762 9.40881 7.15835 9.37504 7.08746 9.34497L6.87993 12.8366C6.8461 13.5666 6.58885 14.2686 6.143 14.8476C5.69714 15.4266 5.08419 15.8547 4.38707 16.0739C3.68947 15.8551 3.07595 15.4272 2.6296 14.8482C2.18325 14.2691 1.92563 13.5669 1.89161 12.8366L1.68409 9.34756Z" fill="#FF0000"/>
<path d="M1.49575 5H29.8667C30.3311 5.00137 30.7761 5.18665 31.1042 5.51528C31.4324 5.84392 31.617 6.28916 31.6177 6.75357V25.4307C31.6163 25.8947 31.4314 26.3392 31.1033 26.6673C30.7752 26.9954 30.3307 27.1803 29.8667 27.1817H1.49575C1.03134 27.181 0.586102 26.9964 0.257467 26.6682C-0.0711679 26.3401 -0.256441 25.8951 -0.257812 25.4307V6.75357C-0.257126 6.28871 -0.0721558 5.84308 0.256553 5.51437C0.585262 5.18566 1.03089 5.00069 1.49575 5Z" stroke="#CCCCCC" stroke-width="0.124514" stroke-miterlimit="22.93"/>
</g>
<defs>
<clipPath id="clip0_39_13">
<rect width="32" height="32" fill="white"/>
</clipPath>
</defs>
</svg>
