<svg width="34" height="34" viewBox="0 0 34 34" fill="none" xmlns="http://www.w3.org/2000/svg">
<path fill-rule="evenodd" clip-rule="evenodd" d="M28.9029 2.44934C30.0318 3.16403 30.6061 4.14934 30.5995 5.60648L30.5929 5.5926C30.5632 10.7967 30.5669 16.0047 30.5707 21.2107V21.211V21.2112V21.2119V21.2125C30.5719 22.9473 30.5731 24.6818 30.5731 26.4159C30.5731 28.6848 29.4575 29.8575 27.3185 29.8575H24.4798H23.615C24.2369 30.5596 24.8326 31.2324 25.4282 31.9051L25.431 31.9083C26.0294 32.5841 26.6277 33.2599 27.2525 33.9653C26.9989 33.9653 26.7546 33.9669 26.5172 33.9685H26.5171H26.517C25.9079 33.9726 25.344 33.9763 24.7835 33.9514C24.6458 33.9451 24.5027 33.7848 24.3837 33.6515L24.3477 33.6114C23.9983 33.2222 23.6521 32.8304 23.306 32.4388C22.6648 31.7133 22.024 30.9883 21.3638 30.2808C21.1591 30.0657 20.8092 29.8783 20.5188 29.8783C18.1686 29.8506 15.8118 29.8506 13.455 29.8783C13.2041 29.8783 12.8872 30.024 12.709 30.2183C12.2155 30.7471 11.7345 31.2889 11.2539 31.8303C10.7442 32.4044 10.235 32.978 9.7118 33.535C9.49394 33.771 9.12425 33.9236 8.80737 33.9583C8.37188 34.0065 7.9332 33.9978 7.43829 33.988H7.43817H7.43796H7.43775C7.22009 33.9837 6.99156 33.9791 6.74764 33.9791C7.74599 32.8572 8.68454 31.7982 9.6698 30.6865L10.3984 29.8644H9.3025C8.97217 29.8644 8.64257 29.8668 8.31322 29.8691H8.3131H8.31298C7.65509 29.8737 6.99818 29.8783 6.33834 29.8644C4.72752 29.8297 3.60524 28.7195 3.46 27.0473C3.43359 26.735 3.43359 26.4297 3.43359 26.1175C3.43359 24.2648 3.43761 22.4117 3.44163 20.5582C3.45218 15.6922 3.46274 10.8244 3.40059 5.96036C3.37418 3.96893 4.2324 2.82403 5.8036 2.03301C7.82372 1.02689 9.98247 0.575866 12.1808 0.305254C16.155 -0.173521 20.1161 -0.111072 24.0507 0.679948C25.7473 1.01995 27.4043 1.49178 28.9029 2.44934ZM27.3119 27.8799C28.388 27.8799 28.6785 27.5885 28.6785 26.4853L28.6719 26.4922C28.6745 23.6889 28.675 20.8844 28.6755 18.0798V18.0762V18.0761C28.6763 13.8705 28.6771 9.66437 28.6851 5.46076C28.6851 4.90566 28.52 4.48934 28.0645 4.26729C27.89 4.18114 27.7157 4.09248 27.5413 4.00371C26.8446 3.64923 26.1445 3.29302 25.4106 3.0877C20.466 1.72076 15.4685 1.71383 10.4578 2.61587C8.96581 2.87954 7.50023 3.28893 6.16669 4.09383C5.58574 4.44076 5.30847 4.87791 5.30847 5.63423C5.33415 11.031 5.33187 16.4319 5.32958 21.8338V21.8338V21.8338C5.32893 23.3773 5.32828 24.9209 5.32828 26.4644C5.32828 27.5885 5.60555 27.8799 6.66842 27.8799H16.9605H27.3119ZM26.7441 7.7298V15.4943C26.7441 16.4449 26.0113 17.222 25.1002 17.222H8.91289C8.00846 17.222 7.26907 16.4518 7.26907 15.4943V7.7298C7.26907 6.77919 8.00186 6.00204 8.91289 6.00204H25.1002C26.0047 6.00204 26.7441 6.77225 26.7441 7.7298ZM14.3923 15.2167C15.2967 15.2167 16.0361 14.4465 16.0361 13.489V9.75592C16.0361 8.80531 15.3033 8.02817 14.3923 8.02817H10.801C9.89654 8.02817 9.15716 8.79837 9.15716 9.75592V13.489C9.15716 14.4396 9.88994 15.2167 10.801 15.2167H14.3923ZM23.1923 15.2445C24.0968 15.2445 24.8362 14.4743 24.8362 13.5167V9.74204C24.8362 8.79143 24.1034 8.01429 23.1923 8.01429H19.6538C18.7494 8.01429 18.01 8.78449 18.01 9.74204V13.5167C18.01 14.4674 18.7428 15.2445 19.6538 15.2445H23.1923ZM10.0484 19.9212C8.51018 19.9351 7.25586 21.2465 7.24266 22.8702C7.22285 24.5147 8.49038 25.8747 10.055 25.8816C11.6196 25.8886 12.9003 24.5425 12.8937 22.898C12.8937 21.2535 11.6064 19.9074 10.0484 19.9212ZM10.0946 23.8902C9.57305 23.9041 9.13734 23.4531 9.13734 22.898C9.13734 22.3429 9.57965 21.8918 10.1012 21.9127C10.6029 21.9335 10.999 22.3776 10.9924 22.9049C10.9924 23.4323 10.5897 23.8694 10.088 23.8902H10.0946ZM21.126 22.8633C21.1524 21.2327 22.4067 19.9212 23.9449 19.9212V19.9282C25.5029 19.9212 26.7771 21.2743 26.7771 22.9188C26.7705 24.5633 25.4897 25.9025 23.9251 25.8886C22.3605 25.8747 21.0996 24.5078 21.126 22.8633ZM23.0207 22.9465C23.0405 23.4739 23.4564 23.8902 23.9581 23.8902C24.4863 23.8902 24.8956 23.4253 24.8758 22.8633C24.856 22.3359 24.4401 21.9196 23.9383 21.9196C23.4102 21.9196 23.0009 22.3845 23.0207 22.9465Z" fill="#40C79E"/>
</svg>
