<svg width="34" height="34" viewBox="0 0 34 34" fill="none" xmlns="http://www.w3.org/2000/svg">
<g clip-path="url(#clip0_89_6419)">
<path d="M30.8443 7.94459C30.6352 7.80086 30.4327 7.54606 30.3608 7.29778C29.2828 3.71746 26.3101 1.72476 22.5925 2.1429C22.2005 2.18864 21.9523 2.09717 21.6648 1.83583C19.071 -0.548871 15.0987 -0.627272 12.4657 1.68556C12.0214 2.07104 11.6229 2.18211 11.061 2.1233C7.53296 1.77703 4.50798 3.9004 3.5737 7.32392C3.50837 7.57219 3.3189 7.83353 3.10329 7.9838C-0.980103 10.8716 -1.04544 16.5622 2.95956 19.5088C3.18823 19.6786 3.39077 20.0119 3.4365 20.2928C3.93304 23.566 6.83389 26.1794 10.1529 26.1467C11.2962 26.1402 12.433 25.807 13.596 25.6175C13.3151 27.865 12.9884 30.2236 11.9888 32.4254C11.5837 33.3139 12.0018 33.9934 12.9753 33.9934C15.654 34.0065 18.3327 34.0065 21.0049 33.9934C21.9849 33.9934 22.4096 33.3335 22.0372 32.445C21.8412 31.9746 21.6256 31.5107 21.4949 31.0272C21.4361 30.8247 21.508 30.5111 21.6387 30.3412C21.9588 29.9231 22.3639 29.5637 22.7101 29.1652C23.1152 28.7079 23.1087 28.1068 22.7297 27.7344C22.3443 27.3554 21.7563 27.3685 21.2989 27.7736C21.1486 27.9042 20.9984 28.0414 20.7697 28.244C20.6325 27.2509 20.5149 26.4016 20.3973 25.5065C20.5868 25.5261 20.6325 25.5195 20.6717 25.5326C24.8988 27.5057 29.8577 24.7813 30.5307 20.1817C30.5633 19.9465 30.7855 19.6852 30.9945 19.5349C35.0779 16.6145 35.0061 10.7736 30.8573 7.93806L30.8443 7.94459ZM14.3343 31.968C15.4515 28.4596 15.739 24.8793 15.9742 21.2467H18.0257C18.2739 24.8466 18.5418 28.453 19.6721 31.968H14.3343V31.968ZM16.033 17.0979C16.0918 16.4054 16.6798 16.5818 17.1175 16.5557C17.5422 16.5361 17.9538 16.5818 17.9734 17.1371C17.9995 17.797 17.9734 18.4569 17.9734 19.169H16.0134C16.0134 18.4569 15.9676 17.7709 16.0264 17.0979H16.033ZM19.9857 17.3593C19.9596 15.5756 18.9599 14.563 17.1763 14.5695C16.6536 14.5695 16.0918 14.5891 15.6148 14.7655C14.5564 15.164 14.0468 16.0134 14.0141 17.1306C13.9945 17.7905 14.0141 18.4504 14.0141 19.1756H11.7405V12.6029H22.2659V19.1429H19.9922C19.9922 18.5353 19.9988 17.9408 19.9922 17.3527L19.9857 17.3593ZM12.4526 10.5318C13.9749 9.59102 15.3404 8.73514 16.719 7.90539C16.8366 7.83353 17.0783 7.82699 17.1959 7.89886C18.5941 8.73514 19.9726 9.59102 21.5145 10.5318H12.4592H12.4526ZM29.4526 18.1172C28.845 18.4634 28.5772 18.8685 28.5314 19.5741C28.4073 21.5341 27.3881 22.9519 25.6044 23.7359C23.8274 24.5265 22.1221 24.3108 20.5345 23.1414C19.855 22.6448 20.149 21.9457 20.0184 21.2009C21.0637 21.2009 22.0111 21.2009 22.9584 21.2009C23.9776 21.1944 24.2978 20.8677 24.2978 19.842C24.2978 17.6729 24.2978 15.5038 24.2978 13.3412V12.5703C24.6048 12.5703 24.8531 12.5833 25.0883 12.5703C25.5783 12.5376 25.9311 12.322 26.0683 11.8255C26.2055 11.3289 25.9965 10.9565 25.5848 10.6952C24.9903 10.3162 24.3827 9.95036 23.7751 9.58449C21.7563 8.34967 19.7309 7.12792 17.7251 5.88003C17.1632 5.52722 16.6863 5.54029 16.131 5.8931C13.6613 7.44152 11.1721 8.97034 8.68938 10.4992C8.19937 10.7997 7.72897 11.1133 7.8923 11.7928C8.06871 12.4984 8.63058 12.5964 9.24472 12.5833C9.35579 12.5833 9.46686 12.5964 9.67593 12.6095V13.3085C9.67593 15.4972 9.67593 17.6859 9.67593 19.8746C9.67593 20.8612 10.0026 21.1944 10.9826 21.2075C11.93 21.214 12.8838 21.2075 13.8247 21.2075C14.0991 22.3966 13.9357 22.8082 12.9949 23.4092C9.77393 25.4673 5.65133 23.3439 5.35733 19.45C5.30506 18.7901 5.04372 18.4242 4.48838 18.1041C1.1302 16.1637 1.14326 11.4073 4.52105 9.47995C5.08293 9.15981 5.34426 8.76781 5.44226 8.14713C5.89307 5.36389 8.72858 3.50186 11.4792 4.22707C12.2632 4.43614 12.7466 4.25974 13.2693 3.67173C15.3012 1.39809 18.7443 1.45689 20.737 3.7828C21.1682 4.28587 21.5995 4.43614 22.2463 4.26627C25.134 3.50839 27.8585 5.18749 28.4465 8.10793C28.5772 8.75474 28.845 9.14675 29.4265 9.47342C31.0795 10.4012 31.9615 11.8647 31.9745 13.7594C31.9876 15.6802 31.1121 17.1698 29.4396 18.1237L29.4526 18.1172Z" fill="#40C79E"/>
</g>
<defs>
<clipPath id="clip0_89_6419">
<rect width="34" height="34" fill="white"/>
</clipPath>
</defs>
</svg>
