<svg width="20" height="20" viewBox="0 0 20 20" fill="none" xmlns="http://www.w3.org/2000/svg">
<path fill-rule="evenodd" clip-rule="evenodd" d="M3.95601 5.135C3.95601 3.12744 5.584 1.5 7.59201 1.5C9.59891 1.5 11.227 3.12733 11.227 5.135L11.227 5.1378C11.2345 7.13582 9.62002 8.76189 7.62144 8.77H7.59201C5.584 8.77 3.95601 7.14256 3.95601 5.135ZM7.59201 0C4.75602 0 2.45601 2.29856 2.45601 5.135C2.45601 7.97144 4.75602 10.27 7.59201 10.27H7.62301L7.62581 10.27C10.4522 10.2595 12.7369 7.96045 12.727 5.13346C12.7262 2.29784 10.4266 0 7.59201 0ZM1.5 15.519C1.5 15.1569 1.61893 14.8864 1.83978 14.655C2.07793 14.4054 2.46223 14.1752 3.02075 13.9854C4.14567 13.603 5.75361 13.457 7.592 13.457C9.42048 13.457 11.0293 13.5984 12.158 13.9768C12.7185 14.1647 13.1046 14.3932 13.3437 14.6413C13.5651 14.8709 13.684 15.139 13.684 15.499C13.684 15.8607 13.5652 16.1307 13.3444 16.3617C13.1063 16.6108 12.722 16.8407 12.1633 17.0301C11.0382 17.4118 9.4301 17.557 7.592 17.557C5.76258 17.557 4.1537 17.4169 3.0251 17.0395C2.4646 16.8521 2.07884 16.6241 1.83994 16.3764C1.61892 16.1473 1.5 15.8794 1.5 15.519ZM7.592 11.957C5.71939 11.957 3.90633 12.1001 2.538 12.5652C1.8499 12.7991 1.21951 13.1323 0.754624 13.6194C0.272445 14.1247 0 14.7641 0 15.519C0 16.2757 0.275079 16.9148 0.760374 17.4178C1.22779 17.9024 1.86065 18.2317 2.5494 18.4621C3.9193 18.9202 5.73142 19.057 7.592 19.057C9.4639 19.057 11.2768 18.9148 12.6452 18.4507C13.3332 18.2173 13.9638 17.8847 14.4289 17.398C14.9113 16.8931 15.184 16.2539 15.184 15.499C15.184 14.7425 14.9088 14.1034 14.4237 13.6002C13.9564 13.1155 13.3236 12.7855 12.6348 12.5546C11.2647 12.0952 9.45252 11.957 7.592 11.957ZM13.8185 1.74263C13.8855 1.33388 14.2712 1.05686 14.68 1.1239C16.6036 1.43939 18.0706 3.10768 18.0706 5.12001L18.0706 5.12137C18.0669 7.16301 16.5535 8.84849 14.588 9.12472C14.1778 9.18236 13.7985 8.89657 13.7409 8.48639C13.6832 8.07621 13.969 7.69696 14.3792 7.63931C15.6155 7.46557 16.568 6.40339 16.5706 5.11932C16.5703 3.85396 15.6474 2.8026 14.4372 2.60413C14.0285 2.53709 13.7514 2.15138 13.8185 1.74263ZM16.7064 11.4906C16.2967 11.4296 15.9151 11.7122 15.8541 12.1219C15.7931 12.5316 16.0757 12.9132 16.4854 12.9742C17.2203 13.0837 17.7525 13.2567 18.0831 13.4736C18.376 13.6658 18.4799 13.8641 18.4799 14.1274C18.4799 14.3299 18.4194 14.4708 18.3102 14.5942C18.1872 14.7332 17.9734 14.8797 17.6296 15.0103C17.2424 15.1574 17.0477 15.5905 17.1948 15.9777C17.3419 16.365 17.775 16.5596 18.1622 16.4125C18.6424 16.2302 19.0956 15.9701 19.4336 15.5882C19.7855 15.1905 19.9799 14.696 19.9799 14.1274C19.9799 13.2708 19.5423 12.637 18.906 12.2195C18.3073 11.8266 17.5225 11.6122 16.7064 11.4906Z" fill="#434343"/>
</svg>
