<svg width="230" height="54" viewBox="0 0 230 54" fill="none" xmlns="http://www.w3.org/2000/svg">
<rect x="0.5" y="0.5" width="229" height="53" rx="9.5" fill="white"/>
<path d="M54.8895 23.984H53.9565C51.9215 23.984 50.2715 25.634 50.2715 27.669V32.544C50.2715 34.578 51.9215 36.228 53.9565 36.228H65.0865C67.1215 36.228 68.7715 34.578 68.7715 32.544V27.659C68.7715 25.63 67.1265 23.984 65.0975 23.984H64.1545" stroke="black" stroke-width="1.5" stroke-linecap="round" stroke-linejoin="round"/>
<path d="M59.5215 17.1904V29.2314" stroke="black" stroke-width="1.5" stroke-linecap="round" stroke-linejoin="round"/>
<path d="M56.6055 20.1189L59.5205 17.1909L62.4365 20.1189" stroke="black" stroke-width="1.5" stroke-linecap="round" stroke-linejoin="round"/>
<path d="M87.058 32.14C86.358 32.14 85.7093 32.014 85.112 31.762C84.5147 31.5007 83.992 31.1413 83.544 30.684C83.1053 30.2267 82.7647 29.6947 82.522 29.088C82.2793 28.4813 82.158 27.8327 82.158 27.142C82.158 26.442 82.2793 25.7887 82.522 25.182C82.7647 24.5753 83.1053 24.048 83.544 23.6C83.992 23.1427 84.51 22.788 85.098 22.536C85.6953 22.2747 86.344 22.144 87.044 22.144C87.8093 22.144 88.4813 22.2747 89.06 22.536C89.6387 22.7973 90.152 23.152 90.6 23.6L89.69 24.51C89.382 24.1647 89.004 23.894 88.556 23.698C88.1173 23.502 87.6133 23.404 87.044 23.404C86.5307 23.404 86.0593 23.4973 85.63 23.684C85.2007 23.8613 84.8273 24.118 84.51 24.454C84.1927 24.79 83.9453 25.1867 83.768 25.644C83.6 26.1013 83.516 26.6007 83.516 27.142C83.516 27.6833 83.6 28.1827 83.768 28.64C83.9453 29.0973 84.1927 29.494 84.51 29.83C84.8273 30.166 85.2007 30.4273 85.63 30.614C86.0593 30.7913 86.5307 30.88 87.044 30.88C87.6507 30.88 88.178 30.782 88.626 30.586C89.074 30.3807 89.452 30.1053 89.76 29.76L90.67 30.656C90.222 31.1227 89.6947 31.4867 89.088 31.748C88.4907 32.0093 87.814 32.14 87.058 32.14ZM96.7667 32V28.122C96.7667 27.618 96.608 27.2027 96.2907 26.876C95.9733 26.5493 95.5627 26.386 95.0587 26.386C94.7227 26.386 94.424 26.4607 94.1627 26.61C93.9013 26.7593 93.696 26.9647 93.5467 27.226C93.3973 27.4873 93.3227 27.786 93.3227 28.122L92.8047 27.828C92.8047 27.324 92.9167 26.876 93.1407 26.484C93.3647 26.092 93.6773 25.784 94.0787 25.56C94.48 25.3267 94.9327 25.21 95.4367 25.21C95.9407 25.21 96.384 25.322 96.7667 25.546C97.1587 25.77 97.4667 26.0827 97.6907 26.484C97.9147 26.8853 98.0267 27.3473 98.0267 27.87V32H96.7667ZM92.0627 32V22.004H93.3227V32H92.0627ZM102.771 32.14C102.117 32.14 101.529 31.986 101.007 31.678C100.484 31.37 100.069 30.9547 99.7606 30.432C99.4526 29.9 99.2986 29.3073 99.2986 28.654C99.2986 28.01 99.4526 27.4313 99.7606 26.918C100.069 26.3953 100.484 25.98 101.007 25.672C101.529 25.364 102.117 25.21 102.771 25.21C103.415 25.21 103.998 25.364 104.521 25.672C105.053 25.9707 105.473 26.3813 105.781 26.904C106.089 27.4267 106.243 28.01 106.243 28.654C106.243 29.3073 106.089 29.9 105.781 30.432C105.473 30.9547 105.053 31.37 104.521 31.678C103.998 31.986 103.415 32.14 102.771 32.14ZM102.771 30.922C103.191 30.922 103.564 30.824 103.891 30.628C104.217 30.432 104.474 30.166 104.661 29.83C104.847 29.4847 104.941 29.0927 104.941 28.654C104.941 28.2247 104.843 27.842 104.647 27.506C104.46 27.17 104.203 26.9087 103.877 26.722C103.559 26.526 103.191 26.428 102.771 26.428C102.351 26.428 101.977 26.526 101.651 26.722C101.324 26.9087 101.067 27.17 100.881 27.506C100.694 27.842 100.601 28.2247 100.601 28.654C100.601 29.0927 100.694 29.4847 100.881 29.83C101.067 30.166 101.324 30.432 101.651 30.628C101.977 30.824 102.351 30.922 102.771 30.922ZM110.7 32.14C110.047 32.14 109.459 31.986 108.936 31.678C108.414 31.37 107.998 30.9547 107.69 30.432C107.382 29.9 107.228 29.3073 107.228 28.654C107.228 28.01 107.382 27.4313 107.69 26.918C107.998 26.3953 108.414 25.98 108.936 25.672C109.459 25.364 110.047 25.21 110.7 25.21C111.344 25.21 111.928 25.364 112.45 25.672C112.982 25.9707 113.402 26.3813 113.71 26.904C114.018 27.4267 114.172 28.01 114.172 28.654C114.172 29.3073 114.018 29.9 113.71 30.432C113.402 30.9547 112.982 31.37 112.45 31.678C111.928 31.986 111.344 32.14 110.7 32.14ZM110.7 30.922C111.12 30.922 111.494 30.824 111.82 30.628C112.147 30.432 112.404 30.166 112.59 29.83C112.777 29.4847 112.87 29.0927 112.87 28.654C112.87 28.2247 112.772 27.842 112.576 27.506C112.39 27.17 112.133 26.9087 111.806 26.722C111.489 26.526 111.12 26.428 110.7 26.428C110.28 26.428 109.907 26.526 109.58 26.722C109.254 26.9087 108.997 27.17 108.81 27.506C108.624 27.842 108.53 28.2247 108.53 28.654C108.53 29.0927 108.624 29.4847 108.81 29.83C108.997 30.166 109.254 30.432 109.58 30.628C109.907 30.824 110.28 30.922 110.7 30.922ZM117.706 32.14C117.333 32.14 116.978 32.0933 116.642 32C116.315 31.8973 116.012 31.7573 115.732 31.58C115.452 31.3933 115.209 31.174 115.004 30.922L115.816 30.11C116.059 30.4087 116.339 30.6327 116.656 30.782C116.973 30.922 117.328 30.992 117.72 30.992C118.112 30.992 118.415 30.9267 118.63 30.796C118.845 30.656 118.952 30.4647 118.952 30.222C118.952 29.9793 118.863 29.7927 118.686 29.662C118.518 29.522 118.299 29.41 118.028 29.326C117.757 29.2327 117.468 29.144 117.16 29.06C116.861 28.9667 116.577 28.85 116.306 28.71C116.035 28.57 115.811 28.3787 115.634 28.136C115.466 27.8933 115.382 27.5713 115.382 27.17C115.382 26.7687 115.48 26.4233 115.676 26.134C115.872 25.8353 116.143 25.6067 116.488 25.448C116.843 25.2893 117.267 25.21 117.762 25.21C118.285 25.21 118.747 25.3033 119.148 25.49C119.559 25.6673 119.895 25.938 120.156 26.302L119.344 27.114C119.157 26.8713 118.924 26.6847 118.644 26.554C118.373 26.4233 118.065 26.358 117.72 26.358C117.356 26.358 117.076 26.4233 116.88 26.554C116.693 26.6753 116.6 26.848 116.6 27.072C116.6 27.296 116.684 27.4687 116.852 27.59C117.02 27.7113 117.239 27.814 117.51 27.898C117.79 27.982 118.079 28.0707 118.378 28.164C118.677 28.248 118.961 28.3647 119.232 28.514C119.503 28.6633 119.722 28.864 119.89 29.116C120.067 29.368 120.156 29.6993 120.156 30.11C120.156 30.7353 119.932 31.23 119.484 31.594C119.045 31.958 118.453 32.14 117.706 32.14ZM124.647 32.14C123.984 32.14 123.387 31.9907 122.855 31.692C122.323 31.384 121.903 30.9687 121.595 30.446C121.287 29.9233 121.133 29.3307 121.133 28.668C121.133 28.0147 121.282 27.4267 121.581 26.904C121.889 26.3813 122.299 25.9707 122.813 25.672C123.335 25.364 123.919 25.21 124.563 25.21C125.179 25.21 125.72 25.35 126.187 25.63C126.663 25.91 127.031 26.2973 127.293 26.792C127.563 27.2867 127.699 27.8467 127.699 28.472C127.699 28.5653 127.694 28.668 127.685 28.78C127.675 28.8827 127.657 29.004 127.629 29.144H122.015V28.094H126.957L126.495 28.5C126.495 28.052 126.415 27.674 126.257 27.366C126.098 27.0487 125.874 26.806 125.585 26.638C125.295 26.4607 124.945 26.372 124.535 26.372C124.105 26.372 123.727 26.4653 123.401 26.652C123.074 26.8387 122.822 27.1 122.645 27.436C122.467 27.772 122.379 28.1687 122.379 28.626C122.379 29.0927 122.472 29.5033 122.659 29.858C122.845 30.2033 123.111 30.474 123.457 30.67C123.802 30.8567 124.199 30.95 124.647 30.95C125.02 30.95 125.361 30.8847 125.669 30.754C125.986 30.6233 126.257 30.4273 126.481 30.166L127.293 30.992C126.975 31.3653 126.583 31.65 126.117 31.846C125.659 32.042 125.169 32.14 124.647 32.14ZM132.209 32V22.284H133.525V32H132.209ZM133.105 27.73V26.526H138.173V27.73H133.105ZM133.105 23.488V22.284H138.411V23.488H133.105ZM139.928 32V25.35H141.188V32H139.928ZM140.558 24.02C140.325 24.02 140.134 23.9453 139.984 23.796C139.835 23.6373 139.76 23.4413 139.76 23.208C139.76 22.984 139.835 22.7973 139.984 22.648C140.134 22.4893 140.325 22.41 140.558 22.41C140.792 22.41 140.983 22.4893 141.132 22.648C141.282 22.7973 141.356 22.984 141.356 23.208C141.356 23.4413 141.282 23.6373 141.132 23.796C140.983 23.9453 140.792 24.02 140.558 24.02ZM143.045 32V22.004H144.305V32H143.045ZM149.229 32.14C148.566 32.14 147.969 31.9907 147.437 31.692C146.905 31.384 146.485 30.9687 146.177 30.446C145.869 29.9233 145.715 29.3307 145.715 28.668C145.715 28.0147 145.864 27.4267 146.163 26.904C146.471 26.3813 146.881 25.9707 147.395 25.672C147.917 25.364 148.501 25.21 149.145 25.21C149.761 25.21 150.302 25.35 150.769 25.63C151.245 25.91 151.613 26.2973 151.875 26.792C152.145 27.2867 152.281 27.8467 152.281 28.472C152.281 28.5653 152.276 28.668 152.267 28.78C152.257 28.8827 152.239 29.004 152.211 29.144H146.597V28.094H151.539L151.077 28.5C151.077 28.052 150.997 27.674 150.839 27.366C150.68 27.0487 150.456 26.806 150.167 26.638C149.877 26.4607 149.527 26.372 149.117 26.372C148.687 26.372 148.309 26.4653 147.983 26.652C147.656 26.8387 147.404 27.1 147.227 27.436C147.049 27.772 146.961 28.1687 146.961 28.626C146.961 29.0927 147.054 29.5033 147.241 29.858C147.427 30.2033 147.693 30.474 148.039 30.67C148.384 30.8567 148.781 30.95 149.229 30.95C149.602 30.95 149.943 30.8847 150.251 30.754C150.568 30.6233 150.839 30.4273 151.063 30.166L151.875 30.992C151.557 31.3653 151.165 31.65 150.699 31.846C150.241 32.042 149.751 32.14 149.229 32.14Z" fill="black"/>
<rect x="0.5" y="0.5" width="229" height="53" rx="9.5" stroke="#C0C0C0"/>
</svg>
