<svg width="50" height="50" viewBox="0 0 50 50" fill="none" xmlns="http://www.w3.org/2000/svg">
<g clip-path="url(#clip0_523_20297)">
<path fill-rule="evenodd" clip-rule="evenodd" d="M26.3165 3.50286L26.3165 3.50286C26.5256 3.50461 26.7442 3.50645 26.977 3.50646C26.9017 3.30075 26.8363 3.11185 26.7752 2.93526C26.6525 2.58058 26.547 2.27554 26.4127 1.98356C25.9539 0.980009 25.0343 0.527043 24.0073 0.896054C18.2984 2.95002 12.5953 5.02351 6.90198 7.11652C5.83205 7.50896 5.40251 8.47933 5.71685 9.57269C5.79207 9.83594 5.89271 10.0923 5.99327 10.3484C6.10675 10.6375 6.22013 10.9263 6.29673 11.2245C6.4705 11.9039 6.82974 12.1128 7.53848 12.107C10.4134 12.0801 13.2883 12.0829 16.1632 12.0858C17.2537 12.0869 18.3442 12.088 19.4347 12.0874C19.6276 12.0874 19.8214 12.0767 20.0669 12.0631C20.1842 12.0566 20.3133 12.0495 20.4597 12.0425C20.4597 11.5955 20.4511 11.152 20.4426 10.7113C20.4239 9.7409 20.4054 8.78427 20.4792 7.83502C20.6647 5.43352 22.6816 3.59432 25.0909 3.51037C25.4842 3.49585 25.8792 3.49918 26.3165 3.50286ZM45.5354 41.7375V41.7373V41.7372C45.5248 40.9867 45.5142 40.2277 45.5142 39.4569L45.5122 39.4549C44.7704 39.4549 44.036 39.4581 43.3067 39.4613H43.3064H43.3061C41.6919 39.4684 40.1028 39.4753 38.5147 39.4471C34.8499 39.3807 31.7534 36.4286 31.4566 32.7717C31.152 29.0386 33.7039 25.5243 37.3842 25.0244C38.9804 24.8078 40.6085 24.8184 42.236 24.8289H42.236C42.9556 24.8336 43.675 24.8383 44.3915 24.8233C44.6362 24.8195 44.8808 24.8207 45.1472 24.8219H45.1473H45.1474C45.2891 24.8226 45.4369 24.8233 45.5942 24.8233C45.5942 24.142 45.5952 23.4749 45.5962 22.8175V22.8154V22.8134V22.8129V22.8123C45.5982 21.3937 45.6003 20.0202 45.5923 18.6458C45.5766 15.766 44.0596 14.247 41.1973 14.247C28.9341 14.245 16.6708 14.245 4.40752 14.247C1.5472 14.247 0.000867757 15.7874 0.000867757 18.6302C-0.000433885 24.6151 1.63744e-10 30.601 0.000433897 36.5865C0.00065083 39.5791 0.000867757 42.5717 0.000867757 45.5641C0.000867757 48.4674 1.54134 49.9942 4.47 49.9942H32.7706C33.6162 49.9942 34.4618 49.9954 35.3075 49.9967C37.4217 49.9999 39.536 50.0031 41.6503 49.9863C43.6222 49.9707 45.3599 48.6372 45.4771 46.7844C45.583 45.1222 45.5595 43.4524 45.5354 41.7377V41.7375ZM43.4416 36.5359C42.9688 36.5359 42.496 36.5377 42.0233 36.5395H42.0231C40.9361 36.5436 39.8493 36.5477 38.7635 36.53C36.3113 36.489 34.4057 34.6108 34.3686 32.2327C34.3295 29.8097 36.2234 27.8007 38.6971 27.7616C41.6713 27.7165 44.6454 27.7331 47.6211 27.7498L48.3461 27.7538C49.418 27.7597 49.9705 28.322 49.9822 29.3861C50.0037 31.2057 49.9998 33.0254 49.9822 34.8431C49.9725 35.9814 49.4395 36.5183 48.3129 36.532C47.1831 36.5442 46.0534 36.5413 44.9236 36.5384H44.9228C44.4284 36.5372 43.934 36.5359 43.4396 36.5359H43.4416ZM40.2161 32.1078C40.1908 31.3444 39.523 30.6903 38.7655 30.6864C37.9689 30.6825 37.2797 31.3932 37.3031 32.1917C37.3265 33.002 38.0353 33.6443 38.8494 33.5955C39.6226 33.5487 40.2415 32.8751 40.2161 32.1078ZM23.3711 10.8169C23.3769 11.2164 23.3828 11.6165 23.3828 12.0172H40.4139C40.4139 11.6141 40.4178 11.2181 40.4216 10.827C40.4302 9.9488 40.4386 9.09548 40.4022 8.2431C40.3592 7.21807 39.5958 6.45076 38.5708 6.4449C34.1134 6.41757 29.6579 6.41952 25.2005 6.441C24.2321 6.4449 23.4667 7.09506 23.4042 8.03614C23.3441 8.95946 23.3576 9.8866 23.3711 10.8169Z" fill="url(#paint0_linear_523_20297)"/>
<g clip-path="url(#clip1_523_20297)">
<path fill-rule="evenodd" clip-rule="evenodd" d="M11.8099 29.9911C11.8792 30.2902 12.0229 30.6326 12.1462 30.8807C12.2847 31.154 12.3777 31.386 12.4845 31.6417C12.5894 31.8912 13.0885 33.001 13.167 33.096C13.7671 33.2602 16.1989 33.1617 16.9935 33.1617C17.6384 33.1617 20.2965 33.0625 20.702 33.205C20.7541 33.4629 20.7673 36.2792 20.7132 36.4616C19.7617 36.6936 15.8422 36.3526 14.7186 36.5566C14.8102 36.9347 14.9428 37.0458 15.0588 37.361L16.1356 39.6553C16.8907 39.7461 17.9826 39.6811 18.7733 39.6811C19.6536 39.6811 20.5319 39.6853 21.4129 39.6832C22.4356 39.6811 22.8484 39.7112 23.5942 39.1682C24.1177 38.7859 24.5609 38.2988 24.7923 37.651C25.0693 36.8823 24.9868 35.9515 24.9868 35.0381C24.9868 34.3784 25.0521 32.8214 24.882 32.3259C24.4 30.9233 23.5177 30.1134 21.9028 29.9722C21.8019 29.3482 21.8784 28.1161 21.8764 27.4208C21.8692 25.7387 21.5513 25.6059 21.5718 25.2579C21.312 25.0993 21.5098 25.2223 21.3232 24.9253C20.7066 23.935 19.9061 23.8176 19.2691 23.5388L8.82284 23.5276C8.83998 23.7834 8.86042 23.7554 8.96857 23.979L10.2003 26.7562C11.2415 26.9679 15.9893 26.6751 17.705 26.8135C17.7723 27.2056 17.7743 29.6026 17.6938 29.9848L11.8099 29.9911Z" fill="#FBFFFF"/>
</g>
</g>
<defs>
<linearGradient id="paint0_linear_523_20297" x1="4.41142" y1="13.2342" x2="24.9985" y2="49.9993" gradientUnits="userSpaceOnUse">
<stop stop-color="#929292"/>
<stop offset="1" stop-color="#434343"/>
</linearGradient>
<clipPath id="clip0_523_20297">
<rect width="49.9961" height="50" fill="white"/>
</clipPath>
<clipPath id="clip1_523_20297">
<rect width="16.1752" height="16.1752" fill="white" transform="translate(8.82284 23.5276)"/>
</clipPath>
</defs>
</svg>
